SplineFontDB: 3.0
FontName: CMUSerif-UprightItalic
FullName: CMU Serif Upright Italic
FamilyName: CMU Serif Upright Italic
Weight: Medium
Copyright: Converted by Andrey V. Panov from TeX fonts
UComments: "2009-6-18: Created." 
Version: 0.7.0
ItalicAngle: 0
UnderlinePosition: -100
UnderlineWidth: 50
Ascent: 800
Descent: 200
LayerCount: 2
Layer: 0 0 "+BBcEMAQ0BD0EOAQ5 +BD8EOwQwBD0A"  1
Layer: 1 0 "+BB8ENQRABDUENAQ9BDgEOQAA +BD8EOwQwBD0A"  0
NeedsXUIDChange: 1
XUID: [1067 2563326]
FSType: 0
OS2Version: 0
OS2_WeightWidthSlopeOnly: 0
OS2_UseTypoMetrics: 1
CreationTime: 1245312301
ModificationTime: 1245312762
PfmFamily: 17
TTFWeight: 500
TTFWidth: 5
LineGap: 200
VLineGap: 90
OS2TypoAscent: 0
OS2TypoAOffset: 1
OS2TypoDescent: 0
OS2TypoDOffset: 1
OS2TypoLinegap: 200
OS2WinAscent: 936
OS2WinAOffset: 0
OS2WinDescent: 250
OS2WinDOffset: 0
HheadAscent: 936
HheadAOffset: 0
HheadDescent: -250
HheadDOffset: 0
Lookup: 1 0 0 "Case substitutions"  {"Case substitutions subtable"  } ['case' ('cyrl' <'dflt' > 'grek' <'dflt' > 'latn' <'dflt' > ) ]
Lookup: 1 0 0 "Italic substitutions"  {"Italic substitutions cyr"  } ['locl' ('cyrl' <'MKD ' 'SRB ' > ) ]
Lookup: 3 0 0 "Greek alternatives"  {"Greek alternatives subtable"  } ['salt' ('grek' <'dflt' > ) ]
Lookup: 1 0 0 "Greek substitutions"  {"Greek substitutions subtable"  } ['locl' ('grek' <'dflt' > ) ]
Lookup: 4 0 1 "Latin Dutch ligatures"  {"Latin Dutch ligatures subtable"  } ['liga' ('latn' <'NLD ' > ) ]
Lookup: 4 0 1 "Latin ligatures excepting Turkic"  {"Latin ligatures excepting Turkic subtable"  } ['liga' ('latn' <'dflt' 'NLD ' 'VIT ' > ) ]
Lookup: 4 0 1 "Latin ligatures"  {"Latin ligatures subtable"  } ['liga' ('latn' <'dflt' 'NLD ' 'VIT ' 'TRK ' 'AZE ' > ) ]
Lookup: 4 0 1 "Cyrillic ligatures"  {"Cyrillic ligatures subtable"  } ['liga' ('cyrl' <'dflt' 'MKD ' 'SRB ' > ) ]
Lookup: 3 0 0 "Latin alternatives"  {"Latin alternatives subtable"  } ['salt' ('latn' <'dflt' > ) ]

StartChar: .notdef
Encoding: 0 0 0
Width: 760
Flags: HW
HStem: 10 60<105 655> 705 60<105 655>
VStem: 10 60<112 663> 690 60<112 663>
DStem2: 105 705 70 663 0.702289 -0.711892<5.31938 389.612 448.699 832.991> 70 112 105 70 0.702289 0.711892<0 384.292 443.379 827.672>
LayerCount: 2
Fore
SplineSet
10 10 m 1
 10 765 l 1
 750 765 l 1
 750 10 l 1
 10 10 l 1
70 112 m 1
 346 388 l 1
 70 663 l 1
 70 112 l 1
105 70 m 1
 655 70 l 1
 380 346 l 1
 105 70 l 1
105 705 m 1
 380 429 l 1
 655 705 l 1
 105 705 l 1
414 388 m 1
 690 112 l 1
 690 663 l 1
 414 388 l 1
EndSplineSet
EndChar

StartChar: uni262D
Encoding: 9773 9773 1
Width: 700
Flags: HW
TeX: 117 0
HStem: -1 21G<56 93 593.5 601> 39 76<321.786 462.78> 102 51<140.549 177.987>
VStem: 129 54<101.776 137.734> 556 82<197.341 366.709>
DStem2: 123 357 178 301 0.707107 0.707107<0 86.9741 130.108 182.434>
LayerCount: 2
Fore
SplineSet
40 18 m 0
 40 64 129 102 129 128 c 0
 129 148 134 153 148 153 c 0xb8
 162 153 164 157 182 180 c 1
 229 156 307 115 390 115 c 0
 438 115 463 128 463 129 c 0
 463 135 406 186 240 363 c 1
 178 301 l 1
 123 357 l 1
 252 486 l 1
 347 470 l 1
 271 393 l 1
 484 190 l 1
 513 165 l 1
 519 165 556 218 556 295 c 0
 556 473 346 588 346 593 c 1
 394 593 638 478 638 267 c 0
 638 167 592 118 580 100 c 1
 636 44 637 42 637 38 c 0xd8
 637 17 605 -1 597 -1 c 2
 596 -1 l 2
 591 -1 590 1 529 62 c 1
 500 51 474 39 428 39 c 0xd8
 297 39 201 138 188 138 c 0
 183 138 182 134 182 130 c 0
 182 126 183 123 183 118 c 0
 183 108 178 102 168 102 c 0
 131 102 122 0 64 -0 c 0
 48 0 40 7 40 18 c 0
EndSplineSet
EndChar

StartChar: circumflex.cap
Encoding: 65536 -1 2
Width: 555
Flags: HW
HStem: 743 159
VStem: 269 267
AnchorPoint: "above" 402 705 mark 0
LayerCount: 2
Fore
SplineSet
269 761 m 1
 269 762 l 1
 402 902 l 1
 403 902 l 1
 536 762 l 1
 536 761 l 1
 519 743 l 1
 518 743 l 1
 403 849 l 1
 402 849 l 1
 287 743 l 1
 269 761 l 1
EndSplineSet
EndChar

StartChar: dieresis.cap
Encoding: 65537 -1 3
Width: 555
Flags: HW
HStem: 733 105<234.462 319.34 429.078 513.309>
VStem: 224 105<743.412 827.613> 419 105<743.836 827.229>
AnchorPoint: "above" 374 705 mark 0
LayerCount: 2
Fore
SplineSet
224 786 m 0
 224 817 250 838 277 838 c 0
 308 838 329 813 329 785 c 0
 329 754 303 733 277 733 c 0
 245 733 224 759 224 786 c 0
EndSplineSet
Refer: 4 -1 S 1 0 0 1 40 -23 2
EndChar

StartChar: caron.cap
Encoding: 65539 -1 5
Width: 555
Flags: HW
HStem: 770 146
VStem: 236 304
AnchorPoint: "above" 388 705 mark 0
LayerCount: 2
Fore
SplineSet
236 899 m 1
 236 900 l 1
 247 916 l 1
 378 838 381 836 388 836 c 0
 399 836 448 870 529 916 c 1
 540 900 l 1
 540 899 l 1
 388 770 l 1
 387 770 l 1
 236 899 l 1
EndSplineSet
EndChar

StartChar: ring.cap
Encoding: 65540 -1 6
Width: 555
Flags: HW
HStem: 730 23<386.757 474.025> 891 22<388.168 473.671>
VStem: 335 25<778.024 866.552> 501 25<777.557 866.262>
AnchorPoint: "above" 430 705 mark 0
LayerCount: 2
Fore
SplineSet
335 822 m 0
 335 871 377 913 430 913 c 0
 479 913 526 876 526 821 c 0
 526 779 491 730 431 730 c 0
 382 730 335 768 335 822 c 0
360 822 m 0
 360 767 397 753 430 753 c 0
 487 753 501 789 501 822 c 0
 501 866 477 891 431 891 c 0
 374 891 360 855 360 822 c 0
EndSplineSet
EndChar

StartChar: breve.cap
Encoding: 65541 -1 7
Width: 555
Flags: HW
HStem: 753 38<359.465 506.731>
VStem: 283 23<850.299 891> 561 22<852.579 891>
AnchorPoint: "above" 433 705 mark 0
LayerCount: 2
Fore
SplineSet
283 891 m 1
 306 891 l 1
 310 820 378 791 434 791 c 0
 495 791 557 825 561 891 c 1
 583 891 l 1
 580 803 507 753 433 753 c 0
 357 753 286 806 283 891 c 1
EndSplineSet
EndChar

StartChar: grave
Encoding: 96 96 8
Width: 555
Flags: HW
TeX: 641 0
HStem: 490 152
VStem: 128 184
LayerCount: 2
Fore
SplineSet
128 605 m 0
 128 622 143 642 163 642 c 0
 180 642 180 638 312 510 c 1
 297 490 l 1
 128 586 128 581 128 605 c 0
EndSplineSet
EndChar

StartChar: acute
Encoding: 180 180 9
Width: 555
Flags: HW
TeX: 641 0
HStem: 490 152
VStem: 242 185
LayerCount: 2
Fore
SplineSet
242 510 m 1
 373 638 373 642 392 642 c 0
 411 642 427 623 427 605 c 0
 427 581 418 581 258 490 c 1
 257 490 l 1
 242 510 l 1
EndSplineSet
EndChar

StartChar: circumflex
Encoding: 710 710 10
Width: 500
Flags: HW
TeX: 641 0
HStem: 483 167
VStem: 116 268
LayerCount: 2
Fore
SplineSet
116 500 m 1
 249 650 l 1
 250 650 l 1
 384 500 l 1
 366 483 l 1
 365 483 l 1
 250 597 l 1
 249 597 l 1
 135 483 l 1
 134 483 l 1
 116 500 l 1
EndSplineSet
EndChar

StartChar: tilde
Encoding: 732 732 11
Width: 555
Flags: HW
TeX: 641 0
HStem: 574 46<286.018 389.048> 621 47<165.499 266.982>
LayerCount: 2
Fore
SplineSet
110 589 m 1
 144 628 175 668 218 668 c 0
 265 668 299 620 346 620 c 0
 385 620 417 658 426 668 c 1
 427 668 l 1
 443 653 l 1
 409 613 378 574 335 574 c 0
 288 574 254 621 207 621 c 0
 168 621 136 584 127 574 c 1
 110 589 l 1
EndSplineSet
EndChar

StartChar: dieresis
Encoding: 168 168 12
Width: 555
Flags: HW
TeX: 663 0
HStem: 553 106<137.412 222.23 331.77 416.588>
VStem: 127 106<563.771 648.229> 321 106<563.771 648.229>
LayerCount: 2
Fore
SplineSet
127 606 m 0
 127 637 153 659 180 659 c 0
 211 659 233 633 233 606 c 0
 233 580 211 553 180 553 c 0
 152 553 127 575 127 606 c 0
321 606 m 0
 321 632 343 659 374 659 c 0
 402 659 427 637 427 606 c 0
 427 575 401 553 374 553 c 0
 343 553 321 579 321 606 c 0
EndSplineSet
EndChar

StartChar: hungarumlaut
Encoding: 733 733 13
Width: 555
Flags: HW
TeX: 641 0
HStem: 490 152
VStem: 159 185
LayerCount: 2
Fore
SplineSet
326 510 m 1
 459 639 456 642 475 642 c 0
 494 642 510 623 510 605 c 0
 510 581 501 581 341 490 c 1
 340 490 l 1
 326 510 l 1
EndSplineSet
Refer: 9 180 S 1 0 0 1 -83 0 2
EndChar

StartChar: ring
Encoding: 730 730 14
Width: 805
Flags: HW
TeX: 641 0
HStem: 500 22<355.086 448.041> 638 23<353.703 448.981>
VStem: 306 25<543.609 617.318> 472 25<542.107 617.767>
LayerCount: 2
Fore
SplineSet
306 580 m 0
 306 620 344 661 402 661 c 0
 445 661 497 632 497 580 c 0
 497 533 451 500 402 500 c 0
 359 500 306 528 306 580 c 0
331 580 m 0
 331 560 339 522 400 522 c 0
 452 522 472 545 472 580 c 0
 472 602 464 638 403 638 c 0
 351 638 331 615 331 580 c 0
EndSplineSet
EndChar

StartChar: caron
Encoding: 711 711 15
Width: 500
Flags: HW
TeX: 641 0
HStem: 483 164
VStem: 96 306
LayerCount: 2
Fore
SplineSet
96 630 m 1
 96 632 l 1
 109 647 l 1
 249 552 l 1
 389 647 l 1
 402 632 l 1
 402 630 l 1
 249 483 l 1
 96 630 l 1
EndSplineSet
EndChar

StartChar: breve
Encoding: 728 728 16
Width: 555
Flags: HW
TeX: 641 0
HStem: 503 38<202.135 351.865>
VStem: 127 23<600.71 639> 404 23<601.812 639>
LayerCount: 2
Fore
SplineSet
127 639 m 1
 150 639 l 1
 154 572 218 541 277 541 c 0
 331 541 399 570 404 639 c 1
 427 639 l 1
 424 550 348 503 277 503 c 0
 206 503 130 551 127 639 c 1
EndSplineSet
EndChar

StartChar: macron
Encoding: 175 175 17
Width: 555
Flags: HW
TeX: 663 0
HStem: 649 32<96 457>
LayerCount: 2
Fore
SplineSet
96 649 m 1
 96 681 l 1
 457 681 l 1
 457 649 l 1
 96 649 l 1
EndSplineSet
EndChar

StartChar: dotaccent
Encoding: 729 729 18
Width: 333
Flags: HW
TeX: 663 0
HStem: 563 105<137.078 221.309>
VStem: 127 105<573.836 657.229>
LayerCount: 2
Fore
SplineSet
127 615 m 0
 127 646 152 668 179 668 c 0
 205 668 232 646 232 615 c 0
 232 584 205 563 179 563 c 0
 147 563 127 588 127 615 c 0
EndSplineSet
EndChar

StartChar: cedilla
Encoding: 184 184 19
Width: 500
Flags: HW
TeX: 0 170
HStem: -203 22<131 255.227> -71 71<214 281.035>
VStem: 214 70<-59.2973 0> 297 70<-161.377 -88.7259>
LayerCount: 2
Fore
SplineSet
131 -181 m 1
 163 -181 l 2
 210 -181 297 -178 297 -126 c 0
 297 -104 279 -74 214 -71 c 1
 214 -0 l 1
 284 -0 l 1
 284 -54 l 1
 297 -57 367 -68 367 -126 c 0
 367 -201 247 -203 144 -203 c 2
 131 -203 l 1
 131 -181 l 1
EndSplineSet
EndChar

StartChar: ogonek
Encoding: 731 731 20
Width: 333
Flags: HW
TeX: 0 194
HStem: -198 44<116.957 197.121>
VStem: 39 73<-148.078 -77.6815>
LayerCount: 2
Fore
SplineSet
39 -128 m 0
 39 -52 155 -34 211 18 c 1
 221 0 l 1
 183 -36 112 -76 112 -118 c 0
 112 -138 134 -154 158 -154 c 0
 189 -154 214 -134 234 -102 c 1
 253 -114 l 1
 224 -166 178 -198 129 -198 c 0
 69 -198 39 -156 39 -128 c 0
EndSplineSet
EndChar

StartChar: guilsinglleft
Encoding: 8249 8249 22
Width: 500
Flags: HW
TeX: 483 0
VStem: 331 27<3.19226 41.732 441.511 479.808>
LayerCount: 2
Fore
SplineSet
140 241 m 0
 140 259 250 305 331 463 c 0
 332 466 339 481 349 481 c 0
 354 481 358 477 358 471 c 0
 358 462 319 347 212 241 c 1
 308 149 358 26 358 12 c 0
 358 6 354 2 349 2 c 0
 339 2 332 17 331 20 c 0
 249 180 140 222 140 241 c 0
EndSplineSet
EndChar

StartChar: guilsinglright
Encoding: 8250 8250 23
Width: 500
Flags: HW
TeX: 483 0
VStem: 140 27<2.65039 41.6169 441.396 480.35>
LayerCount: 2
Fore
SplineSet
140 12 m 0
 140 19 176 132 286 242 c 1
 191 333 140 457 140 471 c 0
 140 477 145 481 150 481 c 0
 160 481 166 466 167 463 c 0
 249 304 358 261 358 242 c 0
 358 224 249 179 167 20 c 0
 166 17 160 2 150 2 c 0
 145 2 140 6 140 12 c 0
EndSplineSet
EndChar

StartChar: quotedblright
Encoding: 8221 8221 25
Width: 389
Flags: HW
TeX: 688 0
HStem: 589 105<45.4618 130.529 255.66 341.529>
VStem: 132 23<517.83 608.513> 343 23<517.83 608.513>
LayerCount: 2
Fore
SplineSet
246 641 m 0
 246 670 267 694 298 694 c 0
 338 694 366 654 366 590 c 0
 366 478 289 396 273 396 c 0
 264 396 260 406 268 416 c 0
 275 424 343 485 343 588 c 0
 343 595 343 603 342 610 c 1
 332 598 319 589 299 589 c 0
 269 589 246 611 246 641 c 0
EndSplineSet
Refer: 46 8217 S 1 0 0 1 -78 0 2
EndChar

StartChar: endash
Encoding: 8211 8211 29
Width: 555
Flags: HW
TeX: 430 0
ItalicCorrection: 27
HStem: 255 22<27 526>
LayerCount: 2
Fore
SplineSet
27 255 m 1
 27 277 l 1
 526 277 l 1
 526 255 l 1
 27 255 l 1
EndSplineSet
EndChar

StartChar: emdash
Encoding: 8212 8212 30
Width: 1111
Flags: HW
TeX: 430 0
ItalicCorrection: 27
HStem: 255 22<55 1054>
LayerCount: 2
Fore
SplineSet
55 255 m 1
 55 277 l 1
 1054 277 l 1
 1054 255 l 1
 55 255 l 1
EndSplineSet
Substitution2: "Cyrillic substitutions subtable" emdash.cyr
AlternateSubs2: "Cyrillic alternatives subtable" emdash.cyr
EndChar

StartChar: dotlessi
Encoding: 305 305 32
Width: 333
Flags: HW
TeX: 430 0
ItalicCorrection: 40
HStem: -11 23<199.584 253.642> 419 23<79.593 131.73>
VStem: 15 27<278.017 372.17> 117 68<30.7919 257.439> 147 69<168.009 398.589> 290 27<58.2427 151.982>
AnchorPoint: "below" 166 0 basechar 0
AnchorPoint: "above" 166 442 basechar 0
LayerCount: 2
Fore
SplineSet
15 296 m 0
 15 344 34 442 112 442 c 0
 170 442 216 391 216 336 c 0xec
 216 312 185 112 185 77 c 0
 185 47 193 12 224 12 c 0
 237 12 280 19 290 108 c 0
 293 135 288 152 304 152 c 0
 311 152 317 146 317 135 c 0
 317 86 298 -11 221 -11 c 0
 162 -11 117 39 117 95 c 0xf4
 117 119 147 318 147 353 c 0xec
 147 408 124 419 109 419 c 0
 96 419 52 411 42 322 c 0
 40 302 44 278 28 278 c 0
 22 278 15 283 15 296 c 0
EndSplineSet
EndChar

StartChar: dotlessj
Encoding: 567 567 33
Width: 361
Flags: HW
TeX: 430 194
HStem: -206 23<61.2684 143.84> 419 23<100.274 163.306>
VStem: 0 92<-167.242 -89.851> 18 20<282.284 320.732> 187 70<-131.344 391.018>
AnchorPoint: "below" 147 -194 basechar 0
AnchorPoint: "above" 222 442 basechar 0
LayerCount: 2
Fore
SplineSet
0 -129 m 0
 0 -99 23 -83 46 -83 c 0
 71 -83 92 -102 92 -129 c 0xe8
 92 -144 86 -163 60 -173 c 1
 75 -180 94 -183 108 -183 c 0
 140 -183 187 -162 187 -45 c 2
 187 307 l 2
 187 346 185 419 136 419 c 0
 57 419 42 290 38 284 c 0
 34 278 24 277 19 282 c 0
 14 288 17 298 18 306 c 0
 30 370 67 442 140 442 c 0xd8
 180 442 257 416 257 312 c 2
 257 -33 l 2
 257 -53 257 -73 252 -92 c 0
 238 -149 188 -206 109 -206 c 0
 49 -206 0 -175 0 -129 c 0
EndSplineSet
EndChar

StartChar: ff
Encoding: 64256 64256 34
Width: 667
Flags: HW
TeX: 688 194
ItalicCorrection: 41
HStem: -205 22<68.6172 132.078 331.675 420.442> 400 30<35 120 192 442 514 616> 683 22<223.771 331.257 515.807 586.974>
VStem: 114 68<431.687 645.738> 150 63<-140.066 177.993> 264 91<-156.898 -80.6445> 311 91<580.068 657.724> 435 66<434.07 659.744> 468 67<-119.109 216.633> 560 92<579.961 657.153>
LayerCount: 2
Fore
SplineSet
8 -121 m 0
 8 -93 29 -73 54 -73 c 0
 80 -73 100 -94 100 -119 c 0
 100 -130 96 -158 57 -165 c 1
 57 -166 l 1
 70 -174 88 -183 108 -183 c 0
 125 -183 150 -170 150 -104 c 0xecc0
 150 -16 127 293 122 400 c 1
 35 400 l 1
 35 430 l 1
 120 430 l 1
 118 469 114 508 114 547 c 0
 114 626 137 706 268 706 c 2
 269 706 l 2
 347 706 402 672 402 621 c 0
 402 595 383 573 356 573 c 0
 331 573 311 592 311 619 c 0
 311 637 321 658 348 664 c 1
 335 672 310 683 271 683 c 0
 238 683 203 670 190 647 c 0
 185 638 182 619 182 590 c 0
 182 558 188 462 190 430 c 1
 442 430 l 1
 436 518 435 531 435 556 c 0
 435 584 436 612 446 639 c 0
 455 664 484 705 541 705 c 0
 597 705 652 672 652 620 c 0
 652 590 629 573 606 573 c 0
 582 573 560 591 560 619 c 0
 560 645 577 661 601 665 c 1
 579 678 561 683 547 683 c 0
 506 683 501 648 501 634 c 0xf340
 501 631 502 628 502 628 c 1
 502 577 511 462 512 430 c 1
 616 430 l 1
 616 400 l 1
 514 400 l 1
 517 330 535 109 535 24 c 0
 535 -67 526 -126 473 -171 c 0
 449 -192 419 -206 383 -206 c 0
 319 -206 264 -171 264 -120 c 0
 264 -90 286 -74 309 -74 c 0
 330 -74 355 -88 355 -119 c 0
 355 -127 354 -156 316 -165 c 1
 334 -174 356 -183 382 -183 c 0
 433 -183 463 -133 466 -102 c 0
 468 -86 468 -69 468 -52 c 0
 468 43 444 400 444 400 c 1
 192 400 l 1
 192 400 213 88 213 9 c 0xecc0
 213 -176 151 -205 109 -205 c 0
 53 -205 8 -166 8 -121 c 0
EndSplineSet
Ligature2: "Latin ligatures subtable" f f
EndChar

StartChar: fi
Encoding: 64257 64257 35
Width: 611
Flags: HW
TeX: 688 194
ItalicCorrection: 40
HStem: -205 22<67.7055 132.078> -11 23<502.434 550.748> 400 30<35 120 192 409> 683 23<230.125 393.175>
VStem: 114 69<432.161 638.028> 150 63<-139.195 179.02> 387 92<569.851 645.88> 409 70<39.1016 400> 573 22<49.2401 146.764>
DStem2: 190 430 120 430 0.0625638 -0.998041<-110.562 -4.37946 30.0664 261.314>
LayerCount: 2
Fore
SplineSet
8 -121 m 0
 8 -91 31 -73 54 -73 c 0
 80 -73 100 -94 100 -119 c 0
 100 -130 96 -158 57 -165 c 1
 57 -166 l 1
 70 -174 88 -183 108 -183 c 0
 125 -183 150 -171 150 -104 c 0xf580
 150 -64 146 16 141 95 c 2
 122 400 l 1
 35 400 l 1
 35 430 l 1
 120 430 l 1
 116 494 114 516 114 537 c 0
 114 674 188 706 304 706 c 0
 451 706 479 649 479 611 c 0
 479 583 460 563 432 563 c 0
 408 563 387 582 387 609 c 0
 387 649 426 654 430 655 c 1
 409 667 380 683 305 683 c 0
 188 683 183 636 183 570 c 0xfa80
 183 542 188 458 190 430 c 1
 454 430 l 2
 477 430 479 423 479 410 c 2
 479 117 l 2
 479 27 508 12 527 12 c 0
 582 12 563 135 573 148 c 0
 578 154 588 153 592 147 c 0
 596 142 595 135 595 129 c 0
 595 61 590 -11 524 -11 c 0
 497 -11 409 6 409 120 c 2
 409 400 l 1
 192 400 l 1
 207 153 213 65 213 9 c 0xf580
 213 -176 151 -205 109 -205 c 0
 54 -205 8 -167 8 -121 c 0
EndSplineSet
Ligature2: "Latin ligatures excepting Turkic subtable" f i
EndChar

StartChar: fl
Encoding: 64258 64258 36
Width: 639
Flags: HW
TeX: 688 194
ItalicCorrection: 40
HStem: -205 22<68.6172 132.078> -11 23<530.004 577.267> 400 30<35 120 192 436> 674 20G<451 493.5> 683 23<223.978 362.546>
VStem: 114 68<431.711 642.643> 150 63<-140.066 177.547> 436 70<41.3971 400 430 614 625 693.971> 598 25<36.875 149.81>
LayerCount: 2
Fore
SplineSet
8 -121 m 0
 8 -93 29 -74 54 -74 c 0
 80 -74 100 -94 100 -119 c 0
 100 -130 96 -158 57 -165 c 1
 57 -166 l 1
 70 -174 88 -183 108 -183 c 0
 125 -183 150 -170 150 -104 c 0xf380
 150 -8 126 308 122 400 c 1
 35 400 l 1
 35 430 l 1
 120 430 l 1
 117 487 114 522 114 545 c 0
 114 673 185 705 285 706 c 1
 286 706 l 2xed80
 398 706 429 665 436 625 c 1
 436 669 l 2
 436 693 441 694 461 694 c 0xf580
 468 694 475 694 482 694 c 0
 505 694 506 687 506 672 c 2
 506 118 l 1
 505 29 535 12 554 12 c 0
 601 12 598 104 598 130 c 0
 598 138 597 146 603 150 c 0
 605 152 608 152 610 152 c 0
 617 152 623 145 623 132 c 0
 623 69 620 -11 553 -11 c 0
 528 -11 436 3 436 122 c 2
 436 400 l 1
 192 400 l 1
 204 222 213 65 213 9 c 0
 213 -176 151 -205 109 -205 c 0
 53 -205 8 -166 8 -121 c 0
182 577 m 0
 182 548 189 445 190 430 c 1
 436 430 l 1
 436 614 l 1
 430 583 408 574 390 574 c 0
 362 574 345 595 345 619 c 0
 345 637 353 656 381 664 c 1
 381 665 l 1
 373 669 343 683 287 683 c 2xed80
 285 683 l 2
 271 683 209 682 190 643 c 0
 185 632 182 610 182 577 c 0
EndSplineSet
Ligature2: "Latin ligatures subtable" f l
EndChar

StartChar: ffi
Encoding: 64259 64259 37
Width: 958
Flags: HW
TeX: 688 194
ItalicCorrection: 40
HStem: -205 22<68.1222 132.078 333.615 428.18> -11 23<850.004 897.613> 400 30<35 120 192 453 525 756> 683 23<224.267 359.517 565.241 738.978>
VStem: 8 49<-172 -157.789> 114 68<431.643 643.007> 150 63<-140.066 177.806> 264 91<-156.898 -80.6028> 338 92<579.986 656.81> 448 68<431.813 634.906> 479 67<-118.372 214.59> 734 92<569.897 647.091> 756 70<40.6438 400> 921 21<52.6553 146.812>
LayerCount: 2
Fore
SplineSet
8 -121 m 0
 8 -93 29 -73 54 -73 c 0
 80 -73 100 -94 100 -119 c 0
 100 -130 96 -158 57 -165 c 1
 57 -166 l 1
 70 -174 88 -183 108 -183 c 0
 125 -183 150 -170 150 -104 c 0xfb2c
 150 -16 127 293 122 400 c 1
 35 400 l 1
 35 430 l 1
 120 430 l 1
 118 469 114 519 114 547 c 0
 114 636 147 705 281 706 c 0
 403 706 430 654 430 620 c 0
 430 592 409 573 384 573 c 0
 356 573 338 595 338 619 c 0
 338 637 347 656 375 665 c 1
 367 669 340 683 285 683 c 0
 220 683 197 657 190 643 c 0
 185 632 182 611 182 579 c 0
 182 549 188 460 190 430 c 1
 453 430 l 1
 451 461 448 514 448 535 c 0
 448 687 542 706 644 706 c 0
 801 706 826 648 826 610 c 0
 826 582 805 563 780 563 c 0
 756 563 734 582 734 609 c 0
 734 635 753 652 777 655 c 1
 755 668 723 683 644 683 c 0
 525 683 516 639 516 568 c 0xfcd4
 516 522 521 476 523 430 c 1
 801 430 l 2
 824 430 826 423 826 410 c 2
 826 116 l 2
 826 28 855 12 874 12 c 0
 930 12 911 135 921 148 c 0
 926 154 935 153 939 147 c 0
 942 143 942 138 942 133 c 0
 942 67 940 -11 872 -11 c 0
 843 -11 756 9 756 120 c 2
 756 400 l 1
 525 400 l 1
 529 313 546 114 546 24 c 0
 546 -105 517 -139 491 -164 c 0
 469 -185 435 -206 389 -206 c 0
 320 -206 264 -171 264 -120 c 0
 264 -92 285 -74 310 -74 c 0
 334 -74 355 -91 355 -119 c 0
 355 -136 348 -157 317 -165 c 1
 339 -176 360 -183 388 -183 c 0
 441 -183 474 -132 477 -103 c 0
 479 -86 479 -69 479 -51 c 0
 479 45 456 382 455 400 c 1
 192 400 l 1
 192 400 213 87 213 9 c 0xfb2c
 213 -176 151 -205 109 -205 c 0
 61 -205 8 -172 8 -121 c 0
EndSplineSet
Ligature2: "Latin ligatures excepting Turkic subtable" ff i
Ligature2: "Latin ligatures excepting Turkic subtable" f f i
EndChar

StartChar: ffl
Encoding: 64260 64260 38
Width: 972
Flags: HW
TeX: 688 194
ItalicCorrection: 40
HStem: -205 22<67.9035 131.292 333.357 427.998> -11 23<863.015 910.835> 400 30<35 120 192 453 525 770> 614 11<768.574 770> 674 20G<784 827.5> 683 23<219.104 332.42 557.482 696.98>
VStem: 114 68<431.687 645.571> 150 63<-140.066 177.806> 264 91<-157.906 -80.6028> 311 91<580.068 657.724> 447 69<432.551 643.497> 479 67<-117.498 217.441> 770 70<39.4024 400 430 614 625 693.971> 931 25<36.875 149.855>
LayerCount: 2
Fore
SplineSet
8 -121 m 0
 8 -93 29 -73 54 -73 c 0
 80 -73 100 -94 100 -119 c 0
 100 -130 96 -158 57 -165 c 1
 57 -166 l 1
 70 -174 88 -183 108 -183 c 0
 125 -183 150 -170 150 -104 c 0xf99c
 150 -16 127 293 122 400 c 1
 35 400 l 1
 35 430 l 1
 120 430 l 1
 118 469 114 508 114 547 c 0
 114 627 138 705 268 706 c 0
 348 706 402 672 402 621 c 0
 402 595 383 573 356 573 c 0
 331 573 311 592 311 619 c 0
 311 637 321 658 348 664 c 1
 335 672 310 683 271 683 c 0
 238 683 203 670 190 647 c 0
 185 638 182 619 182 590 c 0
 182 558 187 462 190 430 c 1
 453 430 l 1
 451 453 447 524 447 547 c 0
 447 674 520 706 621 706 c 0xf66c
 683 706 761 691 769 625 c 1
 770 625 l 1
 770 669 l 2
 770 693 774 694 794 694 c 2xfa6c
 816 694 l 2
 839 694 840 687 840 672 c 2
 840 118 l 2
 840 41 861 12 888 12 c 0
 927 12 930 73 931 130 c 0
 931 138 931 147 937 150 c 0
 939 152 942 152 944 152 c 0
 951 152 956 145 956 132 c 0
 956 69 953 -11 886 -11 c 0
 859 -11 770 4 770 122 c 2
 770 400 l 1
 525 400 l 1
 529 313 546 113 546 23 c 0
 546 -106 515 -141 491 -164 c 0
 469 -185 435 -206 389 -206 c 0
 331 -206 264 -178 264 -120 c 0
 264 -92 285 -74 310 -74 c 0
 334 -74 355 -91 355 -119 c 0
 355 -136 348 -157 317 -165 c 1
 339 -176 360 -183 388 -183 c 0
 441 -183 472 -133 476 -104 c 0
 478 -87 479 -69 479 -51 c 0
 479 45 455 400 455 400 c 1
 192 400 l 1
 192 400 213 87 213 9 c 0
 213 -176 151 -205 110 -205 c 0
 54 -205 8 -166 8 -121 c 0
516 574 m 0
 516 545 518 516 523 430 c 1
 770 430 l 1
 770 614 l 1
 769 614 l 1
 763 583 742 574 724 574 c 0
 696 574 678 595 678 619 c 0
 678 637 687 656 715 664 c 1
 715 665 l 1
 689 676 666 683 621 683 c 0xf42c
 581 683 537 673 523 642 c 0
 518 630 516 614 516 574 c 0
EndSplineSet
Ligature2: "Latin ligatures subtable" ff l
Ligature2: "Latin ligatures subtable" f f l
EndChar

StartChar: uni2423
Encoding: 9251 9251 39
Width: 555
Flags: HW
TeX: 430 97
HStem: -97 70<131.25 422>
LayerCount: 2
Fore
SplineSet
69 70 m 1
 94 70 l 1
 119 -3 131 -27 206 -27 c 2
 343 -27 l 2
 424 -27 434 -4 459 70 c 1
 485 70 l 1
 429 -97 l 1
 125 -97 l 1
 69 70 l 1
EndSplineSet
EndChar

StartChar: exclam
Encoding: 33 33 40
Width: 333
Flags: HW
TeX: 688 0
HStem: 0 106<125.079 208.779> 696 20G<152 179>
VStem: 113 106<573.667 705.997> 114 106<11.1969 94.8031> 152 28<188.011 291.053>
LayerCount: 2
Fore
SplineSet
113 665 m 0
 113 696 138 716 166 716 c 0xe0
 192 716 219 697 219 665 c 0xe0
 219 661 218 657 218 653 c 2
 180 211 l 2
 180 203 178 188 166 188 c 0
 154 188 153 201 152 210 c 2xc8
 114 650 l 2xd0
 114 655 113 660 113 665 c 0
EndSplineSet
Refer: 53 46 S 1 0 0 1 1 0 2
EndChar

StartChar: quotedbl
Encoding: 34 34 41
Width: 555
Flags: HW
TeX: 688 0
HStem: 690 20G<184.5 204.5 348.5 374>
VStem: 147 92<466.568 703.672> 314 92<463.033 703.672>
LayerCount: 2
Fore
SplineSet
147 664 m 0
 147 701 176 710 193 710 c 0
 216 710 239 695 239 665 c 0
 239 657 204 347 204 347 c 1
 181 347 l 1
 177 390 147 653 147 664 c 0
314 665 m 0
 314 695 337 710 360 710 c 0
 388 710 406 692 406 664 c 0
 406 652 376 390 372 347 c 1
 349 347 l 1
 348 348 314 658 314 665 c 0
EndSplineSet
EndChar

StartChar: numbersign
Encoding: 35 35 42
Width: 889
Flags: HW
TeX: 688 194
HStem: 142 22<85.0109 283 313 521 551 801.991> 336 22<85.0087 336 366 575 605 801.99> 672 20G<437.5 446.5 676.5 685.5>
DStem2: 213 -112 224 -156 0.26629 0.963893<-69.4303 263.469 292.663 464.578 493.772 826.671> 452 -112 463 -156 0.264923 0.96427<-69.4324 263.204 292.366 464.578 493.74 826.377>
LayerCount: 2
Fore
SplineSet
85 153 m 0
 85 164 100 164 111 164 c 2
 289 164 l 1
 290 165 l 1
 336 336 l 1
 108 336 l 2
 97 336 85 337 85 347 c 0
 85 357 97 358 108 358 c 2
 343 358 l 1
 343 359 l 1
 346 372 350 384 353 397 c 2
 424 656 l 2
 429 673 432 692 443 692 c 0
 450 692 453 688 453 680 c 0
 453 666 444 642 436 612 c 2
 366 358 l 1
 581 358 l 1
 582 359 l 1
 585 372 589 384 592 397 c 2
 663 656 l 2
 668 673 671 692 682 692 c 0
 689 692 691 688 691 680 c 0
 691 666 682 642 674 612 c 2
 605 358 l 1
 777 358 l 2
 788 358 802 358 802 347 c 0
 802 336 788 336 776 336 c 2
 598 336 l 1
 598 335 l 1
 551 164 l 1
 779 164 l 2
 790 164 802 163 802 153 c 0
 802 143 790 142 779 142 c 2
 545 142 l 1
 544 141 l 1
 541 128 538 115 534 102 c 2
 463 -156 l 2
 458 -173 455 -192 444 -192 c 0
 437 -192 435 -188 435 -180 c 0
 435 -166 444 -142 452 -112 c 2
 521 142 l 1
 306 142 l 1
 306 141 l 1
 303 128 298 116 295 103 c 2
 224 -156 l 2
 219 -173 216 -192 205 -192 c 0
 198 -192 196 -188 196 -180 c 0
 196 -166 205 -142 213 -112 c 2
 283 142 l 1
 110 142 l 2
 99 142 85 142 85 153 c 0
313 164 m 1
 528 164 l 1
 528 165 l 1
 575 336 l 1
 360 336 l 1
 359 335 l 1
 313 164 l 1
EndSplineSet
EndChar

StartChar: dollar
Encoding: 36 36 43
Width: 555
Flags: HW
TeX: 749 55
HStem: -11 31<199.198 262 293 340.72> 137 91<113.281 168.645> 480 91<386.225 439.766> 674 31<212.496 262 293 360.129>
VStem: 83 92<143.253 221.092> 83 52<472.874 600.906> 262 31<-56 -9.65182 20 311 411 674 704.19 750> 379 92<487.094 564.985> 419 52<101.463 242.472>
LayerCount: 2
Fore
SplineSet
83 177 m 0
 83 212 106 228 129 228 c 0
 152 228 175 212 175 183 c 0xfa80
 175 157 158 137 129 137 c 0
 124 137 119 138 113 139 c 1
 130 76 167 29 262 20 c 1
 262 319 l 1
 241 324 219 329 199 338 c 0
 143 362 83 423 83 513 c 0
 83 591 134 689 262 705 c 1
 262 750 l 1
 293 750 l 1
 293 705 l 1
 444 695 471 584 471 530 c 0
 471 489 441 480 425 480 c 0
 399 480 379 501 379 526 c 0xf7
 379 553 397 571 426 571 c 0
 430 571 435 571 440 570 c 1
 418 651 347 669 293 674 c 1
 293 403 l 1
 323 396 404 382 449 291 c 0
 464 261 471 228 471 195 c 0
 471 94 401 0 293 -10 c 1
 293 -56 l 1
 262 -56 l 1
 262 -11 l 1
 109 0 83 121 83 177 c 0
135 543 m 0xf6
 135 479 181 439 220 423 c 0
 233 418 248 414 262 411 c 1
 262 674 l 1
 189 665 135 611 135 543 c 0xf6
293 20 m 1
 371 30 419 95 419 165 c 0xf280
 419 234 376 281 333 299 c 0
 320 305 306 307 293 311 c 1
 293 20 l 1
EndSplineSet
EndChar

StartChar: percent
Encoding: 37 37 44
Width: 889
Flags: HW
TeX: 749 55
HStem: -55 22<641.899 707.332> 324 23<643.227 708.764> 347 23<197.833 264.597> 618 22<414.996 563.466> 727 23<199.695 265.577>
VStem: 83 63<445.549 650.683> 335 25<466.214 633.266> 527 63<43.7331 251.377> 779 25<61.5439 229.81>
DStem2: 194 12 210 -37 0.558148 0.829741<-53.7165 773.814 788.016 888.99>
LayerCount: 2
Fore
SplineSet
83 548 m 0
 83 674 161 750 230 750 c 0
 307 750 334 640 491 640 c 0
 617 640 672 727 685 740 c 0
 691 746 696 748 702 748 c 0
 712 748 720 741 720 730 c 0
 720 721 716 715 695 684 c 2
 210 -37 l 2
 204 -45 197 -54 186 -54 c 0
 175 -54 167 -45 167 -35 c 0
 167 -26 173 -19 194 12 c 2
 626 654 l 1
 590 634 545 618 491 618 c 0
 438 618 385 633 339 661 c 1
 353 624 360 593 360 548 c 0
 360 440 307 347 230 347 c 0
 162 347 83 422 83 548 c 0
146 541 m 2
 146 404 197 370 231 370 c 0
 273 370 335 429 335 548 c 0
 335 672 272 727 232 727 c 0
 198 727 146 693 146 549 c 2
 146 541 l 2
527 146 m 0
 527 269 602 347 674 347 c 0
 752 347 804 251 804 145 c 0
 804 39 750 -55 674 -55 c 0
 596 -55 527 30 527 146 c 0
590 138 m 2
 590 1 641 -33 675 -33 c 0
 717 -33 779 26 779 145 c 0
 779 269 716 324 676 324 c 0
 642 324 590 291 590 147 c 2
 590 138 l 2
EndSplineSet
EndChar

StartChar: ampersand
Encoding: 38 38 45
Width: 833
Flags: HW
TeX: 688 0
HStem: -22 22<335.953 515.949> 242 46<473.647 491.906> 309 23<234.88 312.811> 438 23<238.763 313.119> 517 91<330.603 382.812> 611 83<615.109 663.847> 694 22<231.386 316.759>
VStem: 83 84<136.582 330.491> 97 70<426.99 611.956> 324 92<523.805 600.541> 335 25<352.219 418.516> 444 25<289.758 374.183> 610 83<615.921 689.148> 696 25<159.65 310.844>
LayerCount: 2
Fore
SplineSet
83 223 m 0xff3c
 83 297 110 349 136 386 c 1
 110 423 97 468 97 513 c 0
 97 631 179 716 268 716 c 0
 363 716 416 632 416 565 c 0
 416 534 394 517 370 517 c 0
 344 517 324 536 324 562 c 0
 324 587 342 608 370 608 c 0
 374 608 379 608 383 607 c 1
 359 675 304 694 271 694 c 0
 235 694 211 671 197 650 c 0
 182 628 167 595 167 512 c 0xfedc
 167 483 169 454 176 426 c 1
 201 444 236 461 275 461 c 0
 330 461 360 421 360 385 c 0
 360 352 333 309 275 309 c 0
 235 309 205 324 179 341 c 1
 170 308 167 281 167 228 c 0xff3c
 167 53 309 0 419 0 c 0
 652 0 696 149 696 239 c 0
 696 341 633 397 581 452 c 1
 580 452 l 1
 531 418 469 392 469 335 c 0
 469 316 475 302 482 288 c 1
 483 288 l 1
 490 323 516 325 524 325 c 0
 548 325 566 306 566 283 c 0
 566 260 548 242 523 242 c 0
 478 242 444 287 444 335 c 0
 444 412 527 443 580 482 c 0
 632 521 652 564 664 612 c 1
 660 611 656 611 652 611 c 0
 629 611 610 627 610 652 c 0
 610 677 629 694 651 694 c 0
 668 694 693 685 693 647 c 0
 693 628 688 536 602 467 c 1
 680 390 721 331 721 240 c 0
 721 122 655 -22 418 -22 c 0
 230 -22 83 84 83 223 c 0xff3c
199 381 m 0
 199 369 233 332 276 332 c 0
 307 332 335 352 335 385 c 0
 335 416 309 438 277 438 c 0xfe3c
 233 438 199 394 199 381 c 0
EndSplineSet
EndChar

StartChar: quoteright
Encoding: 8217 8217 46
Width: 333
Flags: HW
TeX: 688 0
HStem: 589 105<123.462 208.529>
VStem: 210 23<517.83 608.513>
LayerCount: 2
Fore
SplineSet
113 641 m 0
 113 668 134 694 166 694 c 0
 206 694 233 654 233 590 c 0
 233 478 156 396 140 396 c 0
 131 396 127 406 135 416 c 0
 142 424 210 485 210 588 c 0
 210 595 210 603 209 610 c 1
 199 598 186 589 166 589 c 0
 134 589 113 612 113 641 c 0
EndSplineSet
EndChar

StartChar: parenleft
Encoding: 40 40 47
Width: 444
Flags: HW
TeX: 749 249
VStem: 127 59<65.9487 426.863>
LayerCount: 2
Fore
SplineSet
127 250 m 0
 127 597 332 748 348 748 c 0
 353 748 358 745 358 740 c 0
 358 718 186 618 186 248 c 0
 186 -91 340 -211 354 -231 c 0
 359 -238 358 -248 348 -248 c 0
 330 -248 127 -92 127 250 c 0
EndSplineSet
EndChar

StartChar: parenright
Encoding: 41 41 48
Width: 444
Flags: HW
TeX: 749 249
VStem: 257 59<69.875 434.592>
LayerCount: 2
Fore
SplineSet
85 -240 m 0
 85 -218 257 -118 257 253 c 0
 257 619 86 717 86 740 c 0
 86 745 90 748 95 748 c 0
 112 748 316 595 316 251 c 0
 316 -43 176 -188 113 -239 c 0
 110 -241 102 -248 95 -248 c 0
 90 -248 85 -245 85 -240 c 0
EndSplineSet
EndChar

StartChar: asterisk
Encoding: 42 42 49
Width: 555
Flags: HW
TeX: 749 0
VStem: 250 54<320.588 509.895 559.105 748.412>
LayerCount: 2
Fore
SplineSet
94 442 m 0
 94 463 98 461 254 535 c 1
 94 611 94 607 94 628 c 0
 94 642 107 655 121 655 c 0
 132 655 131 655 265 556 c 1
 260 619 250 706 250 720 c 0
 250 743 268 749 277 749 c 0
 286 749 304 743 304 720 c 0
 304 704 295 622 290 556 c 1
 424 655 421 655 434 655 c 0
 448 655 461 642 461 628 c 0
 461 607 457 609 301 535 c 1
 461 459 461 463 461 442 c 0
 461 428 448 414 434 414 c 0
 423 414 427 412 290 513 c 1
 295 450 304 363 304 349 c 0
 304 326 286 320 277 320 c 0
 268 320 250 326 250 349 c 0
 250 365 260 447 265 513 c 1
 129 413 132 414 121 414 c 0
 107 414 94 428 94 442 c 0
EndSplineSet
EndChar

StartChar: plus
Encoding: 43 43 50
Width: 833
Flags: HW
TeX: 583 83
HStem: 239 22<85.0073 405 427 746.991>
VStem: 405 22<-80.992 239 261 580.992>
LayerCount: 2
Fore
SplineSet
85 250 m 0
 85 260 95 261 108 261 c 2
 405 261 l 1
 405 558 l 2
 405 571 406 581 416 581 c 0
 426 581 428 570 428 558 c 0
 428 553 427 548 427 543 c 2
 427 261 l 1
 709 261 l 2
 712 261 717 262 723 262 c 0
 734 262 747 260 747 250 c 0
 747 240 734 238 723 238 c 0
 717 238 712 239 709 239 c 2
 427 239 l 1
 427 -43 l 2
 427 -48 428 -53 428 -58 c 0
 428 -70 426 -81 416 -81 c 0
 406 -81 405 -71 405 -58 c 2
 405 239 l 1
 108 239 l 2
 95 239 85 240 85 250 c 0
EndSplineSet
EndChar

StartChar: comma
Encoding: 44 44 51
Width: 333
Flags: HW
TeX: 105 194
HStem: 0 106<123.315 206.139>
VStem: 207 23<-70.3124 16.652>
LayerCount: 2
Fore
SplineSet
113 53 m 0
 113 82 135 106 166 106 c 0
 217 106 230 45 230 2 c 0
 230 -108 158 -192 140 -192 c 0
 138 -192 130 -190 130 -183 c 0
 130 -164 207 -120 207 4 c 2
 207 18 l 1
 195 7 182 0 166 0 c 0
 136 0 113 23 113 53 c 0
EndSplineSet
EndChar

StartChar: hyphen
Encoding: 45 45 52
Width: 389
Flags: HW
TeX: 430 0
HStem: 186 59<38 304>
VStem: 38 266<186 245>
LayerCount: 2
Fore
SplineSet
38 186 m 1
 38 245 l 1
 304 245 l 1
 304 186 l 1
 38 186 l 1
EndSplineSet
EndChar

StartChar: period
Encoding: 46 46 53
Width: 333
Flags: HW
TeX: 105 0
HStem: 0 106<124.079 207.779>
VStem: 113 106<11.1969 94.8031>
LayerCount: 2
Fore
SplineSet
113 53 m 0
 113 80 136 106 166 106 c 0
 198 106 219 79 219 53 c 0
 219 26 196 0 166 0 c 0
 135 0 113 26 113 53 c 0
EndSplineSet
EndChar

StartChar: slash
Encoding: 47 47 54
Width: 555
Flags: HW
TeX: 749 249
DStem2: 89 -220 113 -220 0.350579 0.936533<-17.1923 1029.26>
LayerCount: 2
Fore
SplineSet
85 -237 m 0
 85 -234 85 -232 89 -220 c 2
 434 702 l 2
 448 739 450 748 460 748 c 0
 466 748 469 743 469 737 c 0
 469 732 468 727 466 723 c 2
 113 -220 l 2
 104 -242 102 -248 94 -248 c 0
 88 -248 85 -243 85 -237 c 0
EndSplineSet
EndChar

StartChar: zero
Encoding: 48 48 55
Width: 555
Flags: HW
TeX: 641 0
HStem: -22 23<231.779 322.578> 643 23<232.156 324.808>
VStem: 69 84<135.811 505.993> 402 84<135.442 508.225>
LayerCount: 2
Fore
SplineSet
69 316 m 0
 69 407 71 602 214 655 c 0
 232 662 252 666 277 666 c 0
 329 666 380 644 414 605 c 0
 483 527 486 392 486 322 c 0
 486 231 483 42 341 -11 c 0
 317 -20 296 -22 277 -22 c 0
 226 -22 176 -1 142 37 c 0
 73 113 69 247 69 316 c 0
153 294 m 2
 153 222 154 116 181 65 c 0
 203 22 240 1 277 1 c 0
 314 1 351 22 373 64 c 0
 401 117 402 224 402 338 c 0
 402 490 394 553 369 591 c 0
 346 626 312 643 278 643 c 0
 240 643 202 621 180 580 c 0
 159 540 153 472 153 338 c 2
 153 294 l 2
EndSplineSet
Substitution2: "LGC old numerals subtable" zerooldstyle
EndChar

StartChar: one
Encoding: 49 49 56
Width: 555
Flags: HW
TeX: 641 0
HStem: 0 31<123 239.269 331.534 447> 507 31<117 185.195> 647 20G<285.5 310.5>
VStem: 247 76<38.0788 562> 300 23<647.384 663.715>
LayerCount: 2
Fore
SplineSet
117 507 m 1
 117 538 l 1
 212 539 271 608 300 667 c 1
 321 667 323 659 323 639 c 2xe8
 323 79 l 2
 323 36 337 31 432 31 c 2
 447 31 l 1
 447 0 l 1
 390 2 335 3 278 3 c 0
 216 3 169 1 123 0 c 1
 123 31 l 1
 136 31 l 2
 226 31 248 33 248 77 c 0
 248 81 247 85 247 89 c 2
 247 562 l 1xf0
 207 527 169 508 117 507 c 1
EndSplineSet
Substitution2: "LGC old numerals subtable" oneoldstyle
EndChar

StartChar: two
Encoding: 50 50 57
Width: 555
Flags: HW
TeX: 641 0
HStem: -22 74<308.084 444.917> 56 22<141.323 216.7> 336 23<114.77 168.671> 644 22<198.325 295.197>
VStem: 70 25<379.571 513.053> 209 23<408.133 511.611> 386 84<370.293 537.059> 485 26<111.19 172.918>
LayerCount: 2
Fore
SplineSet
70 434 m 0
 70 533 125 666 251 666 c 0
 371 666 470 563 470 443 c 0
 470 320 304 249 236 200 c 0
 192 168 157 126 137 71 c 1
 149 76 157 78 170 78 c 0
 239 78 318 52 382 52 c 0
 450 52 479 107 485 151 c 1
 486 166 493 173 499 173 c 0
 505 173 511 166 511 154 c 0
 511 101 486 -22 387 -22 c 0
 310 -22 231 56 173 56 c 0
 168 56 163 55 158 54 c 0
 113 42 134 -21 110 -21 c 0
 102 -21 98 -16 98 -1 c 0
 98 8 99 21 102 37 c 0
 128 176 245 235 262 247 c 0
 342 302 386 365 386 444 c 0
 386 612 296 644 248 644 c 0
 145 644 95 524 95 435 c 0
 95 374 122 359 140 359 c 0
 166 359 209 390 209 470 c 0
 209 510 185 522 185 536 c 0
 185 540 188 546 194 546 c 0
 210 546 232 506 232 470 c 0
 232 399 195 336 139 336 c 0
 101 336 70 369 70 434 c 0
EndSplineSet
Substitution2: "LGC old numerals subtable" twooldstyle
EndChar

StartChar: three
Encoding: 51 51 58
Width: 555
Flags: HW
TeX: 641 0
HStem: -22 23<188.267 304.942> 98 91<102.234 154.397> 320 30<214.238 323.251> 412 23<130.757 189.921> 644 22<213.36 326.632>
VStem: 69 92<106.677 182.145> 83 25<458.227 554.607> 209 23<453.256 514.36> 387 84<82.4176 242.974> 401 70<415.801 571.698>
LayerCount: 2
Fore
SplineSet
69 140 m 0
 69 179 99 189 115 189 c 0
 139 189 161 172 161 144 c 0
 161 119 143 98 115 98 c 0
 111 98 107 98 102 99 c 1
 137 17 207 1 248 1 c 0
 296 1 387 23 387 163 c 0xfd80
 387 201 383 241 361 273 c 0
 329 318 285 320 266 320 c 2
 236 320 l 2
 229 320 219 319 214 326 c 0
 211 331 211 341 216 346 c 0
 221 351 232 350 240 350 c 2
 268 350 l 2
 374 350 401 426 401 495 c 0
 401 617 323 644 275 644 c 0
 190 644 108 582 108 502 c 0
 108 467 128 435 159 435 c 0
 181 435 209 453 209 481 c 0
 209 512 185 523 185 536 c 0
 185 546 196 550 206 540 c 0
 219 527 232 504 232 481 c 0
 232 437 193 412 159 412 c 0
 113 412 83 455 83 503 c 0
 83 591 167 666 277 666 c 0
 391 666 471 583 471 495 c 0xfb40
 471 431 435 366 345 330 c 1
 430 301 471 226 471 162 c 0
 471 60 371 -22 251 -22 c 0
 140 -22 69 61 69 140 c 0
EndSplineSet
Substitution2: "LGC old numerals subtable" threeoldstyle
EndChar

StartChar: four
Encoding: 52 52 59
Width: 555
Flags: HW
TeX: 641 194
HStem: -194 21G<353 366> -15 31<395 492.339> 36 31<133 261.63> 646 20G<295.5 310>
VStem: 270 69<434.795 663.681> 325 70<-191.547 -14 33 238.361>
LayerCount: 2
Fore
SplineSet
43 19 m 0
 43 48 74 32 146 139 c 0
 283 343 264 606 270 637 c 0
 273 653 287 666 304 666 c 0
 316 666 339 661 339 623 c 0xf8
 339 441 282 228 133 66 c 1
 145 66 157 67 169 67 c 0
 231 67 261 52 325 33 c 1
 325 198 l 2
 325 236 349 241 360 241 c 0
 371 241 395 236 395 197 c 2
 395 17 l 1
 401 16 407 16 413 16 c 0
 458 16 479 29 493 29 c 0
 504 29 510 19 510 14 c 0
 510 -4 445 -15 416 -15 c 0
 409 -15 402 -14 395 -14 c 1
 395 -151 l 2xf4
 395 -189 372 -194 360 -194 c 0
 346 -194 325 -187 325 -150 c 2
 325 1 l 1xf4
 276 14 234 36 172 36 c 0
 86 36 93 24 70 7 c 0
 66 4 62 3 59 3 c 0
 50 3 43 11 43 19 c 0
EndSplineSet
Substitution2: "LGC old numerals subtable" fouroldstyle
EndChar

StartChar: five
Encoding: 53 53 60
Width: 555
Flags: HW
TeX: 641 0
HStem: -22 28<195.939 309.232> 116 98<109.949 166.932> 398 22<228.928 319.519> 551 84<165.103 341.781> 645 20G<134.5 146.5>
VStem: 77 98<125.001 205.794> 128 31<369 565> 387 89<104.304 301.298>
LayerCount: 2
Fore
SplineSet
77 162 m 0
 77 204 110 214 127 214 c 0
 154 214 175 193 175 165 c 0xfd
 175 136 153 116 126 116 c 0
 119 116 112 117 109 118 c 1
 136 33 211 6 255 6 c 0
 323 6 357 59 368 83 c 0
 386 122 387 167 387 210 c 0
 387 272 383 333 340 374 c 0
 315 397 290 398 284 398 c 0
 235 398 190 375 160 334 c 0
 155 327 148 320 141 320 c 0
 128 320 128 335 128 347 c 2
 128 638 l 2
 128 655 129 665 140 665 c 0
 153 665 197 635 283 635 c 0
 368 635 413 665 426 665 c 0
 430 665 436 663 436 656 c 0xfb
 436 637 362 551 245 551 c 0
 215 551 186 557 159 565 c 1
 159 369 l 1xfb
 188 396 225 420 286 420 c 0
 402 420 476 310 476 201 c 0
 476 68 369 -22 258 -22 c 0
 146 -22 77 75 77 162 c 0
EndSplineSet
Substitution2: "LGC old numerals subtable" fiveoldstyle
EndChar

StartChar: six
Encoding: 54 54 61
Width: 555
Flags: HW
TeX: 641 0
HStem: -22 28<232.364 333.207> 404 22<239.274 328.194> 510 92<374.897 422> 641 25<280.681 389.658>
VStem: 69 93<144.877 454.59> 368 92<516.851 593.323> 394 91<100.203 305.825>
LayerCount: 2
Fore
SplineSet
69 318 m 0
 69 532 199 666 332 666 c 0
 427 666 460 604 460 561 c 0xfc
 460 520 432 510 413 510 c 0
 389 510 368 529 368 556 c 0xfc
 368 581 387 602 415 602 c 0
 417 602 419 601 422 601 c 1
 409 618 387 641 334 641 c 0
 284 641 241 613 209 567 c 0
 161 497 159 410 159 329 c 1
 160 329 l 1
 176 370 210 426 287 426 c 0
 342 426 384 406 424 363 c 0
 465 318 485 271 485 202 c 0xfa
 485 141 469 96 429 50 c 0
 394 10 351 -22 279 -22 c 0
 195 -22 69 36 69 318 c 0
162 225 m 0
 162 154 170 109 180 83 c 0
 190 58 220 6 279 6 c 0
 311 6 350 16 377 71 c 0
 395 108 394 153 394 203 c 2
 394 224 l 2
 394 259 393 302 379 335 c 0
 367 362 340 404 283 404 c 0xfa
 210 404 162 331 162 225 c 0
EndSplineSet
Substitution2: "LGC old numerals subtable" sixoldstyle
EndChar

StartChar: seven
Encoding: 55 55 62
Width: 555
Flags: HW
TeX: 641 0
HStem: -22 21G<326 339> 526 23<337.122 399.643> 592 73<170.723 289.251>
VStem: 44 28<421.316 476.352> 288 94<-13 219.254>
LayerCount: 2
Fore
SplineSet
44 434 m 0
 44 445 96 650 96 650 c 2
 98 657 101 665 110 665 c 0
 118 665 121 661 121 654 c 0
 121 640 111 614 106 582 c 1
 156 656 218 666 246 666 c 0
 326 666 303 549 363 549 c 0
 429 549 465 650 476 661 c 0
 479 663 481 665 485 665 c 0
 491 665 496 662 496 655 c 0
 496 635 404 501 382 177 c 0
 372 24 387 13 365 -9 c 0
 356 -18 345 -22 333 -22 c 0
 319 -22 288 -15 288 29 c 0
 288 236 375 440 420 545 c 1
 405 536 386 526 363 526 c 0
 307 526 293 592 246 592 c 0
 177 592 102 537 72 443 c 0
 67 426 61 421 56 421 c 0
 50 421 44 429 44 434 c 0
EndSplineSet
Substitution2: "LGC old numerals subtable" sevenoldstyle
EndChar

StartChar: eight
Encoding: 56 56 63
Width: 555
Flags: HW
TeX: 641 0
HStem: -22 28<211.326 346.183> 641 25<212.78 334.389>
VStem: 69 51<78.1906 232.186> 96 45<481.063 576.63> 412 45<449.132 584.548> 434 51<84.0906 194.112>
LayerCount: 2
Fore
SplineSet
69 151 m 0xe4
 69 262 176 317 214 335 c 1
 214 336 l 1
 178 357 96 401 96 499 c 0xd0
 96 594 179 666 278 666 c 0
 363 666 457 612 457 518 c 0xd8
 457 434 381 385 337 363 c 1
 337 362 l 1
 411 315 425 307 450 273 c 0
 468 247 485 210 485 168 c 0
 485 68 398 -22 275 -22 c 0
 177 -22 69 41 69 151 c 0xe4
120 151 m 0xe4
 120 64 196 6 279 6 c 0
 352 6 434 52 434 132 c 0
 434 206 373 233 238 320 c 1
 162 281 120 219 120 151 c 0xe4
141 537 m 0
 141 483 192 456 205 447 c 0
 284 396 303 381 315 381 c 0xd8
 325 381 412 434 412 518 c 0
 412 593 344 641 276 641 c 0
 206 641 141 599 141 537 c 0
EndSplineSet
Substitution2: "LGC old numerals subtable" eightoldstyle
EndChar

StartChar: nine
Encoding: 57 57 64
Width: 555
Flags: HW
TeX: 641 0
HStem: -22 28<163.217 287.801> 43 91<133 179.056> 218 23<224.516 315.466> 641 25<229.789 324.235>
VStem: 69 90<336.852 542.771> 94 92<50.9885 127.149> 392 93<184.719 500.203>
LayerCount: 2
Fore
SplineSet
69 443 m 0xfa
 69 513 93 567 149 617 c 0
 159 626 201 666 279 666 c 0
 361 666 485 611 485 328 c 0
 485 118 366 -22 233 -22 c 0
 148 -22 94 20 94 85 c 0
 94 124 124 134 140 134 c 0
 165 134 186 115 186 88 c 0xf6
 186 62 167 43 138 43 c 2
 133 43 l 1
 147 28 171 6 231 6 c 0
 259 6 302 13 343 70 c 0
 393 141 394 244 394 316 c 1
 375 266 337 218 266 218 c 0
 211 218 169 238 129 282 c 0
 88 327 69 374 69 443 c 0xfa
159 434 m 2
 159 364 164 338 172 317 c 0
 184 284 212 241 271 241 c 0
 344 241 392 315 392 423 c 0xfa
 392 433 392 443 392 453 c 0
 388 560 366 592 343 614 c 0
 327 629 308 641 280 641 c 0
 227 641 191 606 174 565 c 0
 160 531 159 491 159 446 c 2
 159 434 l 2
EndSplineSet
Substitution2: "LGC old numerals subtable" nineoldstyle
EndChar

StartChar: less
Encoding: 60 60 67
Width: 833
Flags: HW
TeX: 533 39
DStem2: 141 272 149 250 0.909222 0.416311<-1.88505 622.219> 149 250 141 228 0.909222 -0.416311<0 624.063>
LayerCount: 2
Fore
SplineSet
112 250 m 0
 112 259 120 262 141 272 c 2
 683 520 l 2
 691 524 701 529 708 529 c 0
 714 529 719 524 719 519 c 0
 719 508 700 502 695 500 c 2
 207 277 l 2
 188 268 168 258 149 250 c 1
 168 242 187 233 206 224 c 2
 695 0 l 2
 699 -2 719 -8 719 -19 c 0
 719 -24 714 -29 708 -29 c 0
 700 -29 691 -24 683 -20 c 2
 141 228 l 2
 120 238 112 241 112 250 c 0
EndSplineSet
EndChar

StartChar: greater
Encoding: 62 62 69
Width: 833
Flags: HW
TeX: 533 39
DStem2: 148 520 136 500 0.909222 -0.416311<-26.1342 597.929> 136 0 148 -20 0.909222 0.416311<-23.5498 600.513>
LayerCount: 2
Fore
SplineSet
112 -19 m 0
 112 -8 132 -2 136 0 c 2
 682 250 l 1
 663 258 643 267 624 276 c 2
 136 500 l 2
 132 502 112 508 112 519 c 0
 112 524 117 529 123 529 c 0
 131 529 140 524 148 520 c 2
 690 272 l 2
 711 262 719 259 719 250 c 0
 719 241 711 238 690 228 c 2
 148 -20 l 2
 140 -24 131 -29 123 -29 c 0
 117 -29 112 -24 112 -19 c 0
EndSplineSet
EndChar

StartChar: question
Encoding: 63 63 70
Width: 555
Flags: HW
TeX: 688 0
HStem: 0 106<235.079 318.779> 187 23<252.658 313.773> 431 91<112.721 168.246> 694 22<221.86 327.192>
VStem: 83 92<437.805 511.807> 194 42<220.267 306.725> 224 106<11.1969 94.8031> 347 25<242.515 290.867> 401 42<510.46 629.823>
LayerCount: 2
Fore
SplineSet
83 482 m 0
 83 586 151 716 276 716 c 0
 369 716 443 643 443 551 c 0
 443 531 439 490 408 450 c 0
 396 435 381 421 265 315 c 0
 247 299 236 286 236 262 c 0
 236 235 254 210 280 210 c 0
 303 210 339 227 347 275 c 0
 349 286 355 291 361 291 c 0
 367 291 372 285 372 274 c 0xfd80
 372 236 332 187 278 187 c 0
 235 187 194 226 194 284 c 0
 194 336 226 362 236 371 c 0
 360 485 401 509 401 574 c 0
 401 631 354 694 276 694 c 0
 179 694 124 601 112 520 c 1
 118 522 124 522 129 522 c 0
 159 522 175 499 175 476 c 0
 175 450 154 431 129 431 c 0
 112 431 83 440 83 482 c 0
EndSplineSet
Refer: 53 46 S 1 0 0 1 111 0 2
EndChar

StartChar: at
Encoding: 64 64 71
Width: 833
Flags: HW
TeX: 688 0
HStem: -11 22<340.021 527.414> 128 22<376.732 464.621 630.43 682.198> 544 23<373.589 464.802> 683 23<342.173 492.707>
VStem: 83 25<254.353 440.289> 216 70<247.885 445.463> 546 70<209.189 480.457> 723 26<211.11 441.68>
LayerCount: 2
Fore
SplineSet
83 347 m 0
 83 552 239 706 416 706 c 0
 577 706 749 573 749 340 c 0
 749 256 744 128 646 128 c 0
 613 128 560 141 546 198 c 1
 514 155 468 128 415 128 c 0
 314 128 216 217 216 347 c 0
 216 477 314 567 415 567 c 0
 471 567 523 535 556 482 c 1
 594 482 l 2
 615 482 616 475 616 459 c 2
 616 217 l 2
 616 173 629 150 652 150 c 0
 722 150 723 271 723 337 c 0
 723 556 568 683 416 683 c 0
 253 683 108 540 108 347 c 0
 108 164 243 11 420 11 c 0
 565 11 671 68 692 76 c 0
 696 77 709 79 722 79 c 0
 734 79 746 78 746 70 c 0
 746 63 739 59 723 52 c 0
 612 5 504 -11 421 -11 c 0
 218 -11 83 160 83 347 c 0
286 346 m 0
 286 236 346 150 418 150 c 0
 481 150 546 212 546 262 c 2
 546 433 l 2
 546 482 480 544 417 544 c 0
 343 544 286 456 286 346 c 0
EndSplineSet
EndChar

StartChar: A
Encoding: 65 65 72
Width: 805
Flags: HW
TeX: 688 0
HStem: -0 31<60 129.604 222.216 276 470 545.329 657.744 745> 228 31<260 486> 696 20G<394 409.5>
DStem2: 178 115 250 228 0.326041 0.945356<-22.8781 130.3 162.867 506.95> 427 692 373 584 0.32858 -0.944476<84.2601 428.344 461.238 637.435>
AnchorPoint: "ogonek" 597 0 basechar 0
AnchorPoint: "below" 402 0 basechar 0
AnchorPoint: "above" 402 705 basechar 0
LayerCount: 2
Fore
SplineSet
60 -0 m 1
 60 31 l 1
 155 33 167 84 178 115 c 2
 377 692 l 2
 381 703 386 716 402 716 c 0
 417 716 422 706 427 692 c 2
 642 74 l 2
 656 33 674 31 740 31 c 2
 745 31 l 1
 745 -0 l 1
 707 2 667 3 616 3 c 0
 567 3 519 2 470 -0 c 1
 470 31 l 1
 474 31 l 2
 491 31 552 31 552 60 c 0
 552 72 541 102 497 228 c 1
 250 228 l 1
 209 110 202 93 202 82 c 0
 202 67 213 33 276 31 c 1
 276 -0 l 1
 237 2 199 3 160 3 c 0
 120 3 90 2 60 -0 c 1
260 259 m 1
 486 259 l 1
 373 584 l 1
 260 259 l 1
EndSplineSet
EndChar

StartChar: B
Encoding: 66 66 73
Width: 764
Flags: HW
TeX: 688 0
HStem: -0 31<63 159.313 251.957 490.995> 344 23<249 457.046> 652 31<63 159.225 252.864 482.587>
VStem: 166 83<36.5918 344 367 646.521> 554 97<444.758 585.579> 579 100<105.676 257.755>
AnchorPoint: "below" 346 0 basechar 0
AnchorPoint: "above" 346 705 basechar 0
LayerCount: 2
Fore
SplineSet
63 -0 m 1
 63 31 l 1
 75 31 l 2
 150 31 166 36 166 73 c 2
 166 609 l 2
 166 649 146 652 76 652 c 2
 63 652 l 1
 63 683 l 1
 414 683 l 2
 455 683 502 680 550 656 c 0
 611 625 651 572 651 515 c 0xf8
 651 482 634 389 480 357 c 1
 590 349 679 275 679 183 c 0xf4
 679 92 597 15 491 2 c 0
 474 0 457 0 440 -0 c 2
 63 -0 l 1
249 70 m 2
 249 38 254 31 302 31 c 2
 420 31 l 2
 531 31 579 113 579 184 c 0xf4
 579 249 541 344 433 344 c 2
 249 344 l 1
 249 70 l 2
249 367 m 1
 390 367 l 2
 521 367 554 463 554 514 c 0xf8
 554 557 531 652 416 652 c 2
 300 652 l 2
 265 652 249 650 249 615 c 2
 249 367 l 1
EndSplineSet
EndChar

StartChar: C
Encoding: 67 67 74
Width: 778
Flags: HW
TeX: 688 0
HStem: -22 31<364.669 522.86> 674 31<361.728 513.754>
VStem: 83 103<221.037 465.737> 667 26<162.424 246.761 419.06 477.41>
AnchorPoint: "below" 432 0 basechar 0
AnchorPoint: "above" 431 705 basechar 0
LayerCount: 2
Fore
SplineSet
83 342 m 0
 83 551 248 705 431 705 c 0
 504 705 570 672 615 619 c 1
 665 692 671 704 681 704 c 0
 692 704 693 693 693 682 c 2
 693 440 l 2
 693 424 686 419 679 419 c 0
 672 419 665 424 663 428 c 0
 657 441 663 451 648 499 c 0
 625 572 560 674 442 674 c 0
 367 674 186 628 186 343 c 0
 186 69 352 9 444 9 c 0
 563 9 657 104 667 220 c 0
 668 230 667 242 673 247 c 0
 676 249 679 251 681 251 c 0
 688 251 693 242 693 229 c 0
 693 138 612 -22 432 -22 c 0
 249 -22 83 133 83 342 c 0
EndSplineSet
EndChar

StartChar: D
Encoding: 68 68 75
Width: 819
Flags: HW
TeX: 688 0
HStem: -0 31<62 157.55 254.06 483.739> 652 31<62 157.697 254.908 485.618>
VStem: 165 86<36.8618 646.155> 635 100<215.53 460.659>
AnchorPoint: "below" 374 0 basechar 0
AnchorPoint: "above" 374 705 basechar 0
LayerCount: 2
Fore
SplineSet
62 -0 m 1
 62 31 l 1
 74 31 l 2
 144 31 164 34 165 73 c 1
 165 609 l 2
 165 648 146 652 75 652 c 2
 62 652 l 1
 62 683 l 1
 412 683 l 2
 470 683 517 677 575 641 c 0
 676 579 735 461 735 337 c 0
 735 150 605 19 464 2 c 0
 448 0 430 0 414 -0 c 2
 62 -0 l 1
251 70 m 2
 251 34 260 31 304 31 c 2
 393 31 l 2
 423 31 523 33 586 125 c 0
 627 184 635 258 635 328 c 2
 635 342 l 2
 635 437 620 532 552 595 c 0
 501 642 446 652 391 652 c 2
 304 652 l 2
 267 652 251 650 251 615 c 2
 251 70 l 2
EndSplineSet
EndChar

StartChar: E
Encoding: 69 69 76
Width: 736
Flags: HW
TeX: 688 0
HStem: -0 31<60 156.565 254.818 540.278> 338 31<252 418.855> 650 30<60 155.697 255.762 532.733>
VStem: 163 89<36.5918 338 369 644.112> 450 25<221 302.822 403.163 485>
AnchorPoint: "ogonek" 370 0 basechar 0
AnchorPoint: "below" 370 0 basechar 0
AnchorPoint: "above" 370 705 basechar 0
LayerCount: 2
Fore
SplineSet
60 -0 m 1
 60 31 l 1
 73 31 l 2
 148 31 163 36 163 73 c 2
 163 607 l 2
 163 646 144 650 73 650 c 2
 60 650 l 1
 60 680 l 1
 623 680 l 1
 651 455 l 1
 626 455 l 1
 617 524 608 590 558 623 c 0
 520 648 464 650 404 650 c 2
 322 650 l 2
 265 650 253 650 252 614 c 1
 252 369 l 1
 332 369 l 2
 435 369 450 392 450 485 c 1
 475 485 l 1
 475 221 l 1
 450 221 l 1
 450 318 432 338 331 338 c 2
 252 338 l 1
 252 69 l 2
 252 33 259 31 325 31 c 2
 418 31 l 2
 479 31 546 33 590 76 c 0
 632 117 644 199 654 258 c 1
 679 258 l 1
 637 -0 l 1
 60 -0 l 1
EndSplineSet
EndChar

StartChar: F
Encoding: 70 70 77
Width: 708
Flags: HW
TeX: 688 0
HStem: -0 31<60 156.565 260.592 380> 325 31<252 413.274> 650 30<60 155.48 255.738 520.595>
VStem: 163 89<38.6894 325 356 644.521> 444 26<208 290.627 388.892 472>
AnchorPoint: "below" 348 0 basechar 0
AnchorPoint: "above" 348 705 basechar 0
LayerCount: 2
Fore
SplineSet
60 -0 m 1
 60 31 l 1
 73 31 l 2
 148 31 163 36 163 73 c 2
 163 607 l 2
 163 647 143 650 73 650 c 2
 60 650 l 1
 60 680 l 1
 610 680 l 1
 637 455 l 1
 612 455 l 1
 605 512 597 571 564 607 c 0
 525 649 459 650 401 650 c 2
 305 650 l 2
 267 650 252 648 252 613 c 2
 252 356 l 1
 332 356 l 2
 377 356 433 356 442 421 c 0
 445 438 444 455 444 472 c 1
 470 472 l 1
 470 208 l 1
 444 208 l 1
 444 302 429 325 328 325 c 2
 252 325 l 1
 252 81 l 2
 252 41 255 31 367 31 c 2
 380 31 l 1
 380 -0 l 1
 324 2 267 3 211 3 c 0
 161 3 110 2 60 -0 c 1
EndSplineSet
EndChar

StartChar: G
Encoding: 71 71 78
Width: 840
Flags: HW
TeX: 688 0
HStem: -22 31<364.093 527.377> 241 31<480 596.301 697.865 763> 674 31<362.242 515.489>
VStem: 83 103<221.597 463.005> 604 89<63.9869 234.083> 661 32<419.094 506.444>
AnchorPoint: "below" 433 0 basechar 0
AnchorPoint: "above" 432 705 basechar 0
LayerCount: 2
Fore
SplineSet
83 341 m 0
 83 553 252 705 432 705 c 0
 518 705 575 664 616 619 c 1
 670 697 673 704 682 704 c 0
 693 704 693 692 693 682 c 2
 693 440 l 2
 693 424 687 419 679 419 c 0
 664 419 663 430 661 444 c 0xf4
 645 555 571 674 442 674 c 0
 353 674 186 615 186 341 c 0
 186 79 343 9 448 9 c 0
 513 9 590 40 602 103 c 0
 604 113 604 123 604 134 c 2
 604 193 l 2xf8
 604 234 597 241 493 241 c 2
 480 241 l 1
 480 272 l 1
 637 270 l 1
 684 270 l 1
 763 272 l 1
 763 241 l 1
 760 241 l 2
 707 241 693 238 693 199 c 2xf8
 693 24 l 2
 693 9 691 2 684 2 c 0
 680 2 674 6 666 12 c 0
 648 27 633 44 621 64 c 1
 620 64 l 1
 586 5 510 -22 433 -22 c 0
 250 -22 83 131 83 341 c 0
EndSplineSet
EndChar

StartChar: H
Encoding: 72 72 79
Width: 805
Flags: HW
TeX: 688 0
HStem: 0 31<60 155.41 258.288 354 449 544.712 646.662 743> 340 30<252 551> 652 31<60 156.495 259.192 354 449 544.278 646.879 743>
VStem: 163 89<36.8618 340 370 646.315> 551 89<36.9287 340 370 645.964>
AnchorPoint: "below" 402 0 basechar 0
AnchorPoint: "above" 402 705 basechar 0
LayerCount: 2
Fore
SplineSet
60 0 m 1
 60 31 l 1
 74 31 l 2
 141 31 162 34 163 73 c 1
 163 610 l 2
 163 647 148 652 71 652 c 2
 60 652 l 1
 60 683 l 1
 109 681 158 680 207 680 c 0
 256 680 305 681 354 683 c 1
 354 652 l 1
 345 652 l 2
 270 652 252 649 252 607 c 2
 252 370 l 1
 551 370 l 1
 551 607 l 2
 551 648 535 652 459 652 c 2
 449 652 l 1
 449 683 l 1
 498 681 547 680 596 680 c 0
 645 680 694 681 743 683 c 1
 743 652 l 1
 730 652 l 2
 655 652 641 646 640 610 c 1
 640 73 l 1
 641 37 654 31 730 31 c 2
 743 31 l 1
 743 0 l 1
 694 2 645 3 596 3 c 0
 547 3 498 2 449 0 c 1
 449 31 l 1
 459 31 l 2
 537 31 551 35 551 76 c 2
 551 340 l 1
 252 340 l 1
 252 76 l 2
 252 35 266 31 344 31 c 2
 354 31 l 1
 354 0 l 1
 305 2 256 3 207 3 c 0
 158 3 109 2 60 0 c 1
EndSplineSet
EndChar

StartChar: I
Encoding: 73 73 80
Width: 417
Flags: HW
TeX: 688 0
HStem: -0 31<55 155.761 259.205 360> 652 31<55 156.025 259.944 360>
VStem: 163 89<37.3586 645.47>
AnchorPoint: "ogonek" 208 0 basechar 0
AnchorPoint: "below" 208 0 basechar 0
AnchorPoint: "above" 208 705 basechar 0
LayerCount: 2
Fore
SplineSet
55 -0 m 1
 55 31 l 1
 71 31 l 2
 141 31 163 33 163 74 c 2
 163 609 l 2
 163 647 146 652 70 652 c 2
 55 652 l 1
 55 683 l 1
 99 682 143 680 201 680 c 0
 254 680 307 681 360 683 c 1
 360 652 l 1
 345 652 l 2
 268 652 253 646 252 609 c 1
 252 74 l 1
 253 38 265 31 344 31 c 2
 360 31 l 1
 360 0 l 1
 308 2 254 3 202 3 c 0
 143 3 99 1 55 -0 c 1
EndSplineSet
EndChar

StartChar: J
Encoding: 74 74 81
Width: 569
Flags: HW
TeX: 688 0
HStem: -22 23<174.688 265.897> 58 111<116 168.444> 652 31<196 320.163 421.059 493>
VStem: 69 111<71.3464 157.767> 329 87<66.9772 644.625>
AnchorPoint: "below" 281 0 basechar 0
AnchorPoint: "above" 372 705 basechar 0
LayerCount: 2
Fore
SplineSet
69 112 m 0
 69 149 97 169 125 169 c 0
 154 169 180 146 180 114 c 0
 180 84 159 58 123 58 c 0
 121 58 118 59 116 59 c 1
 155 5 210 1 226 1 c 0
 267 1 329 36 329 155 c 2
 329 607 l 2
 329 649 307 652 214 652 c 2
 196 652 l 1
 196 683 l 1
 363 680 l 1
 410 680 l 1
 493 683 l 1
 493 652 l 1
 489 652 l 2
 425 652 416 647 416 608 c 2
 416 156 l 2
 416 21 301 -22 230 -22 c 0
 134 -22 69 44 69 112 c 0
EndSplineSet
EndChar

StartChar: K
Encoding: 75 75 82
Width: 833
Flags: HW
TeX: 688 0
HStem: -0 31<60 155.55 258.337 354 505 558.273 688.697 763> 652 31<60 156.225 258.752 354 537 575.002 677.526 749>
VStem: 163 89<36.964 273.164 288 646.126>
DStem2: 252 288 368 363 0.724587 0.689184<0.11692 135.741 217.775 465.086> 427 420 368 363 0.560359 -0.82825<14.1491 373.003>
AnchorPoint: "below" 412 0 basechar 0
AnchorPoint: "above" 412 705 basechar 0
LayerCount: 2
Fore
SplineSet
60 -0 m 1
 60 31 l 1
 72 31 l 2
 142 31 162 34 163 73 c 1
 163 609 l 2
 163 649 143 652 73 652 c 2
 60 652 l 1
 60 683 l 1
 109 681 158 680 207 680 c 0
 256 680 305 681 354 683 c 1
 354 652 l 1
 344 652 l 2
 262 652 252 646 252 605 c 2
 252 288 l 1
 559 580 l 2
 569 590 582 603 582 618 c 0
 582 632 572 649 537 652 c 1
 537 683 l 1
 577 681 616 680 656 680 c 0
 687 680 718 681 749 683 c 1
 749 652 l 1
 656 649 610 594 570 556 c 0
 456 447 442 433 427 420 c 1
 655 83 l 2
 688 36 707 31 759 31 c 2
 763 31 l 1
 763 -0 l 1
 688 3 l 1
 648 3 l 1
 505 -0 l 1
 505 31 l 1
 520 31 563 30 563 61 c 0
 563 75 553 89 546 99 c 2
 368 363 l 1
 252 253 252 260 252 233 c 2
 252 77 l 2
 252 36 263 31 345 31 c 2
 354 31 l 1
 354 -0 l 1
 305 2 256 3 207 3 c 0
 158 3 109 2 60 -0 c 1
EndSplineSet
EndChar

StartChar: L
Encoding: 76 76 83
Width: 680
Flags: HW
TeX: 688 0
HStem: -0 31<60 155.782 255.864 471.992> 652 31<60 155.697 261.161 380>
VStem: 163 89<36.5 644.5>
AnchorPoint: "below" 335 0 basechar 0
AnchorPoint: "above" 335 705 basechar 0
LayerCount: 2
Fore
SplineSet
60 -0 m 1
 60 31 l 1
 73 31 l 2
 143 31 162 34 163 73 c 1
 163 609 l 2
 163 648 144 652 73 652 c 2
 60 652 l 1
 60 683 l 1
 104 681 148 680 206 680 c 0
 264 680 322 681 380 683 c 1
 380 652 l 1
 363 652 l 2
 272 652 252 647 252 607 c 2
 252 69 l 2
 252 33 268 31 303 31 c 2
 374 31 l 2
 558 31 571 145 584 258 c 1
 610 258 l 1
 582 -0 l 1
 60 -0 l 1
EndSplineSet
EndChar

StartChar: M
Encoding: 77 77 84
Width: 972
Flags: HW
TeX: 688 0
HStem: -0 31<65 139.638 223.223 298 620 715.914 811.278 906> 652 31<65 160.774 195 199.816 722 723 811.316 906>
VStem: 168 27<59.3794 641.855> 723 81<36.9326 646.222>
DStem2: 268 662 221 582 0.361078 -0.932536<-12.0096 601.506> 485 101 478 23 0.36116 0.932504<0 600.337>
AnchorPoint: "below" 486 0 basechar 0
AnchorPoint: "above" 486 705 basechar 0
LayerCount: 2
Fore
SplineSet
65 -0 m 1
 65 31 l 1
 148 31 168 61 168 105 c 2
 168 609 l 2
 168 646 153 652 76 652 c 2
 65 652 l 1
 65 683 l 1
 235 683 l 2
 253 683 260 681 268 662 c 2
 485 101 l 1
 703 662 l 2
 711 681 717 683 735 683 c 2
 906 683 l 1
 906 652 l 1
 893 652 l 2
 818 652 805 645 804 610 c 1
 804 74 l 1
 805 35 821 31 893 31 c 2
 906 31 l 1
 906 -0 l 1
 858 2 811 3 763 3 c 0
 715 3 668 2 620 -0 c 1
 620 31 l 1
 633 31 l 2
 705 31 723 35 723 75 c 2
 723 653 l 1
 722 653 l 1
 698 589 l 1
 478 23 l 2
 474 14 469 2 458 2 c 0
 446 2 441 15 438 22 c 2
 221 582 l 2
 213 604 204 625 196 647 c 1
 195 647 l 1
 195 106 l 2
 195 72 202 31 298 31 c 1
 298 -0 l 1
 259 2 221 3 182 3 c 0
 143 3 104 2 65 -0 c 1
EndSplineSet
EndChar

StartChar: N
Encoding: 78 78 85
Width: 805
Flags: HW
TeX: 688 0
HStem: -0 31<60 135.484 218.223 293> 652 31<60 161.686 510 584.995 668.362 743>
VStem: 163 27<59.5887 626> 613 27<152 623.742>
DStem2: 613 152 191 626 0.563168 -0.826343<-629.343 0>
AnchorPoint: "below" 402 0 basechar 0
AnchorPoint: "above" 402 705 basechar 0
LayerCount: 2
Fore
SplineSet
60 -0 m 1
 60 31 l 1
 145 31 163 61 163 106 c 2
 163 645 l 1
 135 651 105 652 76 652 c 2
 60 652 l 1
 60 683 l 1
 233 683 l 2
 251 683 254 678 263 665 c 2
 613 152 l 1
 613 578 l 2
 613 619 598 652 510 652 c 1
 510 683 l 1
 557 681 582 680 620 680 c 0
 661 680 702 681 743 683 c 1
 743 652 l 1
 660 652 640 623 640 578 c 2
 640 42 l 2
 640 37 641 32 641 27 c 0
 641 12 639 1 627 1 c 0
 616 1 610 12 604 20 c 2
 191 626 l 1
 190 626 l 1
 190 106 l 2
 190 73 197 31 293 31 c 1
 293 -0 l 1
 253 2 212 3 172 3 c 0
 127 3 94 1 60 -0 c 1
EndSplineSet
EndChar

StartChar: O
Encoding: 79 79 86
Width: 833
Flags: HW
TeX: 688 0
HStem: -22 27<351.341 480.946> 680 25<350.623 481.09>
VStem: 83 103<212.043 467.518> 646 103<212.489 468.002>
AnchorPoint: "ogonek" 416 0 basechar 0
AnchorPoint: "below" 416 0 basechar 0
AnchorPoint: "above" 416 705 basechar 0
LayerCount: 2
Fore
SplineSet
83 339 m 0
 83 547 237 705 416 705 c 0
 593 705 749 548 749 339 c 0
 749 130 592 -22 416 -22 c 0
 242 -22 83 130 83 339 c 0
186 355 m 0
 186 85 324 5 416 5 c 0
 508 5 646 86 646 356 c 0
 646 602 508 680 416 680 c 0
 324 680 186 602 186 355 c 0
EndSplineSet
EndChar

StartChar: P
Encoding: 80 80 87
Width: 736
Flags: HW
TeX: 688 0
HStem: -0 31<62 158.565 261.267 356> 315 27<254 468.583> 652 31<62 157.697 253.966 474.812>
VStem: 165 86<38.125 315 342 646.153> 549 103<422.112 573.147>
AnchorPoint: "below" 332 0 basechar 0
AnchorPoint: "above" 332 705 basechar 0
LayerCount: 2
Fore
SplineSet
62 -0 m 1
 62 31 l 1
 75 31 l 2
 150 31 165 36 165 73 c 2
 165 609 l 2
 165 648 146 652 75 652 c 2
 62 652 l 1
 62 683 l 1
 397 683 l 2
 453 683 502 678 556 647 c 0
 614 613 652 557 652 497 c 0
 652 421 582 315 409 315 c 2
 254 315 l 1
 254 76 l 2
 254 36 269 31 347 31 c 2
 356 31 l 1
 356 -0 l 1
 307 2 258 3 209 3 c 0
 160 3 111 2 62 -0 c 1
251 342 m 1
 379 342 l 2
 539 342 549 426 549 497 c 0
 549 563 542 652 381 652 c 2
 318 652 l 2
 262 652 251 652 251 613 c 2
 251 342 l 1
EndSplineSet
EndChar

StartChar: Q
Encoding: 81 81 88
Width: 833
Flags: HW
TeX: 688 194
HStem: -194 103<589.578 693.275> -22 25<381.689 479.686> 125 23<383.023 457.742> 680 25<350.151 475.502>
VStem: 83 100<213.047 467.261> 335 23<26.6901 99.3099> 648 101<212.149 466.757> 734 20<-33.6903 8.92255>
AnchorPoint: "below" 416 -194 basechar 0
AnchorPoint: "above" 416 705 basechar 0
LayerCount: 2
Fore
SplineSet
83 339 m 0
 83 545 236 705 416 705 c 0
 597 705 749 545 749 340 c 0xfe
 749 183 660 59 545 6 c 1
 561 -32 583 -91 641 -91 c 0
 725 -91 734 2 734 2 c 1
 736 6 740 9 743 9 c 0
 749 9 754 3 754 -9 c 0xfd
 754 -68 731 -194 633 -194 c 0
 535 -194 525 -89 511 -7 c 1
 481 -17 449 -22 416 -22 c 0
 239 -22 83 132 83 339 c 0
183 339 m 0
 183 262 195 81 349 16 c 1
 340 33 335 45 335 64 c 0
 335 104 367 148 417 148 c 0
 486 148 514 79 530 42 c 1
 568 71 648 144 648 339 c 0xfe
 648 598 509 680 416 680 c 0
 323 680 184 602 183 339 c 0
358 64 m 0
 358 43 370 3 418 3 c 0
 453 3 481 15 505 26 c 1
 495 71 477 125 418 125 c 0xfc
 376 125 358 89 358 64 c 0
EndSplineSet
EndChar

StartChar: R
Encoding: 82 82 89
Width: 791
Flags: HW
TeX: 688 0
HStem: -22 23<639.668 700.829> 0 31<62 157.904 257.975 354> 330 23<251 425.836> 652 31<62 158.565 253.947 456.645>
VStem: 165 86<37.0356 330 353 646.071> 535 103<436.216 573.65> 737 23<49.4302 102.98>
AnchorPoint: "below" 332 0 basechar 0
AnchorPoint: "above" 332 705 basechar 0
LayerCount: 2
Fore
SplineSet
62 0 m 1
 62 31 l 1
 75 31 l 2x7e
 149 31 164 36 165 73 c 1
 165 610 l 2
 165 646 150 652 75 652 c 2
 62 652 l 1
 62 683 l 1
 357 683 l 2
 408 683 466 680 525 651 c 0
 595 617 638 562 638 503 c 0
 638 440 587 384 507 353 c 0
 493 347 478 344 463 340 c 1
 618 292 581 166 615 54 c 0
 622 31 635 1 669 1 c 0
 731 1 734 91 737 96 c 0
 739 100 744 103 748 103 c 0
 754 103 760 98 760 86 c 0
 760 60 744 -22 664 -22 c 0xbe
 595 -22 498 8 498 128 c 2
 498 199 l 2
 498 255 471 330 362 330 c 2
 251 330 l 1
 251 76 l 2
 251 35 268 31 344 31 c 2
 354 31 l 1
 354 0 l 1
 305 2 257 3 208 3 c 0
 159 3 111 2 62 0 c 1
251 353 m 1
 344 353 l 2
 449 353 535 375 535 501 c 0x3e
 535 592 496 652 361 652 c 2
 317 652 l 2
 262 652 251 652 251 614 c 2
 251 353 l 1
EndSplineSet
EndChar

StartChar: S
Encoding: 83 83 90
Width: 611
Flags: HW
TeX: 688 0
HStem: -22 31<237.235 390.842> 677 28<220.236 350.781>
VStem: 83 60<473.165 601.837> 83 25<140.116 226.982> 445 54<509.397 607.267> 466 60<88.9115 232.481>
DStem2: 233 420 213 333 0.967178 -0.254099<-61.7093 230.078>
AnchorPoint: "below" 328 0 basechar 0
AnchorPoint: "above" 279 705 basechar 0
LayerCount: 2
Fore
SplineSet
83 5 m 2
 83 207 l 2
 83 221 89 227 95 227 c 0
 101 227 107 221 108 212 c 0xd4
 111 161 120 113 164 69 c 0
 209 24 275 9 328 9 c 0
 412 9 466 79 466 154 c 0
 466 216 431 268 380 289 c 0
 356 299 245 322 213 333 c 0
 147 356 83 422 83 514 c 0
 83 621 170 705 279 705 c 0
 374 705 418 655 437 635 c 1
 470 689 477 704 487 704 c 0xe4
 499 704 499 689 499 678 c 2
 499 474 l 2
 499 466 496 457 486 457 c 0
 463 458 481 500 445 574 c 0
 401 663 323 677 280 677 c 0
 196 677 143 611 143 545 c 0xe8
 143 482 186 437 233 420 c 0
 268 408 374 388 411 371 c 0
 470 344 526 276 526 183 c 0
 526 75 447 -22 328 -22 c 0
 218 -22 163 31 145 48 c 1
 112 -11 102 -21 95 -21 c 0
 94 -21 92 -20 91 -20 c 0
 82 -17 83 -6 83 5 c 2
EndSplineSet
EndChar

StartChar: T
Encoding: 84 84 91
Width: 778
Flags: HW
TeX: 688 0
HStem: -0 31<198 332.886 442.387 577> 647 30<160.902 338.795 436.375 617.447>
VStem: 63 25<452 530.75> 343 89<39.6344 644.732> 687 25<452 534.895>
CounterMasks: 1 38
AnchorPoint: "below" 388 0 basechar 0
AnchorPoint: "above" 388 705 basechar 0
LayerCount: 2
Fore
SplineSet
63 452 m 1
 83 677 l 1
 693 677 l 1
 712 452 l 1
 687 452 l 1
 674 594 664 647 523 647 c 2
 483 647 l 2
 451 647 432 645 432 609 c 2
 432 78 l 2
 432 35 455 31 556 31 c 2
 577 31 l 1
 577 -0 l 1
 506 2 471 3 400 3 c 0
 332 3 266 2 198 -0 c 1
 198 31 l 1
 220 31 l 2
 321 31 343 35 343 78 c 2
 343 609 l 2
 343 646 325 647 292 647 c 2
 253 647 l 2
 110 647 100 590 88 452 c 1
 63 452 l 1
EndSplineSet
EndChar

StartChar: U
Encoding: 85 85 92
Width: 805
Flags: HW
TeX: 688 0
HStem: -22 31<352.141 488.476> 652 31<60 156.158 258.639 354 507 582.5 668.11 743>
VStem: 163 89<131.635 646.036> 610 30<147.49 624.918>
AnchorPoint: "ogonek" 416 0 basechar 0
AnchorPoint: "below" 416 0 basechar 0
AnchorPoint: "above" 402 705 basechar 0
LayerCount: 2
Fore
SplineSet
60 652 m 1
 60 683 l 1
 109 681 158 680 207 680 c 0
 256 680 305 681 354 683 c 1
 354 652 l 1
 341 652 l 2
 265 652 252 646 252 608 c 2
 252 238 l 2
 252 185 255 133 281 89 c 0
 293 68 336 9 417 9 c 0
 512 9 590 86 606 186 c 0
 609 206 610 227 610 247 c 2
 610 579 l 2
 610 638 571 651 507 652 c 1
 507 683 l 1
 548 681 590 680 631 680 c 0
 676 680 709 682 743 683 c 1
 743 652 l 1
 695 651 640 646 640 579 c 2
 640 245 l 2
 640 226 641 208 638 189 c 0
 622 76 534 -22 416 -22 c 0
 292 -22 163 72 163 234 c 2
 163 606 l 2
 163 647 150 652 69 652 c 2
 60 652 l 1
EndSplineSet
EndChar

StartChar: V
Encoding: 86 86 93
Width: 805
Flags: HW
TeX: 688 0
ItalicCorrection: 13
HStem: -22 21G<394.5 409.5> 652 28<46 129.424 243.109 316 546 597.703 694.465 758>
DStem2: 432 100 377 0 0.354146 -0.93519<-557.406 0> 432 100 427 0 0.354357 0.93511<0 535.252>
AnchorPoint: "below" 402 0 basechar 0
AnchorPoint: "above" 402 705 basechar 0
LayerCount: 2
Fore
SplineSet
46 652 m 1
 46 683 l 1
 69 682 111 680 144 680 c 2
 171 680 l 2
 219 680 268 681 316 683 c 1
 316 652 l 1
 313 652 l 2
 278 652 236 650 236 622 c 0
 236 618 237 613 239 608 c 2
 432 100 l 1
 612 576 l 2
 615 584 619 592 619 602 c 0
 619 622 602 650 546 652 c 1
 546 683 l 1
 585 681 623 680 662 680 c 0
 700 680 720 681 758 683 c 1
 758 652 l 1
 673 650 658 609 643 570 c 2
 427 0 l 2
 423 -11 417 -22 402 -22 c 0
 387 -22 381 -11 377 0 c 2
 146 610 l 2
 133 644 124 652 50 652 c 2
 46 652 l 1
EndSplineSet
EndChar

StartChar: W
Encoding: 87 87 94
Width: 1083
Flags: HW
TeX: 688 0
ItalicCorrection: 13
HStem: -21 21G<349.5 364 718.5 733.5> 652 31<46 123.427 234.066 310 416 493.427 604.062 680 826 887.306 975.536 1036>
VStem: 526 71<546.75 616.075>
DStem2: 268 488 137 610 0.310113 -0.9507<-139.651 389.923> 389 117 378 4 0.309946 0.950754<0 415.054> 599 608 541 504 0.309619 -0.950861<-11.8511 36.8527 80.9316 515.151> 758 118 747 3 0.310681 0.950514<0 504.996>
AnchorPoint: "below" 540 0 basechar 0
AnchorPoint: "above" 540 705 basechar 0
LayerCount: 2
Fore
SplineSet
46 652 m 1
 46 683 l 1
 87 681 129 680 170 680 c 0
 217 680 263 681 310 683 c 1
 310 652 l 1
 307 652 304 652 301 652 c 0
 239 652 227 634 227 622 c 0
 227 612 236 588 268 488 c 2
 372 167 l 2
 377 150 383 134 388 117 c 1
 389 117 l 1
 401 157 l 1
 521 524 l 2
 524 533 526 539 526 545 c 0
 526 555 520 568 507 609 c 0
 494 649 482 652 416 652 c 1
 416 683 l 1
 467 681 493 680 533 680 c 0
 582 680 631 681 680 683 c 1
 680 652 l 1
 670 652 l 2
 621 652 597 642 597 620 c 0
 597 616 598 612 599 608 c 2
 758 118 l 1
 909 580 l 2
 910 584 913 591 913 599 c 0
 913 620 892 650 826 652 c 1
 826 683 l 1
 865 681 903 680 942 680 c 0
 973 680 1005 681 1036 683 c 1
 1036 652 l 1
 957 649 945 609 932 569 c 2
 747 3 l 2
 743 -7 741 -21 726 -21 c 0
 711 -21 707 -4 704 4 c 2
 541 504 l 1
 532 479 525 455 517 430 c 2
 378 4 l 2
 375 -4 371 -21 357 -21 c 0
 342 -21 339 -7 335 3 c 2
 137 610 l 2
 124 649 112 652 46 652 c 1
EndSplineSet
EndChar

StartChar: X
Encoding: 88 88 95
Width: 805
Flags: HW
TeX: 688 0
HStem: 0 31<51 135.685 244.375 290 478 531.165 660.744 753> 652 31<65 158.688 285.953 340 473 517.75 626.15 711>
VStem: 357 77<348.797 376.531>
DStem2: 187 83 245 113 0.561094 0.827752<18.6224 192.084 400.6 595.956> 411 414 340 369 0.552998 -0.833183<-246.289 0 68.1219 317.753>
AnchorPoint: "below" 402 0 basechar 0
AnchorPoint: "above" 402 705 basechar 0
LayerCount: 2
Fore
SplineSet
51 0 m 1
 51 31 l 1
 118 32 159 50 187 83 c 1
 187 83 357 327 357 339 c 0
 357 346 351 352 340 369 c 2
 181 610 l 2
 155 648 145 652 65 652 c 1
 65 683 l 1
 109 681 153 680 197 680 c 0
 245 680 292 681 340 683 c 1
 340 652 l 1
 308 651 277 640 277 621 c 0
 277 614 287 601 411 414 c 1
 412 414 l 1
 466 500 534 584 534 606 c 0
 534 629 511 650 473 652 c 1
 473 683 l 1
 517 681 559 680 603 680 c 0
 640 680 664 681 711 683 c 1
 711 652 l 1
 604 651 579 605 548 560 c 0
 438 397 434 393 434 386 c 0
 434 380 437 376 439 372 c 2
 636 75 l 2
 666 31 682 31 750 31 c 2
 753 31 l 1
 753 0 l 1
 710 2 666 3 623 3 c 0
 574 3 527 2 478 0 c 1
 478 31 l 1
 516 33 540 46 540 62 c 0
 540 71 544 64 379 311 c 1
 245 113 l 2
 239 103 228 92 228 77 c 0
 228 55 251 33 290 31 c 1
 290 0 l 1
 247 2 204 3 161 3 c 0
 117 3 84 2 51 0 c 1
EndSplineSet
EndChar

StartChar: Y
Encoding: 89 89 96
Width: 805
Flags: HW
TeX: 688 0
ItalicCorrection: 24
HStem: -0 31<256 352.704 452.569 548> 652 31<39 131.34 251.196 316 553 599.167 693.981 766>
VStem: 359 87<36.467 304.812>
DStem2: 414 349 349 290 0.523194 -0.852213<-323.813 39.4391> 435 315 455 289 0.524266 0.851554<0 345.068>
AnchorPoint: "below" 402 0 basechar 0
AnchorPoint: "above" 402 705 basechar 0
LayerCount: 2
Fore
SplineSet
39 652 m 1
 39 683 l 1
 93 681 122 680 165 680 c 0
 215 680 266 681 316 683 c 1
 316 652 l 1
 311 652 l 2
 266 652 249 644 249 628 c 0
 249 621 252 613 258 603 c 2
 414 349 l 2
 421 338 428 326 434 315 c 1
 435 315 l 1
 599 583 l 2
 604 591 610 602 610 613 c 0
 610 629 598 650 553 652 c 1
 553 683 l 1
 592 681 631 680 670 680 c 0
 708 680 728 681 766 683 c 1
 766 652 l 1
 681 651 653 611 628 570 c 2
 455 289 l 2
 447 275 446 270 446 257 c 2
 446 77 l 2
 446 36 458 31 539 31 c 2
 548 31 l 1
 548 -0 l 1
 505 1 463 3 406 3 c 0
 356 3 306 2 256 -0 c 1
 256 31 l 1
 267 31 l 2
 348 31 359 36 359 77 c 2
 359 260 l 2
 359 269 359 274 349 290 c 2
 155 606 l 2
 132 644 127 652 40 652 c 2
 39 652 l 1
EndSplineSet
EndChar

StartChar: Z
Encoding: 90 90 97
Width: 667
Flags: HW
TeX: 688 0
HStem: -0 33<186 455.345> 652 31<223.517 480>
VStem: 97 25<458 539.359> 563 25<166.869 267>
DStem2: 95 44 186 33 0.534823 0.844964<39.3742 719.645>
AnchorPoint: "below" 336 0 basechar 0
AnchorPoint: "above" 336 705 basechar 0
LayerCount: 2
Fore
SplineSet
83 17 m 0
 83 27 90 36 95 44 c 2
 480 652 l 1
 330 652 l 2
 164 652 129 579 122 458 c 1
 97 458 l 1
 108 683 l 1
 556 683 l 2
 568 683 582 682 582 667 c 0
 582 659 578 651 574 646 c 2
 186 33 l 1
 332 33 l 2
 529 33 553 103 563 267 c 1
 588 267 l 1
 571 -0 l 1
 106 -0 l 2
 93 0 83 2 83 17 c 0
EndSplineSet
EndChar

StartChar: bracketleft
Encoding: 91 91 98
Width: 333
Flags: HW
TeX: 749 249
HStem: -250 23<199 283> 727 23<199 283>
VStem: 132 67<-227 727>
LayerCount: 2
Fore
SplineSet
132 -250 m 1
 132 750 l 1
 283 750 l 1
 283 727 l 1
 199 727 l 1
 199 -227 l 1
 283 -227 l 1
 283 -250 l 1
 132 -250 l 1
EndSplineSet
EndChar

StartChar: backslash
Encoding: 92 92 99
Width: 555
Flags: HW
TeX: 749 249
DStem2: 464 -218 89 721 0.349928 -0.936777<-1026.13 18.3899>
LayerCount: 2
Fore
SplineSet
85 736 m 0
 85 742 87 748 94 748 c 0
 104 748 109 732 111 727 c 2
 464 -218 l 2
 466 -224 469 -231 469 -236 c 0
 469 -243 465 -248 459 -248 c 0
 448 -248 444 -229 442 -224 c 2
 89 721 l 2
 87 726 85 732 85 736 c 0
EndSplineSet
EndChar

StartChar: bracketright
Encoding: 93 93 100
Width: 333
Flags: HW
TeX: 749 249
HStem: -250 23<49 132> 727 23<49 132>
VStem: 132 68<-227 727>
LayerCount: 2
Fore
SplineSet
49 -227 m 1
 132 -227 l 1
 132 727 l 1
 49 727 l 1
 49 750 l 1
 200 750 l 1
 200 -250 l 1
 49 -250 l 1
 49 -227 l 1
EndSplineSet
EndChar

StartChar: asciicircum
Encoding: 94 94 101
Width: 667
Flags: HW
TeX: 688 0
HStem: 463 165
LayerCount: 2
Fore
SplineSet
145 483 m 1
 145 484 l 1
 332 628 l 1
 333 628 l 1
 520 484 l 1
 520 483 l 1
 506 463 l 1
 490 472 475 482 351 563 c 0
 346 566 340 571 333 571 c 0
 319 571 228 504 159 463 c 1
 145 483 l 1
EndSplineSet
EndChar

StartChar: underscore
Encoding: 95 95 102
Width: 833
Flags: HW
TeX: 0 232
HStem: -233 40<111.003 719.988>
LayerCount: 2
Fore
SplineSet
111 -213 m 0
 111 -205 115 -193 140 -193 c 2
 690 -193 l 2
 716 -193 720 -205 720 -213 c 0
 720 -230 703 -233 691 -233 c 2
 140 -233 l 2
 115 -233 111 -221 111 -213 c 0
EndSplineSet
EndChar

StartChar: quoteleft
Encoding: 8216 8216 103
Width: 333
Flags: HW
TeX: 688 0
HStem: 394 106<123.471 208.685> 672 20G<184 196.5>
VStem: 99 23<479.987 570.592>
LayerCount: 2
Fore
SplineSet
99 498 m 0
 99 610 176 692 192 692 c 0
 201 692 205 682 197 672 c 0
 190 664 122 604 122 501 c 0
 122 494 122 486 123 479 c 1
 133 491 146 500 166 500 c 0
 196 500 219 477 219 447 c 0
 219 418 197 394 166 394 c 0
 126 394 99 434 99 498 c 0
EndSplineSet
EndChar

StartChar: a
Encoding: 97 97 104
Width: 555
Flags: HW
TeX: 430 0
ItalicCorrection: 40
HStem: -11 23<214.392 289.438 446.887 495.327> 419 23<215.932 289.775>
VStem: 69 84<107.646 321.277> 353 70<61.069 370.581 381 418.707> 514 25<34.9778 150.531>
AnchorPoint: "ogonek" 470 0 basechar 0
AnchorPoint: "affricate-below" 555 -194 basechar 0
AnchorPoint: "affricate-above" 555 694 basechar 0
AnchorPoint: "below" 249 0 basechar 0
AnchorPoint: "above" 249 442 basechar 0
LayerCount: 2
Fore
SplineSet
69 215 m 0
 69 344 153 442 249 442 c 0
 302 442 333 406 353 381 c 1
 354 417 377 421 388 421 c 0
 402 421 424 415 423 376 c 1
 423 121 l 2
 423 86 427 12 472 12 c 0
 512 12 514 82 514 118 c 2
 514 129 l 2
 514 141 515 144 517 147 c 0
 521 153 531 154 536 148 c 0
 538 145 539 142 539 126 c 0
 539 41 526 -11 470 -11 c 0
 443 -11 388 2 362 63 c 1
 345 35 308 -11 249 -11 c 0
 159 -11 69 80 69 215 c 0
153 216 m 0
 153 151 154 77 201 33 c 0
 216 19 233 12 251 12 c 0
 305 12 353 77 353 113 c 2
 353 317 l 2
 353 356 303 419 251 419 c 0
 218 419 187 394 168 344 c 0
 153 303 153 259 153 216 c 0
EndSplineSet
EndChar

StartChar: b
Encoding: 98 98 105
Width: 500
Flags: HW
TeX: 688 0
HStem: -11 23<213.609 285.624> 419 23<210.508 285.217> 652 31<-1 68.1673> 674 20G<-1 147>
VStem: 77 70<106.281 369.81 381 646.058> 347 84<107.547 322.912>
AnchorPoint: "affricate-below" 500 -194 basechar 0
AnchorPoint: "affricate-above" 500 694 basechar 0
AnchorPoint: "below" 254 0 basechar 0
AnchorPoint: "above" 254 694 basechar 0
LayerCount: 2
Fore
SplineSet
-1 652 m 1
 -1 683 l 1xec
 147 694 l 1xdc
 147 381 l 1
 186 435 228 442 252 442 c 0
 340 442 431 352 431 215 c 0
 431 80 342 -11 251 -11 c 0
 159 -11 91 78 79 178 c 0
 77 196 77 214 77 232 c 2
 77 599 l 2
 77 649 56 652 -1 652 c 1
147 223 m 2
 147 149 153 105 175 65 c 0
 195 30 223 12 250 12 c 0
 282 12 313 36 332 86 c 0
 347 127 347 172 347 215 c 0
 347 280 346 352 299 397 c 0
 283 412 267 419 250 419 c 0
 207 419 165 376 150 337 c 0
 146 328 147 318 147 308 c 2xcc
 147 223 l 2
EndSplineSet
EndChar

StartChar: c
Encoding: 99 99 106
Width: 500
Flags: HW
TeX: 430 0
HStem: -11 22<234.966 344.443> 290 92<330.851 372> 419 23<235.237 333.686>
VStem: 69 84<117.371 316.111> 324 92<296.754 373.121>
AnchorPoint: "affricate-below" 500 -194 basechar 0
AnchorPoint: "affricate-above" 500 694 basechar 0
AnchorPoint: "below" 279 0 basechar 0
AnchorPoint: "above" 276 442 basechar 0
LayerCount: 2
Fore
SplineSet
69 216 m 0
 69 347 168 442 277 442 c 0
 350 442 416 400 416 338 c 0
 416 300 386 290 370 290 c 0
 343 290 324 311 324 336 c 0
 324 352 332 380 372 382 c 1
 365 389 335 419 280 419 c 0
 229 419 196 383 179 353 c 0
 153 306 153 243 153 215 c 0
 153 165 156 99 195 53 c 0
 217 27 244 11 284 11 c 0
 335 11 411 36 449 98 c 0
 453 105 458 116 466 118 c 0
 473 119 479 113 479 106 c 0
 479 86 416 -11 279 -11 c 0
 160 -11 69 92 69 216 c 0
EndSplineSet
EndChar

StartChar: d
Encoding: 100 100 107
Width: 555
Flags: HW
TeX: 688 0
ItalicCorrection: 40
HStem: -11 23<214.344 290.36 445.82 494.684> 419 23<214.298 289.317> 652 31<276 345.243> 674 20G<276 423>
VStem: 69 84<107.206 322.819> 353 70<61.069 370.581 381 647.189> 517 22<45.8172 147.859>
AnchorPoint: "affricate-below" 555 -194 basechar 0
AnchorPoint: "affricate-above" 555 694 basechar 0
AnchorPoint: "below" 304 0 basechar 0
AnchorPoint: "above" 246 694 basechar 0
LayerCount: 2
Fore
SplineSet
69 215 m 0
 69 351 159 442 248 442 c 0
 272 442 314 435 353 381 c 1
 353 566 l 2
 353 574 354 582 354 590 c 0
 354 648 342 652 276 652 c 1
 276 683 l 1xee
 423 694 l 1xde
 423 121 l 2
 423 90 425 12 471 12 c 0
 526 12 510 134 517 146 c 0
 521 153 531 154 536 148 c 0
 539 145 539 142 539 126 c 0
 539 41 525 -11 469 -11 c 0
 442 -11 388 2 362 63 c 1
 345 34 308 -11 248 -11 c 0
 161 -11 69 78 69 215 c 0
153 216 m 0
 153 151 154 77 201 33 c 0
 216 19 233 12 251 12 c 0
 305 12 353 77 353 113 c 2
 353 317 l 2xce
 353 356 303 419 251 419 c 0
 218 419 187 394 168 344 c 0
 153 303 153 259 153 216 c 0
EndSplineSet
EndChar

StartChar: e
Encoding: 101 101 108
Width: 500
Flags: HW
TeX: 430 0
HStem: -11 22<239.1 343.814> 230 23<153 299.875> 419 23<231.084 323.586>
VStem: 69 84<131.031 230 253 327.65> 371 34<292.594 382.839>
AnchorPoint: "ogonek" 280 0 basechar 0
AnchorPoint: "affricate-below" 500 -194 basechar 0
AnchorPoint: "affricate-above" 500 694 basechar 0
AnchorPoint: "below" 280 0 basechar 0
AnchorPoint: "above" 276 442 basechar 0
LayerCount: 2
Fore
SplineSet
69 239 m 0
 69 363 174 442 276 442 c 0
 346 442 405 399 405 335 c 0
 405 232 262 230 174 230 c 2
 153 230 l 1
 154 173 158 113 191 65 c 0
 209 39 236 11 281 11 c 0
 342 11 411 41 446 94 c 0
 452 103 458 117 466 118 c 0
 472 119 479 113 479 106 c 0
 479 84 413 -11 280 -11 c 0
 156 -11 69 110 69 239 c 0
153 253 m 1
 184 253 l 2
 258 253 371 257 371 335 c 0
 371 378 334 419 278 419 c 0
 226 419 186 384 168 341 c 0
 156 313 154 283 153 253 c 1
EndSplineSet
EndChar

StartChar: f
Encoding: 102 102 109
Width: 333
Flags: HW
TeX: 688 194
ItalicCorrection: 41
HStem: -205 22<68.3402 132.078> 400 30<35 120 192 294> 683 22<194.52 256.812>
VStem: 8 49<-172.765 -157.789> 113 66<433.001 661.311> 150 63<-139.136 180.926> 227 91<579.961 656.724>
AnchorPoint: "affricate-below" 333 -194 basechar 0
AnchorPoint: "affricate-above" 333 694 basechar 0
AnchorPoint: "above" 195 694 basechar 0
AnchorPoint: "below" 134 -194 basechar 0
LayerCount: 2
Fore
SplineSet
8 -121 m 0
 8 -93 29 -74 54 -74 c 0
 80 -74 100 -94 100 -119 c 0
 100 -130 96 -158 57 -165 c 1
 57 -166 l 1
 70 -174 88 -183 108 -183 c 0
 125 -183 150 -172 150 -103 c 0xf6
 150 -22 121 400 121 400 c 1
 35 400 l 1
 35 430 l 1
 120 430 l 1
 114 519 113 532 113 557 c 0
 113 585 114 614 124 640 c 0
 135 670 166 705 214 705 c 0
 266 705 318 671 318 620 c 0
 318 590 295 573 272 573 c 0
 248 573 227 592 227 619 c 0
 227 656 260 664 269 666 c 1
 265 668 240 683 218 683 c 0
 210 683 202 681 196 676 c 0
 183 666 179 658 179 626 c 0xfa
 179 587 188 469 190 430 c 1
 294 430 l 1
 294 400 l 1
 192 400 l 1
 199 270 213 104 213 9 c 0xf6
 213 -176 151 -205 109 -205 c 0
 62 -205 8 -173 8 -121 c 0
EndSplineSet
EndChar

StartChar: g
Encoding: 103 103 110
Width: 500
Flags: HW
TeX: 430 194
HStem: -206 23<156.293 291.027> 0 22<217.539 288.684> 419 23<214.677 290.158>
VStem: 69 84<116.246 326.958> 93 91<-168.032 -89.8974> 353 70<-131.685 60 69.6589 372.498 382 418.363>
AnchorPoint: "affricate-below" 500 -194 basechar 0
AnchorPoint: "affricate-above" 500 694 basechar 0
AnchorPoint: "below" 243 -194 basechar 0
AnchorPoint: "above" 246 442 basechar 0
LayerCount: 2
Fore
SplineSet
69 221 m 0xf4
 69 355 161 442 248 442 c 0
 300 442 334 407 353 382 c 1
 354 414 376 421 388 421 c 0
 398 421 423 417 423 379 c 2
 423 -52 l 2
 423 -175 314 -206 243 -206 c 0
 133 -206 93 -176 93 -130 c 0
 93 -102 114 -83 139 -83 c 0
 163 -83 184 -102 184 -129 c 0xec
 184 -155 167 -166 155 -172 c 1
 183 -181 218 -183 242 -183 c 0
 287 -183 353 -157 353 -54 c 2
 353 60 l 1
 325 22 290 0 248 0 c 0
 160 0 69 88 69 221 c 0xf4
153 221 m 0
 153 158 155 88 200 45 c 0
 217 29 234 22 251 22 c 0
 297 22 353 79 353 123 c 2
 353 320 l 2xf4
 353 359 302 419 251 419 c 0
 206 419 179 377 168 346 c 0
 153 306 153 263 153 221 c 0
EndSplineSet
EndChar

StartChar: h
Encoding: 104 104 111
Width: 555
Flags: HW
TeX: 688 0
ItalicCorrection: 40
HStem: -11 23<423.253 476.116> 419 23<224.264 311> 652 31<-1 68.684> 674 20G<-1 147>
VStem: 77 70<-8.49504 354.441 364 646.549> 340 68<31.518 272.858> 354 70<86.6273 373.507> 515 25<63.813 152.96>
AnchorPoint: "affricate-below" 555 -194 basechar 0
AnchorPoint: "affricate-above" 555 694 basechar 0
AnchorPoint: "below" 249 0 basechar 0
AnchorPoint: "above" 249 694 basechar 0
LayerCount: 2
Fore
SplineSet
-1 652 m 1
 -1 683 l 1xeb
 147 694 l 1
 147 364 l 1
 163 393 200 442 278 442 c 0
 346 442 424 409 424 274 c 0xdb
 424 196 408 107 408 78 c 0
 408 27 427 12 447 12 c 0
 471 12 509 33 515 130 c 0
 516 147 521 153 527 153 c 0
 533 153 540 145 540 135 c 0
 540 85 521 -11 444 -11 c 0
 382 -11 340 43 340 93 c 0xdd
 340 110 354 202 354 279 c 0
 354 401 306 419 274 419 c 0
 189 419 147 335 147 283 c 2
 147 37 l 2
 147 24 148 -11 112 -11 c 0xdb
 98 -11 77 -4 77 35 c 2
 77 597 l 2
 77 646 63 652 3 652 c 2
 -1 652 l 1
EndSplineSet
EndChar

StartChar: i
Encoding: 105 105 112
Width: 333
Flags: HW
TeX: 663 0
ItalicCorrection: 40
HStem: -11 23<199.584 253.642> 419 23<79.593 131.73> 570 91<127.436 204.564>
VStem: 15 27<278.017 372.17> 117 68<30.7919 257.439> 120 92<577.411 653.781> 147 69<168.009 398.589> 290 27<58.2427 151.982>
AnchorPoint: "above" 166 641 basechar 0
AnchorPoint: "ogonek" 221 0 basechar 0
AnchorPoint: "affricate-below" 333 -194 basechar 0
AnchorPoint: "affricate-above" 333 694 basechar 0
AnchorPoint: "below" 166 0 basechar 0
LayerCount: 2
Fore
SplineSet
120 615 m 0
 120 639 140 661 166 661 c 0
 194 661 212 638 212 615 c 0
 212 594 193 570 166 570 c 0xf5
 139 570 120 591 120 615 c 0
EndSplineSet
Refer: 32 305 S 1 0 0 1 0 0 3
EndChar

StartChar: j
Encoding: 106 106 113
Width: 333
Flags: HW
TeX: 663 194
HStem: -206 23<58.7025 137.038> 419 23<99.6507 163.066> 570 91<171.851 248.828>
VStem: 0 92<-167.242 -89.851> 18 20<282.284 321.108> 165 91<576.946 654.014> 187 70<-129.289 390.459>
AnchorPoint: "affricate-below" 333 -194 basechar 0
AnchorPoint: "affricate-above" 333 694 basechar 0
AnchorPoint: "below" 140 -194 basechar 0
LayerCount: 2
Fore
SplineSet
0 -129 m 0
 0 -99 23 -83 46 -83 c 0
 71 -83 92 -102 92 -129 c 0xf2
 92 -152 78 -166 58 -173 c 1
 71 -178 84 -183 99 -183 c 0
 134 -183 187 -157 187 -44 c 2
 187 309 l 2
 187 347 184 419 136 419 c 0
 56 419 42 290 38 284 c 0
 34 278 24 276 19 282 c 0
 14 288 17 298 18 306 c 0
 30 370 66 442 139 442 c 0
 175 442 257 417 257 313 c 2
 257 -36 l 2xea
 257 -78 254 -113 220 -152 c 0
 189 -188 143 -206 102 -206 c 0
 48 -206 0 -175 0 -129 c 0
165 615 m 0
 165 639 184 661 210 661 c 0
 238 661 256 638 256 615 c 0
 256 594 238 570 211 570 c 0xe4
 184 570 165 592 165 615 c 0
EndSplineSet
EndChar

StartChar: k
Encoding: 107 107 114
Width: 500
Flags: HW
TeX: 688 0
HStem: -11 23<378.956 433.695> 314 92<359.736 398> 419 23<318.764 396.864> 652 31<-1 68.9743> 674 20G<-1 147>
VStem: 77 70<-8.3605 228 260 646.516> 462 23<54.3156 150.808>
AnchorPoint: "affricate-below" 500 -194 basechar 0
AnchorPoint: "affricate-above" 500 694 basechar 0
AnchorPoint: "below" 242 0 basechar 0
AnchorPoint: "above" 242 694 basechar 0
LayerCount: 2
Fore
SplineSet
-1 652 m 1
 -1 683 l 1xf6
 147 694 l 1
 147 260 l 1
 234 307 256 442 360 442 c 0
 416 442 444 396 444 361 c 0xee
 444 323 413 314 398 314 c 0
 374 314 353 333 353 360 c 0
 353 372 359 403 398 406 c 1
 398 407 l 1
 397 407 382 419 358 419 c 0
 277 419 244 298 175 250 c 1
 365 231 354 137 355 105 c 0
 357 67 365 12 406 12 c 0
 469 12 456 130 462 145 c 0
 465 151 472 154 478 151 c 0
 485 147 485 137 485 130 c 0
 485 79 476 -11 404 -11 c 0
 352 -11 292 31 286 111 c 0
 285 129 291 209 147 228 c 1
 147 33 l 2
 147 -6 123 -11 112 -11 c 0
 80 -11 77 16 77 34 c 2
 77 593 l 2
 77 643 69 652 3 652 c 2
 -1 652 l 1
EndSplineSet
EndChar

StartChar: l
Encoding: 108 108 115
Width: 278
Flags: HW
TeX: 688 0
ItalicCorrection: 40
HStem: -11 23<170.328 218.12> 652 31<-1 68.7245> 674 20G<-1 147>
VStem: 77 70<39.3355 646.776> 238 25<35.8505 152.974>
AnchorPoint: "affricate-below" 278 -194 basechar 0
AnchorPoint: "affricate-above" 278 694 basechar 0
AnchorPoint: "below" 112 0 basechar 0
AnchorPoint: "above" 112 694 basechar 0
LayerCount: 2
Fore
SplineSet
-1 652 m 1
 -1 683 l 1xd8
 147 694 l 1
 147 125 l 2xb8
 147 101 146 12 195 12 c 0
 237 12 238 86 238 119 c 2
 238 126 l 1
 237 144 244 153 251 153 c 0
 257 153 263 146 263 133 c 0
 263 73 261 -11 193 -11 c 0
 157 -11 77 14 77 116 c 2
 77 596 l 2
 77 647 64 652 -1 652 c 1
EndSplineSet
EndChar

StartChar: m
Encoding: 109 109 116
Width: 889
Flags: HW
TeX: 430 0
ItalicCorrection: 40
HStem: -11 23<755.533 810.734> 419 23<61.4436 107.704 278.754 364.857 557.69 642.454>
VStem: 132 70<-8.2168 354.285> 409 70<-7.98199 354.734> 672 69<31.0034 273.677> 686 70<87.1929 373.676> 849 24<69.8617 151.997>
AnchorPoint: "affricate-below" 889 -194 basechar 0
AnchorPoint: "affricate-above" 889 694 basechar 0
AnchorPoint: "below" 443 0 basechar 0
AnchorPoint: "above" 443 442 basechar 0
LayerCount: 2
Fore
SplineSet
15 298 m 0
 15 369 20 441 86 441 c 0
 121 441 179 420 197 356 c 1
 218 391 248 442 333 442 c 0
 383 442 446 422 470 346 c 1
 505 425 565 442 610 442 c 0
 677 442 756 408 756 274 c 0xf6
 756 195 741 107 741 77 c 0
 741 47 748 12 779 12 c 0
 849 12 846 135 849 144 c 0
 851 149 856 152 861 152 c 0
 867 152 873 148 873 135 c 0
 873 85 853 -11 775 -11 c 0
 716 -11 672 40 672 95 c 0xfa
 672 114 686 197 686 281 c 0
 686 341 675 419 605 419 c 0
 518 419 479 326 479 290 c 2
 479 33 l 2
 479 19 477 -11 444 -11 c 0
 430 -11 416 -1 411 13 c 0
 408 22 409 32 409 42 c 2
 409 278 l 2
 409 399 361 419 329 419 c 0
 233 419 206 319 203 303 c 0
 201 294 202 284 202 275 c 2
 202 34 l 2
 202 -4 181 -11 167 -11 c 0
 152 -11 139 -1 134 13 c 0
 131 22 132 32 132 41 c 2
 132 303 l 2
 132 335 132 418 84 418 c 0
 33 418 43 319 40 291 c 0
 39 282 33 278 27 278 c 0xf6
 17 278 15 289 15 298 c 0
EndSplineSet
EndChar

StartChar: n
Encoding: 110 110 117
Width: 611
Flags: HW
TeX: 430 0
ItalicCorrection: 40
HStem: -11 23<477.373 530.329> 418 24<58.7839 108.426 276.243 367.813>
VStem: 15 20<278.295 368.511> 131 70<-8.09778 354.001> 394 69<31.933 272.226> 409 70<87.3288 374.402> 569 26<61.6671 149.857>
AnchorPoint: "affricate-below" 611 -194 basechar 0
AnchorPoint: "affricate-above" 611 694 basechar 0
AnchorPoint: "below" 304 0 basechar 0
AnchorPoint: "above" 304 442 basechar 0
LayerCount: 2
Fore
SplineSet
15 303 m 0
 15 369 21 442 85 442 c 0
 120 442 175 422 197 355 c 1
 217 392 251 442 333 442 c 0
 402 442 479 407 479 274 c 0xf6
 479 186 463 113 463 78 c 0
 463 48 471 12 501 12 c 0
 528 12 563 38 569 128 c 0
 570 144 574 153 581 153 c 0
 583 153 586 152 589 150 c 0
 594 147 595 141 595 135 c 0
 595 87 576 -11 498 -11 c 0
 442 -11 394 39 394 94 c 0xfa
 394 114 409 205 409 278 c 0
 409 330 400 419 328 419 c 0
 243 419 201 333 201 285 c 2
 201 32 l 2
 201 -6 176 -11 166 -11 c 0xf6
 128 -11 131 33 131 37 c 2
 131 312 l 2
 131 404 102 418 83 418 c 0
 26 418 48 291 35 281 c 0
 32 279 30 278 27 278 c 0
 21 278 15 284 15 303 c 0
EndSplineSet
EndChar

StartChar: o
Encoding: 111 111 118
Width: 555
Flags: HW
TeX: 430 0
HStem: -11 23<233.781 322.264> 419 23<231.745 320.325>
VStem: 69 84<116.383 316.041> 402 83<114.099 314.052>
AnchorPoint: "ogonek" 277 0 basechar 0
AnchorPoint: "affricate-below" 555 -194 basechar 0
AnchorPoint: "affricate-above" 555 694 basechar 0
AnchorPoint: "below" 277 0 basechar 0
AnchorPoint: "above" 276 442 basechar 0
LayerCount: 2
Fore
SplineSet
69 215 m 0
 69 347 168 442 277 442 c 0
 394 442 485 338 485 215 c 0
 485 83 386 -11 277 -11 c 0
 160 -11 69 92 69 215 c 0
153 214 m 0
 153 168 156 128 171 93 c 0
 186 57 222 12 277 12 c 0
 292 12 328 15 361 55 c 0
 399 102 402 169 402 218 c 0
 402 284 393 315 384 337 c 0
 369 373 332 419 277 419 c 0
 262 419 226 416 193 375 c 0
 155 328 153 261 153 214 c 0
EndSplineSet
EndChar

StartChar: p
Encoding: 112 112 119
Width: 555
Flags: HW
TeX: 430 194
HStem: -194 31<73 127.327 206.432 279> -11 23<265.32 340.238> 419 23<60.0537 107.843 264.14 338.003>
VStem: 15 25<282.14 394.435> 131 70<-158.956 50 59.7801 369.722> 402 83<107.56 321.794>
AnchorPoint: "affricate-below" 555 -194 basechar 0
AnchorPoint: "affricate-above" 555 694 basechar 0
AnchorPoint: "below" 308 -194 basechar 0
AnchorPoint: "above" 308 442 basechar 0
LayerCount: 2
Fore
SplineSet
15 305 m 0
 15 390 29 442 85 442 c 0
 114 442 163 428 193 367 c 1
 210 396 247 442 307 442 c 0
 399 442 485 346 485 215 c 0
 485 80 396 -11 306 -11 c 0
 282 -11 241 -4 202 50 c 1
 201 50 l 1
 201 -114 l 2
 201 -157 207 -163 274 -163 c 2
 279 -163 l 1
 279 -194 l 1
 242 -192 204 -192 167 -192 c 0
 129 -192 120 -191 73 -194 c 1
 73 -163 l 1
 83 -163 l 1
 118 -162 131 -161 131 -123 c 2
 131 320 l 2
 131 390 108 419 84 419 c 0
 80 419 75 418 71 416 c 0
 34 400 42 310 40 292 c 0
 38 277 25 275 19 282 c 0
 16 285 15 287 15 305 c 0
201 113 m 2
 201 74 252 12 304 12 c 0
 349 12 376 55 387 86 c 0
 402 127 402 172 402 215 c 0
 402 280 400 353 353 397 c 0
 338 411 321 419 303 419 c 0
 249 419 201 354 201 317 c 2
 201 113 l 2
EndSplineSet
EndChar

StartChar: q
Encoding: 113 113 120
Width: 500
Flags: HW
TeX: 430 194
HStem: -194 31<276 347.885 428.362 501> -11 23<214.287 291.166> 419 23<214.807 288.963>
VStem: 69 84<107.206 323.036> 353 70<-159.15 50 60.6394 370.581>
AnchorPoint: "affricate-below" 500 -194 basechar 0
AnchorPoint: "affricate-above" 500 694 basechar 0
AnchorPoint: "below" 246 -194 basechar 0
AnchorPoint: "above" 246 442 basechar 0
LayerCount: 2
Fore
SplineSet
69 215 m 0
 69 352 160 442 248 442 c 0
 292 442 329 417 359 373 c 1
 373 412 402 439 413 439 c 0
 423 439 423 426 423 412 c 2
 423 -120 l 2
 423 -157 434 -163 492 -163 c 2
 501 -163 l 1
 501 -194 l 1
 465 -192 428 -192 391 -192 c 0
 353 -192 314 -192 276 -194 c 1
 276 -163 l 1
 281 -163 l 2
 348 -163 353 -157 353 -114 c 2
 353 50 l 1
 335 25 300 -11 248 -11 c 0
 160 -11 69 78 69 215 c 0
153 216 m 0
 153 151 154 77 201 33 c 0
 216 19 234 12 252 12 c 0
 306 12 353 76 353 113 c 2
 353 317 l 2
 353 356 303 419 251 419 c 0
 201 419 176 366 168 344 c 0
 153 303 153 259 153 216 c 0
EndSplineSet
EndChar

StartChar: r
Encoding: 114 114 121
Width: 458
Flags: HW
TeX: 430 0
HStem: -11 21G<158.5 171.5> 419 23<261.369 365.783>
VStem: 15 21<278.324 376.417> 131 70<-8.39583 368.078> 338 92<320.897 398.125>
AnchorPoint: "affricate-below" 458 -194 basechar 0
AnchorPoint: "affricate-above" 458 694 basechar 0
AnchorPoint: "below" 166 0 basechar 0
AnchorPoint: "above" 202 442 basechar 0
LayerCount: 2
Fore
SplineSet
15 297 m 0
 15 360 18 442 85 442 c 0
 112 442 168 428 193 366 c 1
 214 401 239 442 308 442 c 0
 361 442 430 419 430 361 c 0
 430 333 408 314 384 314 c 0
 358 314 338 333 338 360 c 0
 338 387 358 401 373 405 c 1
 354 413 333 419 307 419 c 0
 225 419 201 328 201 304 c 2
 201 32 l 2
 201 -6 177 -11 166 -11 c 0
 151 -11 137 -2 133 13 c 0
 130 22 131 32 131 41 c 2
 131 307 l 2
 131 348 128 402 95 416 c 0
 85 420 75 419 66 413 c 0
 31 389 47 294 36 282 c 0
 34 279 31 278 28 278 c 0
 21 278 15 285 15 297 c 0
EndSplineSet
EndChar

StartChar: s
Encoding: 115 115 122
Width: 444
Flags: HW
TeX: 430 0
HStem: -11 22<156.421 286.941> 62 91<95 139.901> 298 75<288.66 323> 419 23<166.435 278.624>
VStem: 55 92<69.209 146.444> 83 42<297.633 392.086> 285 74<301.574 369.063> 345 42<51.5353 156.766>
DStem2: 187 272 179 211 0.96233 -0.271885<-56.635 172.846>
AnchorPoint: "affricate-below" 444 -194 basechar 0
AnchorPoint: "affricate-above" 444 694 basechar 0
AnchorPoint: "below" 223 0 basechar 0
AnchorPoint: "above" 220 442 basechar 0
LayerCount: 2
Fore
SplineSet
55 106 m 0
 55 136 76 153 101 153 c 0
 127 153 147 135 147 108 c 0
 147 92 137 62 97 62 c 2
 95 62 l 1
 104 52 139 11 223 11 c 0
 328 11 345 72 345 104 c 0xf9
 345 137 322 170 281 187 c 0
 252 199 209 203 179 211 c 0
 140 222 83 257 83 325 c 0
 83 373 112 442 220 442 c 0
 301 442 359 395 359 339 c 0
 359 307 335 298 322 298 c 0
 303 298 285 314 285 336 c 0xf6
 285 348 290 370 323 373 c 1
 310 389 282 419 220 419 c 0
 156 419 125 384 125 347 c 0
 125 317 146 285 187 272 c 0
 204 267 257 259 274 254 c 0
 325 240 387 199 387 124 c 0
 387 70 356 -11 223 -11 c 0xf5
 130 -11 55 36 55 106 c 0
EndSplineSet
EndChar

StartChar: t
Encoding: 116 116 123
Width: 361
Flags: HW
TeX: 614 0
ItalicCorrection: 40
HStem: -11 23<198.119 260.626> 400 30<-13 104 174 292>
VStem: 104 70<40.874 400 430 623.521> 318 27<85.0824 149.808>
AnchorPoint: "affricate-below" 361 -194 basechar 0
AnchorPoint: "affricate-above" 361 694 basechar 0
AnchorPoint: "below" 197 0 basechar 0
AnchorPoint: "above" 139 626 basechar 0
LayerCount: 2
Fore
SplineSet
-13 400 m 1
 -13 430 l 1
 104 430 l 1
 104 582 l 2
 104 621 127 626 139 626 c 0
 153 626 174 619 174 581 c 2
 174 430 l 1
 292 430 l 1
 292 400 l 1
 174 400 l 1
 174 123 l 2
 174 83 177 12 225 12 c 0
 244 12 298 24 318 127 c 0
 320 136 320 146 327 150 c 0
 335 155 345 150 345 138 c 0
 345 127 324 -11 222 -11 c 0
 187 -11 104 10 104 120 c 2
 104 400 l 1
 -13 400 l 1
EndSplineSet
EndChar

StartChar: u
Encoding: 117 117 124
Width: 583
Flags: HW
TeX: 430 0
ItalicCorrection: 40
HStem: -11 23<254.541 333.404 474.754 522.668> 419 23<79.7652 133.28>
VStem: 15 26<277.006 370.192> 131 70<69.5214 343.584> 147 69<174.716 399.867> 381 70<46.4464 427.221> 542 25<34.9778 147.859>
AnchorPoint: "ogonek" 497 0 basechar 0
AnchorPoint: "affricate-below" 583 -194 basechar 0
AnchorPoint: "affricate-above" 583 694 basechar 0
AnchorPoint: "below" 292 0 basechar 0
AnchorPoint: "above" 292 442 basechar 0
LayerCount: 2
Fore
SplineSet
15 296 m 0
 15 346 35 442 112 442 c 0
 171 442 216 391 216 337 c 0xee
 216 314 201 235 201 170 c 0
 201 39 256 12 293 12 c 0
 345 12 374 61 380 83 c 0
 383 92 381 103 381 112 c 2
 381 378 l 2
 381 388 381 398 384 407 c 0
 389 421 402 430 416 430 c 0
 454 430 451 388 451 382 c 2
 451 120 l 2
 451 26 480 12 499 12 c 0
 550 12 539 117 542 139 c 0
 544 152 556 156 563 148 c 0
 566 145 567 142 567 126 c 0
 567 41 553 -11 497 -11 c 0xf6
 429 -11 398 46 393 54 c 1
 371 15 341 -11 289 -11 c 0
 230 -11 131 19 131 173 c 0xf6
 131 245 147 317 147 353 c 0
 147 383 140 419 109 419 c 0
 82 419 46 394 41 303 c 0
 40 284 34 277 28 277 c 0
 22 277 15 285 15 296 c 0
EndSplineSet
EndChar

StartChar: v
Encoding: 118 118 125
Width: 500
Flags: HW
TeX: 430 0
HStem: -11 23<263.302 346.24> 419 23<80.2658 132.504>
VStem: 15 26<278.012 369.667> 132 70<73.7532 343.036> 147 69<175.532 400.721> 419 25<128.738 297.348>
AnchorPoint: "affricate-below" 500 -194 basechar 0
AnchorPoint: "affricate-above" 500 694 basechar 0
AnchorPoint: "below" 302 0 basechar 0
AnchorPoint: "above" 240 442 basechar 0
LayerCount: 2
Fore
SplineSet
15 295 m 0
 15 354 38 442 112 442 c 0
 175 442 216 388 216 336 c 0xec
 216 309 202 236 202 170 c 0
 202 41 264 12 305 12 c 0
 396 12 419 149 419 239 c 0
 419 256 418 305 369 350 c 0
 351 367 332 374 332 399 c 0
 332 418 349 442 374 442 c 0
 391 442 404 431 414 418 c 0
 432 394 444 359 444 252 c 0
 444 114 407 -11 302 -11 c 0
 241 -11 132 17 132 175 c 0xf4
 132 238 147 319 147 353 c 0
 147 383 140 419 109 419 c 0
 82 419 46 392 41 304 c 0
 40 294 41 278 28 278 c 0xec
 18 278 15 287 15 295 c 0
EndSplineSet
EndChar

StartChar: w
Encoding: 119 119 126
Width: 722
Flags: HW
TeX: 430 0
HStem: -11 23<265.333 346.24 498.084 581.714> 419 23<79.5984 132.562>
VStem: 15 26<278.01 367.622> 132 70<73.9174 343.56> 147 69<177.486 399.264> 367 70<91.3125 427.776> 554 98<364.299 424.866> 641 25<104.166 299.413>
AnchorPoint: "affricate-below" 722 -194 basechar 0
AnchorPoint: "affricate-above" 722 694 basechar 0
AnchorPoint: "below" 424 0 basechar 0
AnchorPoint: "above" 400 442 basechar 0
LayerCount: 2
Fore
SplineSet
15 296 m 0
 15 347 34 442 112 442 c 0
 166 442 216 395 216 336 c 0xec
 216 312 202 238 202 173 c 0
 202 40 267 12 311 12 c 0
 356 12 371 49 381 90 c 1
 371 118 367 146 367 180 c 2
 367 384 l 2
 367 400 369 430 402 430 c 0
 440 430 437 389 437 382 c 2
 437 186 l 2
 437 155 438 125 446 95 c 0
 456 59 484 12 541 12 c 0
 621 12 641 109 641 237 c 0xf5
 641 347 554 356 554 399 c 0
 554 418 571 442 596 442 c 0
 619 442 640 422 652 387 c 0xe6
 661 361 666 330 666 245 c 0
 666 95 641 -11 538 -11 c 0
 454 -11 415 33 397 57 c 1
 376 -2 339 -11 309 -11 c 0
 233 -11 132 26 132 176 c 0xf5
 132 238 147 318 147 354 c 0
 147 384 140 419 109 419 c 0
 82 419 46 391 41 302 c 0
 40 292 40 278 28 278 c 0
 18 278 15 285 15 296 c 0
EndSplineSet
EndChar

StartChar: x
Encoding: 120 120 127
Width: 508
Flags: HW
TeX: 430 0
ItalicCorrection: 40
HStem: -11 23<101.702 185.682 331.99 407.502> 419 23<99.9485 175.055 320.985 407.324>
VStem: 15 26<280.144 353.466> 42 91<31.3452 109.149> 218 70<64.7344 365.844> 411 54<393.552 410.359> 473 19<111.272 150.862>
AnchorPoint: "affricate-below" 508 -194 basechar 0
AnchorPoint: "affricate-above" 508 694 basechar 0
AnchorPoint: "below" 254 0 basechar 0
AnchorPoint: "above" 254 442 basechar 0
LayerCount: 2
Fore
SplineSet
15 295 m 0
 15 350 53 442 142 442 c 0
 169 442 228 432 268 365 c 1
 281 403 304 442 357 442 c 0
 404 442 465 415 465 361 c 0
 465 333 445 314 420 314 c 0
 395 314 374 333 374 360 c 0
 374 378 383 396 411 405 c 1
 411 406 l 1
 391 415 372 419 356 419 c 0
 329 419 288 403 288 309 c 2
 288 143 l 2
 288 108 290 70 312 41 c 0
 328 21 349 12 369 12 c 0
 402 12 435 35 453 76 c 0
 471 117 463 143 473 150 c 0
 480 155 492 152 492 136 c 0
 492 82 455 -11 365 -11 c 0
 354 -11 295 -9 253 44 c 1
 238 66 l 1
 227 26 201 -11 151 -11 c 0
 99 -11 42 18 42 69 c 0
 42 95 60 116 87 116 c 0
 112 116 133 97 133 70 c 0
 133 52 124 32 97 25 c 1
 117 16 135 12 151 12 c 0
 178 12 218 27 218 122 c 2
 218 159 l 2
 218 189 219 219 219 249 c 2
 219 284 l 2
 219 321 216 362 194 390 c 0
 183 403 166 419 139 419 c 0
 89 419 47 371 41 299 c 0
 40 291 39 283 34 280 c 0
 26 274 15 282 15 295 c 0
EndSplineSet
EndChar

StartChar: y
Encoding: 121 121 128
Width: 528
Flags: HW
TeX: 430 194
HStem: -206 23<212.572 305.243> -143 91<175 219.543> -11 23<254.706 333.315> 419 23<78.8904 132.706>
VStem: 15 26<278.049 368.474> 132 70<69.0814 343.129> 134 92<-135.31 -58.9609> 147 69<174.716 400.39> 381 70<-94.0961 34 45.214 427.575>
AnchorPoint: "affricate-below" 528 -194 basechar 0
AnchorPoint: "affricate-above" 528 694 basechar 0
AnchorPoint: "below" 245 -194 basechar 0
AnchorPoint: "above" 292 442 basechar 0
LayerCount: 2
Fore
SplineSet
15 296 m 0
 15 342 33 442 112 442 c 0
 167 442 216 396 216 336 c 0xf980
 216 315 202 235 202 170 c 0xfc80
 202 38 256 12 293 12 c 0
 344 12 373 59 379 81 c 0
 382 91 381 101 381 111 c 2
 381 387 l 2
 381 426 406 430 416 430 c 0
 455 430 451 385 451 383 c 2
 451 18 l 2
 451 2 451 -13 449 -29 c 0
 437 -120 367 -206 264 -206 c 0
 184 -206 134 -151 134 -99 c 0
 134 -69 156 -52 180 -52 c 0
 204 -52 226 -70 226 -97 c 0
 226 -113 217 -143 177 -143 c 2
 175 -143 l 1
 199 -168 225 -183 261 -183 c 0xfa80
 309 -183 381 -146 381 13 c 2
 381 34 l 1
 369 20 344 -11 289 -11 c 0
 230 -11 132 18 132 173 c 0xfc80
 132 245 147 317 147 353 c 0
 147 383 140 419 109 419 c 0
 82 419 47 397 41 301 c 0
 41 295 41 278 29 278 c 0
 18 278 15 287 15 296 c 0
EndSplineSet
EndChar

StartChar: z
Encoding: 122 122 129
Width: 444
Flags: HW
TeX: 430 0
ItalicCorrection: 12
HStem: -11 70<248.497 368.897> 63 23<137.768 198.178> 344 23<271.166 317.599> 372 69<109.232 220.056>
VStem: 70 23<317.015 346.526> 402 25<103.037 151.973>
AnchorPoint: "affricate-below" 444 -194 basechar 0
AnchorPoint: "affricate-above" 444 694 basechar 0
AnchorPoint: "below" 248 0 basechar 0
AnchorPoint: "above" 248 442 basechar 0
LayerCount: 2
Fore
SplineSet
70 333 m 0
 70 380 106 441 165 441 c 0
 225 441 255 367 303 367 c 0
 352 367 354 441 375 441 c 0
 383 441 385 436 385 430 c 0
 385 422 381 411 378 405 c 0
 325 279 210 193 137 81 c 1
 147 84 156 86 168 86 c 0
 216 86 256 59 304 59 c 0
 346 59 393 82 402 136 c 0
 404 148 410 152 415 152 c 0
 420 152 427 149 427 135 c 0
 427 76 385 -11 306 -11 c 0
 241 -11 217 63 165 63 c 0
 139 63 115 42 100 7 c 0
 97 1 93 -10 83 -10 c 0
 75 -10 72 -6 72 0 c 0
 72 8 76 19 79 25 c 0
 131 150 241 228 318 345 c 1
 312 344 307 344 302 344 c 0
 253 344 211 372 165 372 c 0
 99 372 93 323 93 323 c 1
 91 319 86 317 82 317 c 0
 76 317 70 322 70 333 c 0
EndSplineSet
EndChar

StartChar: braceleft
Encoding: 123 123 130
Width: 555
Flags: HW
TeX: 749 249
HStem: -250 23<386.634 452.974> 238 33<101.915 178.179> 721 29<367.704 452.408>
VStem: 242 70<-175.924 185.498 313.274 677.577>
LayerCount: 2
Fore
SplineSet
101 250 m 0
 101 267 126 257 163 271 c 0
 196 283 226 309 237 343 c 0
 241 355 242 369 242 384 c 2
 242 602 l 2
 242 627 242 643 253 665 c 0
 281 721 358 748 435 750 c 0
 443 750 453 749 453 739 c 0
 453 724 430 729 401 721 c 0
 318 697 312 633 312 613 c 2
 312 379 l 2
 312 366 315 280 193 250 c 1
 248 237 299 203 310 149 c 0
 312 138 312 126 312 114 c 2
 312 -103 l 2
 312 -117 312 -131 316 -145 c 0
 322 -165 349 -219 435 -227 c 0
 444 -228 453 -230 453 -239 c 0
 453 -243 450 -250 435 -250 c 0
 366 -250 259 -222 244 -137 c 0
 242 -127 242 -117 242 -107 c 2
 242 113 l 2
 242 213 159 234 122 238 c 0
 112 239 101 239 101 250 c 0
EndSplineSet
EndChar

StartChar: bar
Encoding: 124 124 131
Width: 333
Flags: HW
TeX: 749 249
VStem: 146 40<-248.989 748.986>
LayerCount: 2
Fore
SplineSet
146 -219 m 2
 146 720 l 2
 146 745 158 749 166 749 c 0
 185 749 186 730 186 719 c 2
 186 -219 l 2
 186 -234 182 -249 166 -249 c 0
 150 -249 146 -235 146 -219 c 2
EndSplineSet
EndChar

StartChar: braceright
Encoding: 125 125 132
Width: 555
Flags: HW
TeX: 749 249
HStem: -250 29<101.496 184.975> 229 33<375.407 452.086> 727 23<101.029 168.376>
VStem: 242 70<-176.172 187.092 312.229 675.924>
LayerCount: 2
Fore
SplineSet
101 -239 m 0
 101 -224 120 -230 152 -221 c 0
 235 -198 242 -133 242 -113 c 2
 242 115 l 2
 242 152 244 213 361 250 c 1
 241 286 242 354 242 385 c 2
 242 609 l 2
 242 633 235 716 118 727 c 0
 111 728 101 730 101 739 c 0
 101 744 104 750 119 750 c 0
 188 750 295 722 310 637 c 0
 312 627 312 617 312 607 c 2
 312 387 l 2
 312 293 384 266 432 262 c 0
 442 261 453 260 453 250 c 0
 453 233 428 243 391 229 c 0
 318 201 312 143 312 118 c 2
 312 -102 l 2
 312 -127 312 -144 301 -166 c 0
 273 -222 193 -250 119 -250 c 0
 111 -250 101 -249 101 -239 c 0
EndSplineSet
EndChar

StartChar: asciitilde
Encoding: 126 126 133
Width: 667
Flags: HW
TeX: 663 0
HStem: 574 46<343.328 497.977> 622 46<167.352 320.672>
LayerCount: 2
Fore
SplineSet
110 589 m 1
 132 614 167 668 235 668 c 0
 304 668 370 620 439 620 c 2
 440 620 l 2
 479 620 508 637 537 668 c 1
 554 653 l 1
 522 617 493 574 429 574 c 0
 360 574 294 622 225 622 c 2
 224 622 l 2
 185 622 156 605 127 574 c 1
 110 589 l 1
EndSplineSet
EndChar

StartChar: Abreve
Encoding: 258 258 135
Width: 805
Flags: HW
TeX: 891 0
HStem: 0 31<60 129.604 222.216 276 470 545.329 657.744 745> 228 31<260 486> 696 20<394 409.5> 753 38<328.28 476.976>
VStem: 253 22<852.579 891> 530 23<852.579 891>
DStem2: 178 115 250 228 0.326041 0.945356<-22.8781 130.3 162.867 506.95> 427 692 373 584 0.32858 -0.944476<84.2601 428.344 461.238 637.435>
AnchorPoint: "below" 402 0 basechar 0
AnchorPoint: "above" 402 860 basechar 0
LayerCount: 2
Fore
SplineSet
253 891 m 1
 275 891 l 1
 279 824 342 791 403 791 c 0
 456 791 526 819 530 891 c 1
 553 891 l 1
 550 803 477 753 403 753 c 0
 330 753 256 803 253 891 c 1
EndSplineSet
Refer: 72 65 S 1 0 0 1 0 0 3
AlternateSubs2: "Stilistic set 01 subtable" Abreve.vn
AlternateSubs2: "Latin alternatives subtable" Abreve.vn
Substitution2: "Latin Vietnamese substitutions subtable" Abreve.vn
EndChar

StartChar: Aogonek
Encoding: 260 260 136
Width: 805
Flags: HW
TeX: 688 194
HStem: -216 45<600.276 699.527> -0 31<60 129.604 222.216 276 470 545.329 657.744 745> 228 31<260 486> 696 20G<394 409.5>
VStem: 528 45<-143.937 -52.5172>
DStem2: 178 115 250 228 0.326041 0.945356<-22.8781 130.3 162.867 506.95> 427 692 373 584 0.32858 -0.944476<84.2601 428.344 461.238 637.435>
AnchorPoint: "above" 402 705 basechar 0
LayerCount: 2
Fore
SplineSet
60 -0 m 1
 60 31 l 1
 155 33 167 84 178 115 c 2
 377 692 l 2
 381 703 386 716 402 716 c 0
 417 716 422 706 427 692 c 2
 642 74 l 2
 656 33 674 31 740 31 c 2
 745 31 l 1
 745 -0 l 1
 657 3 l 2
 639 3 633 -1 611 -21 c 0
 591 -40 573 -65 573 -94 c 0
 573 -140 619 -171 656 -171 c 0
 711 -171 717 -115 732 -115 c 0
 734 -115 741 -117 741 -126 c 0
 741 -150 708 -216 636 -216 c 0
 579 -216 528 -175 528 -118 c 0
 528 -70 565 -26 602 2 c 1
 602 3 l 1
 470 -0 l 1
 470 31 l 1
 474 31 l 2
 491 31 552 31 552 60 c 0
 552 72 541 102 497 228 c 1
 250 228 l 1
 209 110 202 93 202 82 c 0
 202 67 213 33 276 31 c 1
 276 -0 l 1
 237 2 199 3 160 3 c 0
 120 3 90 2 60 -0 c 1
260 259 m 1
 486 259 l 1
 373 584 l 1
 260 259 l 1
EndSplineSet
Ligature2: "Latin ligatures subtable" A uni0328
EndChar

StartChar: Cacute
Encoding: 262 262 137
Width: 778
Flags: HW
TeX: 856 0
HStem: -22 31<364.669 522.86> 674 31<361.728 513.754> 787 75<464.583 538.242>
VStem: 83 103<221.037 465.737> 667 26<162.424 246.761 419.06 477.41>
AnchorPoint: "below" 432 0 basechar 0
AnchorPoint: "above" 431 842 basechar 0
LayerCount: 2
Fore
SplineSet
341 764 m 1
 496 860 495 862 510 862 c 0
 530 862 543 841 543 825 c 0
 543 795 505 789 500 787 c 0
 381 750 367 745 352 741 c 1
 341 764 l 1
EndSplineSet
Refer: 74 67 S 1 0 0 1 -0 -0 3
EndChar

StartChar: Ccaron
Encoding: 268 268 138
Width: 778
Flags: HW
TeX: 891 0
HStem: -22 31<364.669 522.86> 674 31<361.728 513.754>
VStem: 83 103<221.037 465.737> 667 26<162.424 246.761 419.06 477.41>
AnchorPoint: "below" 432 0 basechar 0
AnchorPoint: "above" 431 916 basechar 0
LayerCount: 2
Fore
SplineSet
291 919 m 1
 291 920 l 1
 303 936 l 1
 435 858 437 856 443 856 c 2
 444 856 l 2
 451 856 451 858 584 936 c 1
 596 920 l 1
 596 919 l 1
 444 790 l 1
 443 790 l 1
 291 919 l 1
EndSplineSet
Refer: 74 67 S 1 0 0 1 0 0 3
EndChar

StartChar: Dcaron
Encoding: 270 270 139
Width: 819
Flags: HW
TeX: 891 0
HStem: 0 31<62 157.55 254.06 483.739> 652 31<62 157.697 254.908 485.618>
VStem: 165 86<36.8618 646.155> 635 100<215.53 460.659>
AnchorPoint: "below" 374 0 basechar 0
AnchorPoint: "above" 374 938 basechar 0
LayerCount: 2
Fore
SplineSet
210 919 m 1
 210 920 l 1
 221 936 l 1
 353 858 356 856 362 856 c 2
 363 856 l 2
 370 856 370 858 503 936 c 1
 514 920 l 1
 514 919 l 1
 362 790 l 1
 210 919 l 1
EndSplineSet
Refer: 75 68 S 1 0 0 1 -0 0 3
EndChar

StartChar: Ecaron
Encoding: 282 282 140
Width: 736
Flags: HW
TeX: 891 0
HStem: 0 31<60 156.565 254.818 540.278> 338 31<252 418.855> 650 30<60 155.697 255.762 532.733>
VStem: 163 89<36.5918 338 369 644.112> 450 25<221 302.822 403.163 485>
AnchorPoint: "below" 370 0 basechar 0
AnchorPoint: "above" 370 941 basechar 0
LayerCount: 2
Fore
SplineSet
193 919 m 1
 193 920 l 1
 204 936 l 1
 336 858 339 856 345 856 c 2
 346 856 l 2
 353 856 353 858 486 936 c 1
 497 920 l 1
 497 919 l 1
 346 790 l 1
 345 790 l 1
 193 919 l 1
EndSplineSet
Refer: 76 69 S 1 0 0 1 -0 0 3
EndChar

StartChar: Eogonek
Encoding: 280 280 141
Width: 736
Flags: HW
TeX: 688 194
HStem: -216 45<504.665 604.781> -0 31<60 155.55 254.818 501.916> 338 31<252 418.855> 650 30<60 155.697 255.762 532.733>
VStem: 163 89<36.8618 338 369 644.112> 432 45<-143.099 -53.6998> 450 25<221 302.822 403.163 485>
AnchorPoint: "above" 342 705 basechar 0
LayerCount: 2
Fore
SplineSet
60 -0 m 1
 60 31 l 1
 72 31 l 2
 142 31 162 34 163 73 c 1
 163 607 l 2
 163 646 144 650 73 650 c 2
 60 650 l 1
 60 680 l 1
 623 680 l 1
 651 455 l 1
 626 455 l 1
 617 524 608 590 558 623 c 0
 520 648 464 650 404 650 c 2
 322 650 l 2
 265 650 253 650 252 614 c 1
 252 369 l 1
 332 369 l 2
 435 369 450 392 450 485 c 1
 475 485 l 1
 475 221 l 1
 450 221 l 1
 450 318 432 338 331 338 c 2
 252 338 l 1
 252 69 l 2xfa
 252 33 259 31 325 31 c 2
 418 31 l 2
 479 31 546 33 590 76 c 0
 632 117 644 199 654 258 c 1
 679 258 l 1
 637 -0 l 1
 558 -0 l 2
 540 0 534 -3 513 -23 c 0
 494 -41 477 -66 477 -93 c 0
 477 -133 515 -171 560 -171 c 0
 615 -171 622 -115 637 -115 c 0
 639 -115 642 -116 644 -118 c 0
 646 -120 646 -123 646 -127 c 0
 646 -152 611 -216 541 -216 c 0
 484 -216 432 -176 432 -119 c 0xfc
 432 -72 465 -32 503 -0 c 1
 60 -0 l 1
EndSplineSet
EndChar

StartChar: Gbreve
Encoding: 286 286 142
Width: 840
Flags: HW
TeX: 891 0
HStem: -22 31<364.38 526.689> 241 31<480 596.301 697.865 763> 674 31<369.97 545.505> 753 38<360.299 509.197>
VStem: 83 103<221.21 467.872> 283 23<852.579 891> 561 22<852.579 891> 604 89<61.7344 234.083> 656 37<535.533 597.38>
LayerCount: 2
Fore
SplineSet
83 341 m 0
 83 546 243 705 435 705 c 0
 508 705 570 688 619 657 c 1
 648 683 673 704 682 704 c 0
 689 704 694 698 694 683 c 0
 694 679 693 674 693 670 c 2
 693 556 l 2
 693 547 693 535 679 535 c 0
 662 535 662 550 656 567 c 0xfe80
 630 637 543 674 454 674 c 0
 322 674 253 582 234 550 c 0
 196 487 186 411 186 341 c 0
 186 79 343 9 448 9 c 0
 517 9 589 41 602 102 c 0
 604 113 604 123 604 134 c 2
 604 193 l 2xff
 604 234 597 241 493 241 c 2
 480 241 l 1
 480 272 l 1
 637 270 l 1
 684 270 l 1
 763 272 l 1
 763 241 l 1
 760 241 l 2
 707 241 693 238 693 199 c 2xff
 693 24 l 2
 693 10 691 2 684 2 c 0
 680 2 674 6 666 12 c 0
 648 27 633 44 621 64 c 1
 620 64 l 1
 586 4 510 -22 433 -22 c 0
 252 -22 83 129 83 341 c 0
283 891 m 1
 306 891 l 1
 310 824 373 791 434 791 c 0
 488 791 557 819 561 891 c 1
 583 891 l 1
 580 803 507 753 433 753 c 0xfe
 360 753 286 803 283 891 c 1
EndSplineSet
EndChar

StartChar: Lacute
Encoding: 313 313 143
Width: 680
Flags: HW
TeX: 856 0
HStem: 0 31<60 155.782 255.864 471.992> 652 31<60 155.697 261.161 380> 787 75<239.549 313.288>
VStem: 163 89<36.5 644.5>
LayerCount: 2
Fore
SplineSet
116 764 m 1
 271 860 269 862 284 862 c 0
 302 862 318 843 318 825 c 0
 318 795 280 789 275 787 c 0
 156 750 141 745 126 741 c 1
 116 764 l 1
EndSplineSet
Refer: 83 76 S 1 0 0 1 0 0 3
EndChar

StartChar: Lcaron
Encoding: 317 317 144
Width: 680
Flags: HW
TeX: 891 0
HStem: 0 31<60 155.782 255.864 471.992> 652 31<60 155.697 261.161 380> 672 106<448.021 533.633>
VStem: 163 89<36.5 644.5> 535 23<639.28 695>
LayerCount: 2
Fore
SplineSet
438 725 m 0
 438 754 460 778 491 778 c 0
 531 778 558 740 558 694 c 0
 558 603 483 545 465 545 c 0
 460 545 455 548 455 554 c 0
 455 565 477 573 497 596 c 0
 521 623 535 659 535 695 c 1
 525 683 511 672 491 672 c 0xb8
 462 672 438 693 438 725 c 0
EndSplineSet
Refer: 83 76 S 1 0 0 1 0 0 3
EndChar

StartChar: Lslash
Encoding: 321 321 145
Width: 680
Flags: HW
TeX: 688 0
HStem: 0 31<60 155.521 255.715 470.237> 652 31<60 156.025 260.098 380>
VStem: 163 89<36.9821 298 321.206 389.906 413 644.617>
DStem2: 70 262 90 238 0.769758 0.638336<0.0750985 93.5943 236.485 426.108>
LayerCount: 2
Fore
SplineSet
60 0 m 1
 60 31 l 1
 68 31 l 2
 144 31 163 34 163 76 c 2
 163 298 l 1
 90 238 l 1
 70 261 l 1
 70 262 l 1
 157 334 163 333 163 353 c 2
 163 607 l 2
 163 648 146 652 70 652 c 2
 60 652 l 1
 60 683 l 1
 104 681 148 680 206 680 c 0
 264 680 322 681 380 683 c 1
 380 652 l 1
 373 652 l 2
 262 652 252 647 252 603 c 2
 252 413 l 1
 398 534 l 1
 399 534 l 1
 418 510 l 1
 271 388 l 2
 253 373 252 372 252 349 c 2
 252 69 l 2
 252 33 267 31 304 31 c 2
 372 31 l 2
 556 31 571 139 584 258 c 1
 610 258 l 1
 582 0 l 1
 60 0 l 1
EndSplineSet
EndChar

StartChar: Nacute
Encoding: 323 323 146
Width: 805
Flags: HW
TeX: 856 0
HStem: 0 31<60 135.484 218.223 293> 652 31<60 161.686 510 584.995 668.362 743> 787 75<436.549 510.288>
VStem: 163 27<59.5887 626> 613 27<152 623.742>
DStem2: 613 152 191 626 0.563168 -0.826343<-629.343 0>
LayerCount: 2
Fore
SplineSet
313 764 m 1
 468 860 466 862 481 862 c 0
 499 862 515 843 515 825 c 0
 515 795 477 789 472 787 c 0
 353 750 338 745 323 741 c 1
 313 764 l 1
EndSplineSet
Refer: 85 78 S 1 0 0 1 0 0 3
EndChar

StartChar: Ncaron
Encoding: 327 327 147
Width: 805
Flags: HW
TeX: 891 0
HStem: 0 31<60 135.484 218.223 293> 652 31<60 161.686 510 584.995 668.362 743>
VStem: 163 27<59.5887 626> 613 27<152 623.742>
DStem2: 613 152 191 626 0.563168 -0.826343<-629.343 0>
LayerCount: 2
Fore
SplineSet
250 919 m 1
 250 920 l 1
 261 936 l 1
 393 858 396 856 402 856 c 2
 403 856 l 2
 410 856 410 858 543 936 c 1
 554 920 l 1
 554 919 l 1
 402 790 l 1
 401 790 l 1
 250 919 l 1
EndSplineSet
Refer: 85 78 S 1 0 0 1 -0 0 3
EndChar

StartChar: Eng
Encoding: 330 330 148
Width: 847
Flags: HW
TeX: 688 0
HStem: -22 23<518.816 609.604> -0 31<60 156.384 258.41 354> 59 110<462 514.94> 652 31<60 155.697> 679 31<382.206 528.273>
VStem: 163 89<36.5918 595.568 612 646.17> 415 111<70.0665 157.462> 673 89<67.9042 547.513>
LayerCount: 2
Fore
SplineSet
60 -0 m 1
 60 31 l 1
 74 31 l 2
 147 31 163 36 163 73 c 2
 163 609 l 2
 163 648 144 652 73 652 c 2
 60 652 l 1
 60 683 l 1
 177 680 l 1
 222 681 l 1
 252 683 l 1x77
 252 612 l 1
 269 631 342 710 477 710 c 0
 613 710 762 621 762 444 c 2
 762 155 l 2x2f
 762 24 651 -22 576 -22 c 0
 483 -22 415 42 415 111 c 0
 415 157 452 169 471 169 c 0
 503 169 526 145 526 114 c 0
 526 92 514 59 467 59 c 2
 462 59 l 1
 496 11 543 1 570 1 c 0
 606 1 673 29 673 158 c 2
 673 442 l 2
 673 481 670 514 651 553 c 0
 619 618 546 679 448 679 c 0xaf
 329 679 262 589 254 566 c 0
 252 561 252 555 252 549 c 2
 252 73 l 1
 253 37 265 31 341 31 c 2
 354 31 l 1
 354 -0 l 1
 305 2 256 3 207 3 c 0
 158 3 109 2 60 -0 c 1
EndSplineSet
EndChar

StartChar: Ohungarumlaut
Encoding: 336 336 149
Width: 833
Flags: HW
TeX: 856 0
HStem: -22 27<351.341 480.946> 680 25<350.623 481.09> 741 23<292.957 300.077 459.652 466.077> 787 75<409.549 483.288 575.583 649.288>
VStem: 83 103<212.043 467.518> 646 103<212.489 468.002>
AnchorPoint: "below" 416 0 basechar 0
AnchorPoint: "above" 416 842 basechar 0
LayerCount: 2
Fore
SplineSet
286 764 m 1
 441 860 439 862 454 862 c 0
 474 862 488 841 488 825 c 0
 488 795 450 789 445 787 c 0
 326 750 311 745 296 741 c 1
 286 764 l 1
452 764 m 1
 607 860 605 862 620 862 c 0
 640 862 654 841 654 825 c 0
 654 795 616 789 611 787 c 0
 492 750 478 745 463 741 c 1
 452 764 l 1
EndSplineSet
Refer: 86 79 S 1 0 0 1 -0 -0 3
EndChar

StartChar: Racute
Encoding: 340 340 150
Width: 791
Flags: HW
TeX: 856 0
HStem: -22 23<639.668 700.829> 0 31<62 157.904 257.975 354> 330 23<251 425.836> 652 31<62 158.565 253.947 456.645> 787 75<437.549 511.288>
VStem: 165 86<37.0356 330 353 646.071> 535 103<436.216 573.65> 737 23<49.4302 102.98>
AnchorPoint: "below" 332 0 basechar 0
AnchorPoint: "above" 332 864 basechar 0
LayerCount: 2
Fore
SplineSet
314 764 m 1
 469 860 467 862 482 862 c 0x3f
 500 862 516 843 516 825 c 0
 516 795 478 789 473 787 c 0
 354 750 339 745 324 741 c 1
 314 764 l 1
EndSplineSet
Refer: 89 82 S 1 0 0 1 0 0 3
EndChar

StartChar: Rcaron
Encoding: 344 344 151
Width: 791
Flags: HW
TeX: 891 0
HStem: -22 23<639.668 700.829> 0 31<62 157.904 257.975 354> 330 23<251 425.836> 652 31<62 158.565 253.947 456.645>
VStem: 165 86<37.0356 330 353 646.071> 535 103<436.216 573.65> 737 23<49.4302 102.98>
AnchorPoint: "below" 332 0 basechar 0
AnchorPoint: "above" 332 938 basechar 0
LayerCount: 2
Fore
SplineSet
194 919 m 1
 194 920 l 1
 205 936 l 1
 337 858 340 856 346 856 c 2x3e
 347 856 l 2
 354 856 354 858 487 936 c 1
 499 920 l 1
 499 919 l 1
 347 790 l 1
 346 790 l 1
 194 919 l 1
EndSplineSet
Refer: 89 82 S 1 0 0 1 0 0 3
EndChar

StartChar: Scaron
Encoding: 352 352 153
Width: 611
Flags: HW
TeX: 891 0
HStem: -22 31<237.235 390.842> 677 28<220.236 350.781>
VStem: 83 25<140.116 226.982> 83 60<473.165 601.837> 445 54<509.397 607.267> 466 60<88.9115 232.481>
DStem2: 233 420 213 333 0.967178 -0.254099<-61.7093 230.078>
AnchorPoint: "below" 328 0 basechar 0
AnchorPoint: "above" 279 916 basechar 0
LayerCount: 2
Fore
SplineSet
153 919 m 1
 153 920 l 1
 164 936 l 1
 296 858 299 856 305 856 c 2xc0
 306 856 l 2
 313 856 313 858 446 936 c 1
 457 920 l 1
 457 919 l 1
 305 790 l 1
 304 790 l 1
 153 919 l 1
EndSplineSet
Refer: 90 83 S 1 0 0 1 0 -0 3
EndChar

StartChar: Scedilla
Encoding: 350 350 154
Width: 611
Flags: HW
TeX: 688 170
HStem: -203 22<214 338.32> -71 80<299.339 361.591> -21 21G<93.5 98.5> 677 28<218.722 350.781>
VStem: 83 60<475.75 598.658> 83 25<140.116 226.982> 297 70<-59.032 -17.3075> 380 70<-160.815 -88.863> 445 54<509.397 607.267> 466 60<89.2402 232.392>
DStem2: 230 421 213 333 0.963751 -0.266804<-59.1246 240.085>
LayerCount: 2
Fore
SplineSet
83 5 m 2
 83 207 l 2
 83 221 89 227 95 227 c 0
 101 227 107 221 108 212 c 0
 111 161 120 113 164 69 c 0
 209 24 274 9 328 9 c 0
 412 9 466 79 466 154 c 0
 466 216 431 268 380 289 c 0xd740
 356 299 245 322 213 333 c 0
 147 356 83 422 83 514 c 0
 83 613 163 705 279 705 c 0
 374 705 418 655 437 635 c 1
 470 689 477 704 487 704 c 0
 499 704 499 690 499 679 c 2
 499 474 l 2
 499 466 496 457 486 457 c 0
 463 458 481 500 445 574 c 0xda80
 401 663 323 677 280 677 c 0
 195 677 143 611 143 545 c 0
 143 484 185 438 230 421 c 0
 254 412 364 389 396 378 c 0
 472 350 526 274 526 183 c 0
 526 84 461 0 367 -19 c 1
 367 -54 l 1
 379 -56 450 -69 450 -126 c 0
 450 -188 373 -203 228 -203 c 2
 214 -203 l 1
 214 -181 l 1xdb40
 247 -181 l 2
 293 -181 380 -177 380 -126 c 0
 380 -104 362 -74 297 -71 c 1xdb40
 297 -20 l 1
 222 -12 181 13 145 48 c 1
 114 -8 103 -21 94 -21 c 0xbb40
 93 -21 92 -20 91 -20 c 0
 82 -17 83 -6 83 5 c 2
EndSplineSet
EndChar

StartChar: Tcaron
Encoding: 356 356 155
Width: 778
Flags: HW
TeX: 891 0
HStem: 0 31<198 332.886 442.387 577> 647 30<160.902 338.795 436.375 617.447>
VStem: 63 25<452 530.75> 343 89<39.6344 644.732> 687 25<452 534.895>
CounterMasks: 1 38
AnchorPoint: "below" 388 0 basechar 0
AnchorPoint: "above" 388 944 basechar 0
LayerCount: 2
Fore
SplineSet
236 919 m 1
 236 920 l 1
 247 936 l 1
 379 858 382 856 388 856 c 2
 389 856 l 2
 396 856 396 858 529 936 c 1
 540 920 l 1
 540 919 l 1
 388 790 l 1
 387 790 l 1
 236 919 l 1
EndSplineSet
Refer: 91 84 S 1 0 0 1 -0 0 3
EndChar

StartChar: Tcommaaccent
Encoding: 354 354 156
Width: 778
Flags: HW
TeX: 688 170
HStem: -203 22<270 393.045> -0 31<198 332.886 442.387 577> 647 30<160.902 338.795 436.375 617.447>
VStem: 63 25<452 530.75> 343 89<39.6344 644.74> 353 70<-59.2973 3> 435 70<-161.037 -87.4293> 687 25<452 534.895>
LayerCount: 2
Fore
SplineSet
63 452 m 1
 83 677 l 1
 693 677 l 1
 712 452 l 1
 687 452 l 1
 674 594 664 647 523 647 c 2
 483 647 l 2
 451 647 432 645 432 609 c 2
 432 78 l 2xfb
 432 35 455 31 556 31 c 2
 577 31 l 1
 577 -0 l 1
 423 3 l 1
 423 -54 l 1
 436 -57 505 -68 505 -126 c 0
 505 -188 426 -203 283 -203 c 2
 270 -203 l 1
 270 -181 l 1
 302 -181 l 2
 349 -181 435 -178 435 -126 c 0
 435 -104 418 -74 353 -71 c 1
 353 3 l 1xf7
 198 -0 l 1
 198 31 l 1
 220 31 l 2
 321 31 343 35 343 78 c 2
 343 609 l 2
 343 645 325 647 292 647 c 2xfb
 253 647 l 2
 110 647 100 591 88 452 c 1
 63 452 l 1
EndSplineSet
EndChar

StartChar: Uhungarumlaut
Encoding: 368 368 157
Width: 805
Flags: HW
TeX: 856 0
HStem: -22 31<352.141 488.476> 652 31<60 156.158 258.639 354 507 582.5 668.11 743> 741 23<278.652 285.079 444.957 452.077> 787 75<394.583 468.242 561.549 635.288>
VStem: 163 89<131.635 646.036> 610 30<147.49 624.918>
AnchorPoint: "below" 416 0 basechar 0
AnchorPoint: "above" 402 864 basechar 0
LayerCount: 2
Fore
SplineSet
271 764 m 1
 426 860 425 862 440 862 c 0
 460 862 473 841 473 825 c 0
 473 795 435 789 430 787 c 0
 311 750 297 745 282 741 c 1
 271 764 l 1
438 764 m 1
 593 860 591 862 606 862 c 0
 626 862 640 841 640 825 c 0
 640 795 602 789 597 787 c 0
 478 750 463 745 448 741 c 1
 438 764 l 1
EndSplineSet
Refer: 92 85 S 1 0 0 1 0 -0 3
EndChar

StartChar: Uring
Encoding: 366 366 158
Width: 805
Flags: HW
TeX: 891 0
HStem: -22 31<352.141 488.476> 652 31<60 156.158 258.639 354 507 582.5 668.11 743> 730 23<386.757 474.82> 891 22<387.95 473.671>
VStem: 163 89<131.635 646.036> 335 25<777.804 866.33> 501 25<778.129 866.262> 610 30<147.49 624.918>
LayerCount: 2
Fore
SplineSet
335 822 m 0
 335 870 376 913 430 913 c 0
 479 913 526 876 526 821 c 0
 526 773 485 730 431 730 c 0
 382 730 335 767 335 822 c 0
360 822 m 0
 360 767 397 753 430 753 c 0
 487 753 501 789 501 822 c 0
 501 866 477 891 431 891 c 0
 374 891 360 855 360 822 c 0
EndSplineSet
Refer: 92 85 S 1 0 0 1 -0 0 3
EndChar

StartChar: Ydieresis
Encoding: 376 376 159
Width: 805
Flags: HW
TeX: 891 0
ItalicCorrection: 24
HStem: 0 31<256 352.704 452.569 548> 652 31<39 131.34 251.196 316 553 599.167 693.981 766> 733 105<263.387 347.097 457.133 541.229>
VStem: 253 105<744.197 828.34> 359 87<36.467 304.812> 447 105<743.352 827.588>
DStem2: 414 349 349 290 0.523194 -0.852213<-323.813 39.4391> 435 315 455 289 0.524266 0.851554<0 345.068>
CounterMasks: 1 1c
AnchorPoint: "below" 402 0 basechar 0
AnchorPoint: "above" 402 840 basechar 0
LayerCount: 2
Fore
SplineSet
253 786 m 0
 253 812 274 838 305 838 c 0
 333 838 358 817 358 786 c 0
 358 755 331 733 305 733 c 0
 274 733 253 759 253 786 c 0
447 786 m 0
 447 817 472 838 499 838 c 0
 530 838 552 812 552 785 c 0
 552 759 531 733 500 733 c 0
 472 733 447 755 447 786 c 0
EndSplineSet
Refer: 96 89 S 1 0 0 1 -0 0 3
EndChar

StartChar: Zacute
Encoding: 377 377 160
Width: 667
Flags: HW
TeX: 856 0
HStem: 0 33<186 455.345> 652 31<223.517 480> 787 75<381.549 455.288>
VStem: 97 25<458 539.359> 563 25<166.869 267>
DStem2: 95 44 186 33 0.534823 0.844964<39.3742 719.645>
AnchorPoint: "below" 336 0 basechar 0
AnchorPoint: "above" 336 864 basechar 0
LayerCount: 2
Fore
SplineSet
258 764 m 1
 413 860 411 862 426 862 c 0
 444 862 460 843 460 825 c 0
 460 795 422 789 417 787 c 0
 298 750 283 745 268 741 c 1
 258 764 l 1
EndSplineSet
Refer: 97 90 S 1 0 0 1 -0 0 3
EndChar

StartChar: Zcaron
Encoding: 381 381 161
Width: 667
Flags: HW
TeX: 891 0
HStem: 0 33<186 455.345> 652 31<223.517 480>
VStem: 97 25<458 539.359> 563 25<166.869 267>
DStem2: 95 44 186 33 0.534823 0.844964<39.3742 719.645>
AnchorPoint: "below" 336 0 basechar 0
AnchorPoint: "above" 336 938 basechar 0
LayerCount: 2
Fore
SplineSet
170 919 m 1
 170 920 l 1
 182 936 l 1
 314 858 317 856 323 856 c 0
 330 856 330 858 463 936 c 1
 475 920 l 1
 475 919 l 1
 323 790 l 1
 322 790 l 1
 170 919 l 1
EndSplineSet
Refer: 97 90 S 1 0 0 1 -0 0 3
EndChar

StartChar: IJ
Encoding: 306 306 163
Width: 916
Flags: HW
TeX: 688 0
HStem: -22 22<523.286 610.199> 0 31<56 156.582 260.752 361> 58 111<463 515.36> 652 31<56 156.738 260.671 361 543 668.128 768.059 840>
VStem: 164 89<37.0217 645.82> 416 111<69.692 157.773> 677 86<68.4105 644.625>
LayerCount: 2
Fore
SplineSet
56 0 m 1
 56 31 l 1
 73 31 l 2
 148 31 164 37 164 74 c 2
 164 609 l 2
 164 647 146 652 69 652 c 2
 56 652 l 1
 56 683 l 1
 100 682 144 680 202 680 c 0
 255 680 308 681 361 683 c 1
 361 652 l 1
 345 652 l 2
 268 652 254 646 253 609 c 1
 253 74 l 1
 254 37 268 31 347 31 c 2
 361 31 l 1
 361 0 l 1
 309 2 255 3 203 3 c 0
 144 3 100 1 56 0 c 1
416 111 m 0
 416 154 449 169 472 169 c 0
 501 169 527 147 527 114 c 0
 527 85 506 58 469 58 c 0
 467 58 465 59 463 59 c 1
 487 26 529 0 569 0 c 0
 612 0 677 33 677 155 c 2
 677 607 l 2
 677 649 655 652 561 652 c 2
 543 652 l 1
 543 683 l 1
 709 680 l 1
 758 680 l 1
 840 683 l 1
 840 652 l 1
 836 652 l 2
 772 652 763 647 763 608 c 2
 763 156 l 2
 763 14 638 -22 577 -22 c 0
 485 -22 416 40 416 111 c 0
EndSplineSet
Ligature2: "Latin Dutch ligatures subtable" I J
EndChar

StartChar: dcroat
Encoding: 273 273 165
Width: 555
Flags: HW
TeX: 688 0
ItalicCorrection: 40
HStem: -11 23<214.344 290.36 446.808 494.056> 419 23<214.298 289.317> 532 31<250 353 423 472> 652 31<276 345.446> 674 20G<276 423>
VStem: 69 84<107.206 322.819> 353 70<61.069 370.581 381 532 563 647.002> 517 22<48.2993 147.859>
LayerCount: 2
Fore
SplineSet
69 215 m 0
 69 351 159 442 248 442 c 0
 272 442 314 435 353 381 c 1
 353 532 l 1
 250 532 l 1
 250 563 l 1
 353 563 l 1
 353 571 354 580 354 588 c 2
 354 595 l 2
 354 648 340 652 276 652 c 1
 276 683 l 1xf7
 423 694 l 1xef
 423 563 l 1
 472 563 l 1
 472 532 l 1
 423 532 l 1
 423 118 l 2
 423 27 452 12 471 12 c 0
 526 12 508 133 517 147 c 0
 521 153 531 154 536 148 c 0
 538 145 539 142 539 126 c 0
 539 41 526 -11 470 -11 c 0
 443 -11 388 2 362 63 c 1
 345 34 308 -11 248 -11 c 0
 161 -11 69 78 69 215 c 0
153 216 m 0
 153 151 154 77 201 33 c 0
 216 19 233 12 251 12 c 0
 305 12 353 77 353 113 c 2
 353 317 l 2xe7
 353 356 303 419 251 419 c 0
 218 419 187 394 168 344 c 0
 153 303 153 259 153 216 c 0
EndSplineSet
AlternateSubs2: "Stilistic set 01 subtable" dcroat.vn
AlternateSubs2: "Latin alternatives subtable" dcroat.vn
Substitution2: "Latin Vietnamese substitutions subtable" dcroat.vn
EndChar

StartChar: section
Encoding: 167 167 166
Width: 500
Flags: HW
TeX: 688 194
HStem: -205 22<198.842 292.608> -118 69<143 177.85> 549 69<321.15 356> 683 22<206.392 299.958>
VStem: 97 41<205.089 329.303 501.734 624.827> 111 69<-112.829 -51.5391> 319 69<551.813 613.764> 361 41<-125.049 -1.27421 170.371 294.932>
LayerCount: 2
Fore
SplineSet
97 255 m 0
 97 324 139 370 179 392 c 1
 137 430 97 480 97 551 c 0
 97 636 164 705 250 705 c 0
 332 705 388 644 388 587 c 0
 388 557 365 549 353 549 c 0
 335 549 319 563 319 583 c 0xfa
 319 595 324 616 356 618 c 1
 328 674 275 683 251 683 c 0
 178 683 138 611 138 555 c 0
 138 475 245 450 289 425 c 0
 358 385 402 317 402 245 c 0
 402 176 360 130 320 108 c 1
 362 70 402 20 402 -51 c 0
 402 -137 335 -205 249 -205 c 0
 166 -205 111 -143 111 -86 c 0
 111 -56 134 -49 146 -49 c 0
 164 -49 180 -63 180 -83 c 0
 180 -95 175 -116 143 -118 c 1
 171 -174 224 -183 248 -183 c 0
 321 -183 361 -111 361 -55 c 0xf5
 361 27 253 50 210 75 c 0
 141 115 97 183 97 255 c 0
138 259 m 0
 138 181 233 157 279 134 c 0
 285 131 289 128 295 128 c 0xf9
 318 128 361 182 361 242 c 0
 361 319 270 341 220 366 c 0
 214 369 210 372 204 372 c 0
 181 372 138 316 138 259 c 0
EndSplineSet
EndChar

StartChar: aogonek
Encoding: 261 261 168
Width: 555
Flags: HW
TeX: 430 194
ItalicCorrection: 40
HStem: -216 41<421.449 524.94> -11 23<214.392 289.438 445.266 494.678> 419 23<214.633 289.775>
VStem: 69 84<107.646 322.819> 349 44<-149.074 -63.5367> 353 70<61.069 370.581 381 418.65> 514 25<34.1583 151.989>
AnchorPoint: "above" 248 442 basechar 0
LayerCount: 2
Fore
SplineSet
69 215 m 0
 69 351 159 442 249 442 c 0
 302 442 333 406 353 381 c 1
 354 417 377 421 388 421 c 0
 401 421 424 416 423 377 c 1
 423 114 l 2
 423 33 447 12 471 12 c 0
 505 12 513 58 514 118 c 1
 514 133 l 2
 514 141 516 152 527 152 c 0
 539 152 539 137 539 123 c 0
 539 23 516 -11 469 -11 c 0
 466 -11 463 -10 459 -10 c 1
 425 -37 393 -65 393 -102 c 0
 393 -145 438 -175 479 -175 c 0
 533 -175 538 -128 554 -128 c 0
 555 -128 556 -129 557 -129 c 0
 561 -131 563 -135 563 -139 c 0
 563 -154 535 -216 459 -216 c 0
 407 -216 349 -183 349 -126 c 0xfa
 349 -71 400 -28 431 -4 c 1
 400 7 375 32 362 63 c 1
 345 35 308 -11 249 -11 c 0
 159 -11 69 80 69 215 c 0
153 216 m 0
 153 151 154 77 201 33 c 0
 216 19 233 12 251 12 c 0
 305 12 353 77 353 113 c 2
 353 317 l 2xf6
 353 356 303 419 251 419 c 0
 218 419 187 394 168 344 c 0
 153 303 153 259 153 216 c 0
EndSplineSet
EndChar

StartChar: cacute
Encoding: 263 263 169
Width: 500
Flags: HW
TeX: 641 0
HStem: -11 22<234.966 344.443> 290 92<330.851 372> 419 23<235.237 333.686>
VStem: 69 84<117.371 316.111> 324 92<296.754 373.121>
AnchorPoint: "below" 279 0 basechar 0
AnchorPoint: "above" 276 622 basechar 0
LayerCount: 2
Fore
SplineSet
201 510 m 1
 332 638 331 642 350 642 c 0
 368 642 386 623 386 605 c 0
 386 581 376 581 216 490 c 1
 201 510 l 1
EndSplineSet
Refer: 106 99 S 1 0 0 1 0 0 3
EndChar

StartChar: ccaron
Encoding: 269 269 170
Width: 500
Flags: HW
TeX: 641 0
HStem: -11 22<234.966 344.443> 290 92<330.851 372> 419 23<235.237 333.686>
VStem: 69 84<117.371 316.111> 324 92<296.754 373.121>
AnchorPoint: "below" 279 0 basechar 0
AnchorPoint: "above" 276 627 basechar 0
LayerCount: 2
Fore
SplineSet
134 630 m 1
 134 632 l 1
 146 647 l 1
 286 552 l 1
 287 552 l 1
 427 647 l 1
 439 632 l 1
 439 630 l 1
 287 483 l 1
 286 483 l 1
 134 630 l 1
EndSplineSet
Refer: 106 99 S 1 0 0 1 -0 0 3
EndChar

StartChar: dcaron
Encoding: 271 271 171
Width: 555
Flags: HW
TeX: 688 0
ItalicCorrection: 40
HStem: -11 23<214.344 290.36 445.82 494.684> 419 23<214.298 289.317> 631 105<478.021 564.528> 652 31<276 345.243> 674 20<276 423>
VStem: 69 84<107.206 322.819> 353 70<61.069 370.581 381 647.189> 517 22<45.8172 147.859> 565 23<597.28 653>
LayerCount: 2
Fore
SplineSet
468 683 m 0xd780
 468 712 490 736 521 736 c 0xe780
 561 736 588 698 588 652 c 0xd780
 588 561 513 503 495 503 c 0
 490 503 485 507 485 513 c 0
 485 524 507 531 527 554 c 0
 551 581 565 617 565 653 c 1
 555 641 541 631 521 631 c 0xe780
 492 631 468 651 468 683 c 0xd780
EndSplineSet
Refer: 107 100 S 1 0 0 1 0 0 3
EndChar

StartChar: eogonek
Encoding: 281 281 173
Width: 500
Flags: HW
TeX: 430 194
HStem: -216 43<335.474 436.009> -11 22<238.855 330.194> 230 23<153 302.231> 419 23<230.455 324.614>
VStem: 69 84<130.008 230 253 327.22> 263 45<-147.135 -56.9366> 371 34<292.427 382.839>
AnchorPoint: "above" 274 442 basechar 0
LayerCount: 2
Fore
SplineSet
69 239 m 0
 69 362 172 442 275 442 c 0
 345 442 405 399 405 335 c 0
 405 231 264 230 169 230 c 2
 153 230 l 1
 154 174 158 115 189 67 c 0
 213 31 244 11 281 11 c 0
 335 11 396 34 435 80 c 0
 451 100 456 118 467 118 c 0
 474 118 479 112 479 106 c 0
 479 96 465 75 449 57 c 0
 408 13 308 -25 308 -97 c 0
 308 -143 353 -173 390 -173 c 0
 444 -173 453 -122 466 -118 c 0
 472 -117 478 -121 478 -129 c 0
 478 -146 447 -216 372 -216 c 0
 321 -216 263 -181 263 -121 c 0
 263 -75 297 -34 331 -7 c 1
 331 -6 l 1
 314 -9 296 -11 279 -11 c 0
 157 -11 69 108 69 239 c 0
153 253 m 1
 185 253 l 2
 259 253 371 257 371 335 c 0
 371 378 334 419 278 419 c 0
 226 419 186 384 168 341 c 0
 156 313 154 283 153 253 c 1
EndSplineSet
EndChar

StartChar: gbreve
Encoding: 287 287 174
Width: 500
Flags: HW
TeX: 641 194
HStem: -206 23<156.293 291.027> 0 22<217.539 288.684> 419 23<214.677 290.158> 503 38<174.348 324.067>
VStem: 69 84<116.246 326.958> 93 91<-168.032 -89.8974> 99 23<601.425 639> 353 70<-131.685 60 69.6589 372.498 382 418.363> 377 23<602.045 639>
LayerCount: 2
Fore
SplineSet
99 639 m 1
 122 639 l 1
 127 569 195 541 250 541 c 0
 301 541 372 567 377 639 c 1
 400 639 l 1
 397 555 327 503 250 503 c 0xf280
 178 503 102 551 99 639 c 1
EndSplineSet
Refer: 110 103 S 1 0 0 1 0 -0 3
EndChar

StartChar: lcaron
Encoding: 318 318 176
Width: 278
Flags: HW
TeX: 688 0
ItalicCorrection: 40
HStem: -11 23<170.328 218.12> 631 105<201.66 287.528> 652 31<-1 68.7245> 674 20<-1 147>
VStem: 77 70<39.3355 646.776> 238 25<35.8505 152.974> 288 23<597.28 653>
LayerCount: 2
Fore
SplineSet
192 683 m 0xae
 192 712 213 736 244 736 c 0xce
 284 736 311 698 311 652 c 0xae
 311 561 237 503 219 503 c 0
 214 503 208 507 208 513 c 0
 208 524 231 531 251 554 c 0
 275 581 288 617 288 653 c 1
 278 641 264 631 244 631 c 0xce
 215 631 192 651 192 683 c 0xae
EndSplineSet
Refer: 115 108 S 1 0 0 1 0 -0 3
EndChar

StartChar: lslash
Encoding: 322 322 177
Width: 347
Flags: HW
TeX: 688 0
ItalicCorrection: 40
HStem: -11 23<182.869 231.157> 652 31<12 81.2426> 674 20G<12 160>
VStem: 90 70<39.6628 306 328.846 381.496 404 646.373> 251 25<35.4476 148.81>
DStem2: 12 282 32 258 0.769924 0.638135<0.0832343 73.5946 193.697 288.34>
AnchorPoint: "above" 125 694 basechar 0
LayerCount: 2
Fore
SplineSet
12 282 m 1
 85 343 90 342 90 362 c 2
 90 590 l 2
 90 647 78 652 12 652 c 1
 12 683 l 1xd8
 160 694 l 1
 160 404 l 1
 234 466 l 1
 235 466 l 1
 254 443 l 1
 254 442 l 1
 159 363 161 368 160 350 c 1
 160 123 l 2
 160 91 161 12 208 12 c 0
 254 12 251 101 251 129 c 0
 251 143 256 153 263 153 c 0
 265 153 268 152 271 149 c 0
 275 145 276 138 276 131 c 0
 276 50 266 -11 206 -11 c 0xb8
 175 -11 90 8 90 119 c 2
 90 306 l 1
 32 258 l 1
 12 282 l 1
EndSplineSet
EndChar

StartChar: nacute
Encoding: 324 324 178
Width: 611
Flags: HW
TeX: 641 0
ItalicCorrection: 40
HStem: -11 23<477.373 530.329> 418 24<58.7839 108.426 276.243 367.813>
VStem: 15 20<278.295 368.511> 131 70<-8.09778 354.001> 394 69<31.933 272.226> 409 70<87.3288 374.402> 569 26<61.6671 149.857>
LayerCount: 2
Fore
SplineSet
242 510 m 1
 375 639 372 642 391 642 c 0
 410 642 427 623 427 605 c 0xf2
 427 581 418 581 258 490 c 1
 257 490 l 1
 242 510 l 1
EndSplineSet
Refer: 117 110 S 1 0 0 1 -0 0 3
EndChar

StartChar: eng
Encoding: 331 331 180
Width: 611
Flags: HW
TeX: 430 194
ItalicCorrection: 40
HStem: -206 23<299.954 359.702> -11 21G<158 184> 418 24<59.897 108.922 276.371 368.04>
VStem: 131 70<-8.05605 356.197> 394 72<-120.265 270.27> 409 70<42.3249 372.796>
AnchorPoint: "affricate-below" 611 -194 basechar 0
AnchorPoint: "affricate-above" 611 694 basechar 0
AnchorPoint: "below" 304 -194 basechar 0
AnchorPoint: "above" 304 442 basechar 0
LayerCount: 2
Fore
SplineSet
15 299 m 0
 15 358 17 442 85 442 c 0
 120 442 175 422 197 355 c 1
 216 390 251 442 332 442 c 0
 400 442 479 408 479 274 c 0xf4
 479 194 466 141 466 96 c 2
 466 79 l 2
 466 -45 460 -206 343 -206 c 0
 293 -206 246 -173 246 -126 c 0
 246 -100 264 -79 291 -79 c 0
 315 -79 337 -97 337 -125 c 0
 337 -133 336 -162 298 -170 c 1
 298 -171 l 1
 314 -179 328 -183 338 -183 c 0
 372 -183 391 -137 394 50 c 1
 394 84 l 2xf8
 394 129 409 181 409 278 c 0
 409 344 393 419 329 419 c 0
 242 419 207 335 202 303 c 0
 200 293 201 283 201 273 c 2
 201 34 l 2
 201 26 202 -11 166 -11 c 0
 150 -11 137 1 133 14 c 0
 130 23 131 34 131 44 c 2
 131 308 l 2
 131 346 128 418 83 418 c 0
 34 418 43 319 40 291 c 0
 39 282 33 278 27 278 c 0xf4
 15 278 15 291 15 299 c 0
EndSplineSet
EndChar

StartChar: sacute
Encoding: 347 347 184
Width: 444
Flags: HW
TeX: 641 0
HStem: -11 22<154.458 291.498> 62 91<95 139.901> 298 75<288.66 323> 419 23<161.329 278.392> 490 152
VStem: 55 92<69.209 146.444> 83 42<295.926 395.406> 158 185 285 74<301.574 368.186> 345 42<46.1133 155.969>
AnchorPoint: "below" 223 0 basechar 0
AnchorPoint: "above" 220 622 basechar 0
LayerCount: 2
Fore
SplineSet
55 106 m 0
 55 136 76 153 101 153 c 0
 127 153 147 135 147 108 c 0
 147 92 137 62 97 62 c 2
 95 62 l 1
 114 41 147 11 224 11 c 0
 312 11 345 48 345 103 c 0xfc40
 345 154 300 179 279 188 c 0
 251 199 208 203 178 211 c 0
 139 222 83 257 83 326 c 0
 83 367 99 442 218 442 c 0
 307 442 359 392 359 339 c 0
 359 307 335 298 322 298 c 0
 303 298 285 314 285 336 c 0xfa80
 285 348 290 371 323 373 c 1
 308 391 282 419 219 419 c 0
 138 419 125 375 125 345 c 0
 125 267 224 267 273 254 c 0
 324 240 387 199 387 123 c 0
 387 69 365 -11 225 -11 c 0xfa40
 130 -11 55 36 55 106 c 0
EndSplineSet
Refer: 9 180 S 1 0 0 1 -84 0 2
EndChar

StartChar: scaron
Encoding: 353 353 185
Width: 444
Flags: HW
TeX: 641 0
HStem: -11 22<154.458 292.787> 62 91<95 139.901> 298 75<288.66 323> 419 23<160.875 277.97>
VStem: 55 92<69.209 146.444> 83 42<298.882 396.876> 285 74<301.574 367.815> 345 42<45.3035 152.638>
AnchorPoint: "below" 223 0 basechar 0
AnchorPoint: "above" 220 627 basechar 0
LayerCount: 2
Fore
SplineSet
55 106 m 0
 55 136 76 153 101 153 c 0
 127 153 147 135 147 108 c 0
 147 92 137 62 97 62 c 2
 95 62 l 1
 114 41 147 11 224 11 c 0
 312 11 345 47 345 101 c 0xf9
 345 133 325 164 283 182 c 0
 220 209 83 212 83 328 c 0
 83 369 98 442 217 442 c 0
 306 442 359 391 359 339 c 0
 359 307 335 298 322 298 c 0
 303 298 285 314 285 336 c 0xf6
 285 348 290 371 323 373 c 1
 308 391 282 419 219 419 c 0
 138 419 125 376 125 347 c 0
 125 269 230 270 299 241 c 0
 328 228 387 193 387 121 c 0xf5
 387 68 365 -11 225 -11 c 0
 130 -11 55 36 55 106 c 0
69 630 m 1
 69 632 l 1
 81 647 l 1
 221 552 l 1
 222 552 l 1xf0
 362 647 l 1
 374 632 l 1
 374 630 l 1
 222 483 l 1
 221 483 l 1
 69 630 l 1
EndSplineSet
EndChar

StartChar: scedilla
Encoding: 351 351 186
Width: 444
Flags: HW
TeX: 430 170
HStem: -203 22<103 227.227> -71 82<188.044 250.93> -9 20<158.508 186 256 288.408> 62 91<95 140.062> 298 75<288.66 323> 419 23<161.108 278.392>
VStem: 55 92<68.896 146.246> 83 42<296.1 395.406> 186 70<-59.032 -6.8584> 269 70<-161.377 -88.863> 285 74<301.574 368.186> 345 42<47.434 154.893>
DStem2: 181 274 178 211 0.965795 -0.259306<-51.4706 177.22>
LayerCount: 2
Fore
SplineSet
55 105 m 0
 55 133 74 153 101 153 c 0
 128 153 147 132 147 107 c 0
 147 92 139 62 95 62 c 1
 114 41 147 11 224 11 c 0
 312 11 345 48 345 103 c 0xded0
 345 154 300 179 279 188 c 0
 251 199 208 203 178 211 c 0
 139 222 83 257 83 326 c 0
 83 367 99 442 218 442 c 0
 307 442 359 392 359 339 c 0
 359 307 335 298 322 298 c 0
 303 298 285 314 285 336 c 0xdda0
 285 348 290 371 323 373 c 1
 308 391 282 419 219 419 c 0
 137 419 125 375 125 345 c 0
 125 306 156 283 181 274 c 0
 199 267 257 258 276 253 c 0
 322 240 387 202 387 123 c 0
 387 78 371 3 256 -10 c 1
 256 -54 l 1
 268 -56 339 -69 339 -126 c 0
 339 -201 220 -203 116 -203 c 2
 103 -203 l 1
 103 -181 l 1xddd0
 135 -181 l 2
 182 -181 269 -178 269 -126 c 0
 269 -104 251 -74 186 -71 c 1xddd0
 186 -9 l 1xbdd0
 81 5 55 72 55 105 c 0
EndSplineSet
EndChar

StartChar: tcaron
Encoding: 357 357 187
Width: 361
Flags: HW
TeX: 688 0
ItalicCorrection: 40
HStem: -11 23<198.119 260.003> 400 30<-13 104 174 292> 592 105<249.021 335.528>
VStem: 104 70<40.874 400 430 623.521> 318 27<81.627 149.808> 336 23<558.28 614>
LayerCount: 2
Fore
SplineSet
-13 400 m 1
 -13 430 l 1
 104 430 l 1
 104 581 l 2
 104 619 125 626 139 626 c 0
 153 626 174 619 174 581 c 2
 174 430 l 1
 292 430 l 1
 292 400 l 1
 174 400 l 1
 174 123 l 2
 174 83 177 12 225 12 c 0
 244 12 298 24 318 127 c 0
 320 136 320 146 327 150 c 0
 334 154 345 151 345 138 c 0xf8
 345 117 320 -11 222 -11 c 0
 187 -11 104 10 104 120 c 2
 104 400 l 1
 -13 400 l 1
239 644 m 0
 239 673 261 697 292 697 c 0
 332 697 359 659 359 613 c 0
 359 522 284 464 266 464 c 0
 261 464 256 468 256 474 c 0
 256 485 278 492 298 515 c 0
 322 542 336 578 336 614 c 1
 326 602 312 592 292 592 c 0xf4
 263 592 239 612 239 644 c 0
EndSplineSet
EndChar

StartChar: tcommaaccent
Encoding: 355 355 188
Width: 361
Flags: HW
TeX: 614 170
ItalicCorrection: 40
HStem: -203 22<104 228.227> -71 83<189.088 254.035> 400 30<-13 104 174 292>
VStem: 104 70<39.7742 400 430 622.733> 187 70<-59.032 2.85664> 270 70<-161.377 -88.863> 322 23<100.281 151.98>
LayerCount: 2
Fore
SplineSet
-13 400 m 1
 -13 430 l 1
 104 430 l 1
 104 582 l 2
 104 619 125 625 139 625 c 0
 153 625 174 619 174 581 c 2
 174 430 l 1
 292 430 l 1
 292 400 l 1
 174 400 l 1
 174 117 l 2
 174 73 180 12 225 12 c 0
 304 12 319 139 322 145 c 0
 324 149 329 152 334 152 c 0
 339 152 345 148 345 138 c 0xfa
 345 126 328 23 257 -5 c 1
 257 -54 l 1
 269 -56 340 -69 340 -126 c 0
 340 -201 222 -203 118 -203 c 2
 104 -203 l 1
 104 -181 l 1xfc
 136 -181 l 2
 183 -181 270 -178 270 -126 c 0xfc
 270 -104 252 -74 187 -71 c 1
 187 -6 l 1
 109 23 104 87 104 115 c 2
 104 400 l 1
 -13 400 l 1
EndSplineSet
EndChar

StartChar: uhungarumlaut
Encoding: 369 369 189
Width: 583
Flags: HW
TeX: 641 0
ItalicCorrection: 40
HStem: -11 23<260.522 332.073 474.663 522.668> 419 23<79.7652 132.466>
VStem: 15 26<277.006 370.192> 131 70<94.0031 333.377> 147 69<173.188 398.972> 381 70<47.8425 427.098> 542 25<34.9778 147.859>
AnchorPoint: "below" 292 0 basechar 0
AnchorPoint: "above" 292 622 basechar 0
LayerCount: 2
Fore
SplineSet
15 296 m 0
 15 346 35 442 112 442 c 0
 173 442 216 389 216 335 c 0xee
 216 300 201 290 201 242 c 2
 201 229 l 2xf6
 201 170 209 12 294 12 c 0
 348 12 381 70 381 110 c 2
 381 379 l 2
 381 389 381 399 384 408 c 0
 389 422 402 430 416 430 c 0
 454 430 451 386 451 382 c 2
 451 112 l 2
 451 29 480 12 499 12 c 0
 550 12 539 116 542 139 c 0
 544 152 557 156 564 148 c 0
 566 145 567 142 567 126 c 0
 567 41 553 -11 497 -11 c 0
 473 -11 423 -1 393 56 c 1
 392 56 l 1
 372 17 340 -11 290 -11 c 0
 226 -11 131 24 131 241 c 0xf6
 131 297 147 299 147 351 c 0
 147 382 141 419 109 419 c 0
 82 419 46 394 41 303 c 0
 40 284 34 277 28 277 c 0
 22 277 15 285 15 296 c 0
173 510 m 1
 304 638 303 642 322 642 c 0
 341 642 357 623 357 605 c 0
 357 581 348 581 188 490 c 1
 173 510 l 1
339 510 m 1
 472 639 470 642 489 642 c 0
 508 642 524 623 524 605 c 0xe6
 524 581 515 581 355 490 c 1
 354 490 l 1
 339 510 l 1
EndSplineSet
EndChar

StartChar: uring
Encoding: 367 367 190
Width: 583
Flags: HW
TeX: 641 0
ItalicCorrection: 40
HStem: -11 23<249.434 333.133 474.754 522.668> 419 23<79.7652 132.562> 500 22<236.656 344.166> 638 23<235.864 345.957>
VStem: 15 26<277.005 369.124> 131 70<63.4756 342.906> 147 69<172.578 399.822> 196 25<536.234 624.338> 361 26<535.547 625.125> 381 70<46.2166 427.221> 542 25<34.9778 147.859>
LayerCount: 2
Fore
SplineSet
15 295 m 0
 15 344 35 442 112 442 c 0
 166 442 216 396 216 336 c 0xfa20
 216 305 201 246 201 166 c 0
 201 114 205 12 292 12 c 0
 345 12 373 60 380 84 c 0
 382 93 381 103 381 112 c 2
 381 378 l 2
 381 388 381 398 384 407 c 0
 389 421 402 430 416 430 c 0
 454 430 451 388 451 382 c 2
 451 120 l 2xfc60
 451 26 480 12 499 12 c 0
 550 12 539 117 542 139 c 0
 544 152 556 156 563 148 c 0
 566 145 567 142 567 126 c 0
 567 41 553 -11 497 -11 c 0
 429 -11 398 46 393 54 c 1
 362 -3 319 -11 288 -11 c 0
 194 -11 131 40 131 172 c 0xfc60
 131 245 147 317 147 353 c 0
 147 383 140 419 109 419 c 0
 82 419 46 394 41 303 c 0
 40 284 34 277 28 277 c 0
 22 277 15 284 15 295 c 0
196 581 m 0
 196 645 242 661 291 661 c 0
 342 661 387 644 387 579 c 0
 387 531 360 500 292 500 c 0
 243 500 196 514 196 581 c 0
221 580 m 0
 221 527 246 522 288 522 c 2
 289 522 l 2
 334 522 361 524 361 580 c 0
 361 621 352 638 293 638 c 0xf9a0
 240 638 221 630 221 580 c 0
EndSplineSet
EndChar

StartChar: ydieresis
Encoding: 255 255 191
Width: 528
Flags: HW
TeX: 641 194
HStem: -206 23<212.572 305.243> -143 91<175 219.543> -11 23<250.228 333.77> 419 23<78.3898 132.562> 553 106<124.079 207.779 318.133 402.436>
VStem: 15 26<278.049 368.95> 113 106<564.197 647.803> 132 70<61.9177 343.041> 134 92<-135.31 -58.9609> 147 69<171.989 399.822> 308 105<563.021 648.229> 381 70<-94.0961 34 45.7893 427.575>
AnchorPoint: "below" 245 -194 basechar 0
AnchorPoint: "above" 292 639 basechar 0
LayerCount: 2
Fore
SplineSet
15 296 m 0
 15 336 30 442 112 442 c 0
 166 442 216 396 216 336 c 0xfc40
 216 311 202 242 202 166 c 0xfd
 202 96 214 12 292 12 c 0
 344 12 372 57 379 81 c 0
 382 91 381 101 381 111 c 2
 381 387 l 2
 381 426 406 430 416 430 c 0
 455 430 451 385 451 383 c 2
 451 18 l 2
 451 2 451 -13 449 -29 c 0
 437 -120 367 -206 264 -206 c 0
 184 -206 134 -151 134 -99 c 0
 134 -69 156 -52 180 -52 c 0
 204 -52 226 -70 226 -97 c 0xfc90
 226 -113 217 -143 177 -143 c 2
 175 -143 l 1
 199 -168 225 -183 261 -183 c 0
 309 -183 381 -146 381 13 c 2
 381 34 l 1
 369 19 344 -11 288 -11 c 0
 207 -11 132 27 132 171 c 0xfd10
 132 244 147 317 147 353 c 0
 147 383 140 419 109 419 c 0
 82 419 47 397 41 301 c 0
 41 295 41 278 29 278 c 0
 18 278 15 287 15 296 c 0
308 606 m 0
 308 637 333 659 360 659 c 0
 387 659 413 637 413 606 c 0
 413 583 396 553 361 553 c 0xfc20
 333 553 308 575 308 606 c 0
EndSplineSet
Refer: 53 46 S 1 0 0 1 0 553 2
EndChar

StartChar: zcaron
Encoding: 382 382 193
Width: 444
Flags: HW
TeX: 641 0
ItalicCorrection: 12
HStem: -11 70<248.497 368.897> 63 23<137.768 198.178> 344 23<271.166 317.599> 372 69<109.232 220.056>
VStem: 70 23<317.015 346.526> 402 25<103.037 151.973>
AnchorPoint: "below" 248 0 basechar 0
AnchorPoint: "above" 248 628 basechar 0
LayerCount: 2
Fore
SplineSet
82 630 m 1
 82 632 l 1
 94 647 l 1
 234 552 l 1
 235 552 l 1
 375 647 l 1
 387 632 l 1
 387 630 l 1
 235 483 l 1
 234 483 l 1
 82 630 l 1
EndSplineSet
Refer: 129 122 S 1 0 0 1 0 -0 3
EndChar

StartChar: zdotaccent
Encoding: 380 380 194
Width: 444
Flags: HW
TeX: 663 0
ItalicCorrection: 12
HStem: -11 70<248.497 368.897> 63 23<137.768 198.178> 344 23<271.166 317.599> 372 69<109.232 220.056> 570 91<196.436 273.564>
VStem: 70 23<317.015 346.526> 189 92<577.411 653.781> 402 25<103.037 151.973>
AnchorPoint: "below" 248 0 basechar 0
AnchorPoint: "above" 248 642 basechar 0
LayerCount: 2
Fore
SplineSet
189 615 m 0
 189 639 209 661 235 661 c 0
 263 661 281 638 281 615 c 0
 281 594 262 570 235 570 c 0
 208 570 189 591 189 615 c 0
EndSplineSet
Refer: 129 122 S 1 0 0 1 0 0 3
EndChar

StartChar: ij
Encoding: 307 307 195
Width: 611
Flags: HW
TeX: 663 194
ItalicCorrection: 40
HStem: -206 23<335.531 414.512> -11 23<199.864 253.807> 419 23<79.9214 132.419 377.592 441.157> 570 91<127.851 204.828 449.436 526.564>
VStem: 15 27<278.015 372.17> 117 69<31.8111 261.999> 121 91<576.946 654.014> 147 69<171.775 399.822> 277 92<-167.242 -90.205> 298 19<99.8942 151.614 282.284 326.609> 442 92<577.549 653.781> 464 70<-132.029 391.682>
LayerCount: 2
Fore
SplineSet
15 296 m 0
 15 345 35 442 112 442 c 0
 165 442 216 396 216 336 c 0xf9
 216 307 186 116 186 77 c 0
 186 47 193 12 224 12 c 0
 237 12 279 19 290 108 c 0
 292 126 291 145 298 150 c 0
 300 152 302 152 305 152 c 0
 311 152 317 146 317 130 c 0
 317 90 300 -11 221 -11 c 0
 163 -11 117 39 117 95 c 0xfc40
 117 125 147 315 147 353 c 0xf9
 147 383 140 419 109 419 c 0
 96 419 53 411 42 322 c 0
 39 292 42 278 28 278 c 0
 22 278 15 283 15 296 c 0
121 615 m 0
 121 639 140 661 166 661 c 0
 194 661 212 638 212 615 c 0xfa
 212 594 194 570 167 570 c 0
 140 570 121 592 121 615 c 0
277 -129 m 0
 277 -99 301 -83 324 -83 c 0
 349 -83 369 -102 369 -129 c 0
 369 -152 355 -166 335 -173 c 1
 350 -180 365 -183 377 -183 c 0
 429 -183 453 -132 460 -97 c 0
 465 -76 464 -55 464 -33 c 2
 464 307 l 2
 464 345 463 419 414 419 c 0
 334 419 320 291 314 283 c 0
 310 278 302 277 297 282 c 0
 292 288 294 298 295 306 c 0
 307 370 344 442 417 442 c 0
 453 442 534 417 534 313 c 2
 534 -42 l 2xf890
 534 -176 428 -206 379 -206 c 0
 324 -206 277 -175 277 -129 c 0
442 615 m 0
 442 639 462 661 488 661 c 0
 516 661 534 638 534 615 c 0
 534 594 515 570 488 570 c 0xf820
 461 570 442 592 442 615 c 0
EndSplineSet
Ligature2: "Latin Dutch ligatures subtable" i j
EndChar

StartChar: exclamdown
Encoding: 161 161 196
Width: 333
Flags: HW
TeX: 499 194
HStem: 394 106<125.079 208.779>
VStem: 113 106<-206.306 85.7656> 114 106<405.197 488.803>
LayerCount: 2
Fore
SplineSet
113 -165 m 0
 113 -152 115 -138 117 -121 c 2
 151 280 l 2
 153 297 155 313 165 313 c 0
 167 313 168 312 170 311 c 0
 179 308 179 297 180 289 c 2
 217 -143 l 2
 218 -150 219 -157 219 -164 c 0
 219 -201 189 -216 166 -216 c 0xc0
 139 -216 113 -197 113 -165 c 0
EndSplineSet
Refer: 53 46 S 1 0 0 1 1 394 2
EndChar

StartChar: questiondown
Encoding: 191 191 197
Width: 555
Flags: HW
TeX: 499 194
HStem: -216 22<226.528 331.026> -22 91<385.328 441.681> 290 23<239.38 300.553> 394 106<235.079 318.779>
VStem: 110 42<-131 -11.3088> 182 25<209.133 257.055> 224 106<405.197 488.803> 317 43<193.414 280.526> 379 91<-12.269 62.4436>
LayerCount: 2
Fore
SplineSet
110 -51 m 0
 110 32 165 73 193 98 c 0
 309 204 317 204 317 238 c 0
 317 265 300 290 274 290 c 0
 252 290 215 274 207 225 c 0
 205 214 199 209 193 209 c 0
 187 209 182 214 182 226 c 0xfd80
 182 263 221 313 275 313 c 0
 328 313 360 263 360 216 c 0
 360 164 327 138 317 129 c 0
 193 15 152 -8 152 -74 c 0
 152 -141 209 -194 277 -194 c 0
 374 -194 430 -101 442 -20 c 1
 436 -22 429 -22 424 -22 c 0
 394 -22 379 1 379 24 c 0
 379 51 400 69 424 69 c 0
 442 69 470 59 470 18 c 0
 470 -88 401 -216 277 -216 c 0
 184 -216 110 -144 110 -51 c 0
EndSplineSet
Refer: 53 46 S 1 0 0 1 111 394 2
EndChar

StartChar: sterling
Encoding: 163 163 198
Width: 694
Flags: HW
TeX: 688 0
HStem: -11 44<417.497 567.678> -11 23<132.477 206.875> 94 45<130.031 254.86> 332 31<187.192 270 340 451.807> 475 91<525.481 579.318> 684 23<403.74 494.116>
VStem: 83 37<19.4231 79.9729> 270 70<128.408 332 363 609.019> 519 91<481.841 556.65> 611 26<87.3869 145.856>
LayerCount: 2
Fore
SplineSet
83 48 m 0
 83 100 136 139 202 139 c 0
 228 139 249 132 268 127 c 1
 271 157 270 189 270 221 c 2
 270 332 l 1
 209 332 l 2
 192 332 184 337 184 346 c 0
 184 349 185 353 187 356 c 0
 191 364 201 363 209 363 c 2
 270 363 l 1
 270 510 l 2
 270 640 360 707 443 707 c 0
 550 707 610 608 610 525 c 0
 610 485 581 475 564 475 c 0
 539 475 519 494 519 520 c 0
 519 547 537 566 565 566 c 0
 570 566 575 565 580 564 c 1
 559 645 500 684 446 684 c 0
 404 684 377 656 363 633 c 0
 340 595 340 550 340 507 c 2
 340 363 l 1
 430 363 l 2
 447 363 453 356 453 348 c 0
 453 345 453 343 452 340 c 0
 448 331 437 332 429 332 c 2
 340 332 l 1
 340 187 l 2
 340 154 337 135 326 101 c 1
 384 73 440 33 504 33 c 0
 565 33 603 77 611 122 c 0
 612 128 613 148 624 148 c 0
 626 148 628 148 631 146 c 0
 637 143 637 135 637 132 c 0
 637 72 586 -11 491 -11 c 0xbfc0
 425 -11 357 32 303 60 c 1
 252 -6 189 -11 167 -11 c 0
 117 -11 83 12 83 48 c 0
120 48 m 0
 120 22 148 12 167 12 c 0
 203 12 237 37 256 81 c 1
 224 93 203 94 189 94 c 0x7fc0
 152 94 120 76 120 48 c 0
EndSplineSet
EndChar

StartChar: Agrave
Encoding: 192 192 199
Width: 805
Flags: HW
TeX: 856 0
HStem: 0 31<60 129.604 222.216 276 470 545.329 657.744 745> 228 31<260 486> 696 20<394 409.5> 787 75<265.05 339.437>
DStem2: 178 115 250 228 0.326041 0.945356<-22.8781 130.3 162.867 506.95> 427 692 373 584 0.32858 -0.944476<84.2601 428.344 461.238 637.435>
AnchorPoint: "below" 402 0 basechar 0
AnchorPoint: "above" 402 831 basechar 0
LayerCount: 2
Fore
SplineSet
261 825 m 0
 261 845 278 862 295 862 c 0
 309 862 307 861 463 764 c 1
 453 741 l 1
 438 745 423 750 304 787 c 0
 284 793 261 799 261 825 c 0
EndSplineSet
Refer: 72 65 S 1 0 0 1 0 0 3
AlternateSubs2: "Stilistic set 01 subtable" Agrave.vn
AlternateSubs2: "Latin alternatives subtable" Agrave.vn
Substitution2: "Latin Vietnamese substitutions subtable" Agrave.vn
EndChar

StartChar: Aacute
Encoding: 193 193 200
Width: 805
Flags: HW
TeX: 856 0
HStem: 0 31<60 129.604 222.216 276 470 545.329 657.744 745> 228 31<260 486> 696 20<394 409.5> 787 75<437.549 511.288>
DStem2: 178 115 250 228 0.326041 0.945356<-22.8781 130.3 162.867 506.95> 427 692 373 584 0.32858 -0.944476<84.2601 428.344 461.238 637.435>
AnchorPoint: "below" 402 0 basechar 0
AnchorPoint: "above" 402 831 basechar 0
LayerCount: 2
Fore
SplineSet
314 764 m 1
 469 860 467 862 482 862 c 0
 500 862 516 843 516 825 c 0
 516 795 478 789 473 787 c 0
 354 750 339 745 324 741 c 1
 314 764 l 1
EndSplineSet
Refer: 72 65 S 1 0 0 1 0 0 3
AlternateSubs2: "Stilistic set 01 subtable" Aacute.vn
AlternateSubs2: "Latin alternatives subtable" Aacute.vn
Substitution2: "Latin Vietnamese substitutions subtable" Aacute.vn
EndChar

StartChar: Atilde
Encoding: 195 195 202
Width: 805
Flags: HW
TeX: 891 0
HStem: 0 31<60 129.604 222.216 276 470 545.329 657.744 745> 228 31<260 486> 696 20<394 409.5> 807 46<400.289 551.75> 845 46<253.625 404.711>
DStem2: 178 115 250 228 0.326041 0.945356<-22.8781 130.3 162.867 506.95> 427 692 373 584 0.32858 -0.944476<84.2601 428.344 461.238 637.435>
AnchorPoint: "below" 402 0 basechar 0
AnchorPoint: "above" 402 860 basechar 0
LayerCount: 2
Fore
SplineSet
208 822 m 1
 239 857 262 891 318 891 c 0xe8
 378 891 437 853 497 853 c 2
 498 853 l 2xf0
 533 853 555 866 579 891 c 1xe8
 597 877 l 1
 597 876 l 1
 567 842 543 807 487 807 c 0xf0
 427 807 368 845 308 845 c 2
 307 845 l 2xe8
 272 845 250 832 226 807 c 1xf0
 208 822 l 1
EndSplineSet
Refer: 72 65 S 1 0 0 1 0 0 3
AlternateSubs2: "Stilistic set 01 subtable" Atilde.vn
AlternateSubs2: "Latin alternatives subtable" Atilde.vn
Substitution2: "Latin Vietnamese substitutions subtable" Atilde.vn
EndChar

StartChar: Adieresis
Encoding: 196 196 203
Width: 805
Flags: HW
TeX: 891 0
HStem: 0 31<60 129.604 222.216 276 470 545.329 657.744 745> 228 31<260 486> 696 20<394 409.5> 733 105<263.387 347.097 457.133 541.229>
VStem: 253 105<744.197 828.34> 447 105<743.352 827.588>
DStem2: 178 115 250 228 0.326041 0.945356<-22.8781 130.3 162.867 506.95> 427 692 373 584 0.32858 -0.944476<84.2601 428.344 461.238 637.435>
AnchorPoint: "below" 402 0 basechar 0
AnchorPoint: "above" 402 807 basechar 0
LayerCount: 2
Fore
SplineSet
253 786 m 0
 253 812 274 838 305 838 c 0
 333 838 358 817 358 786 c 0
 358 755 331 733 305 733 c 0
 274 733 253 759 253 786 c 0
447 786 m 0
 447 817 472 838 499 838 c 0
 530 838 552 812 552 785 c 0
 552 759 531 733 500 733 c 0
 472 733 447 755 447 786 c 0
EndSplineSet
Refer: 72 65 S 1 0 0 1 -0 0 3
EndChar

StartChar: Aring
Encoding: 197 197 204
Width: 805
Flags: HW
TeX: 856 0
HStem: -0 31<60 128.165 222.216 276 470 545.329 657.217 745> 228 31<260 486> 891 22<363.212 440.858>
VStem: 307 25<749.465 858.611> 473 25<749.383 856.961>
DStem2: 179 120 250 228 0.327504 0.94485<-27.8783 125.297 157.862 501.946> 448 631 373 584 0.32825 -0.944591<19.777 363.861 396.754 572.953>
LayerCount: 2
Fore
SplineSet
60 -0 m 1
 60 31 l 1
 157 33 167 84 179 120 c 2
 356 629 l 2
 364 652 372 674 379 697 c 1
 321 716 307 772 307 804 c 0
 307 870 354 913 403 913 c 0
 457 913 498 862 498 804 c 0
 498 772 484 716 426 697 c 1
 433 675 440 653 448 631 c 2
 636 90 l 2
 655 36 656 31 743 31 c 2
 745 31 l 1
 745 -0 l 1
 707 2 667 3 616 3 c 0
 567 3 519 2 470 -0 c 1
 470 31 l 1
 474 31 l 2
 491 31 552 31 552 60 c 0
 552 72 541 102 497 228 c 1
 250 228 l 1
 209 110 202 93 202 82 c 0
 202 67 213 33 276 31 c 1
 276 -0 l 1
 237 2 199 3 160 3 c 0
 120 3 90 2 60 -0 c 1
260 259 m 1
 486 259 l 1
 373 584 l 1
 260 259 l 1
332 805 m 0
 332 730 375 717 403 717 c 0
 431 717 473 731 473 803 c 0
 473 878 430 891 402 891 c 0
 374 891 332 877 332 805 c 0
EndSplineSet
EndChar

StartChar: AE
Encoding: 198 198 205
Width: 958
Flags: HW
TeX: 688 0
HStem: 0 31<60 129.143 222.23 276 367 438.54 531.322 769.281> 313 31<294 444 527 683.434> 652 31<286 371 530.322 767.44>
VStem: 444 83<34.8578 313 344 644.041> 714 26<197 280.011 379.071 460>
DStem2: 182 125 283 313 0.338149 0.941092<16.6293 211.078 243.972 558.925>
AnchorPoint: "below" 481 0 basechar 0
AnchorPoint: "above" 486 705 basechar 0
LayerCount: 2
Fore
SplineSet
60 0 m 1
 60 31 l 1
 159 33 167 86 182 125 c 2
 371 651 l 1
 286 652 l 1
 286 683 l 1
 846 683 l 1
 874 458 l 1
 849 458 l 1
 831 596 819 652 662 652 c 2
 592 652 l 2
 538 652 527 651 527 613 c 2
 527 344 l 1
 602 344 l 2
 651 344 702 346 711 408 c 0
 714 425 714 442 714 460 c 1
 740 460 l 1
 740 197 l 1
 714 197 l 1
 714 288 702 313 602 313 c 2
 527 313 l 1
 527 68 l 1
 528 33 543 31 579 31 c 2
 669 31 l 2
 838 31 852 109 877 258 c 1
 902 258 l 1
 860 0 l 1
 367 0 l 1
 367 31 l 1
 372 31 l 2
 430 31 443 35 444 71 c 1
 444 313 l 1
 283 313 l 1
 271 277 202 96 202 81 c 0
 202 61 219 33 276 31 c 1
 276 -0 l 1
 237 2 199 3 160 3 c 0
 120 3 90 2 60 0 c 1
294 344 m 1
 444 344 l 1
 444 606 l 2
 444 636 432 644 404 649 c 1
 294 344 l 1
EndSplineSet
EndChar

StartChar: Ccedilla
Encoding: 199 199 206
Width: 778
Flags: HW
TeX: 688 170
HStem: -203 22<315 439.227> -71 80<398.373 465.035> -20 29<362.327 398 468 521.021> 674 31<362.721 514.826>
VStem: 83 103<215.708 465.605> 398 70<-59.032 -17.861> 481 70<-161.377 -88.863> 667 26<164.798 247.808 422.19 479.647>
AnchorPoint: "above" 430 705 basechar 0
LayerCount: 2
Fore
SplineSet
83 342 m 0
 83 555 253 705 431 705 c 0
 517 705 577 663 615 619 c 1
 669 697 672 703 681 703 c 0
 692 703 693 691 693 682 c 2
 693 440 l 2
 693 433 692 426 686 422 c 0
 681 419 672 418 667 423 c 0
 656 433 667 455 640 522 c 0
 603 615 530 674 442 674 c 0
 347 674 260 614 219 524 c 0
 193 466 186 401 186 341 c 0
 186 62 358 9 444 9 c 0xdf
 561 9 658 101 667 225 c 0
 667 234 668 244 674 248 c 0
 677 250 679 251 681 251 c 0
 688 251 693 243 693 227 c 0
 693 142 619 -1 468 -20 c 1
 468 -54 l 1
 480 -56 551 -69 551 -126 c 0
 551 -201 433 -203 330 -203 c 2
 315 -203 l 1
 315 -181 l 1xbf
 347 -181 l 2
 394 -181 481 -178 481 -126 c 0
 481 -104 463 -74 398 -71 c 1xdf
 398 -20 l 1xbf
 203 5 83 167 83 342 c 0
EndSplineSet
EndChar

StartChar: Egrave
Encoding: 200 200 207
Width: 736
Flags: HW
TeX: 856 0
HStem: 0 31<60 156.565 254.818 540.278> 338 31<252 418.855> 650 30<60 155.697 255.762 532.733> 787 75<264.05 338.437>
VStem: 163 89<36.5918 338 369 644.112> 450 25<221 302.822 403.163 485>
AnchorPoint: "below" 370 0 basechar 0
AnchorPoint: "above" 370 867 basechar 0
LayerCount: 2
Fore
SplineSet
260 825 m 0
 260 845 277 862 294 862 c 0
 308 862 306 861 462 764 c 1
 452 741 l 1
 437 745 422 750 303 787 c 0
 282 793 260 799 260 825 c 0
EndSplineSet
Refer: 76 69 S 1 0 0 1 -0 0 3
AlternateSubs2: "Stilistic set 01 subtable" Egrave.vn
AlternateSubs2: "Latin alternatives subtable" Egrave.vn
Substitution2: "Latin Vietnamese substitutions subtable" Egrave.vn
EndChar

StartChar: Eacute
Encoding: 201 201 208
Width: 736
Flags: HW
TeX: 856 0
HStem: -0 31<60 156.565 254.818 540.278> 338 31<252 418.855> 650 30<60 155.697 255.762 532.733> 787 75<450.549 524.288>
VStem: 163 89<36.5918 338 369 644.112> 450 25<221 302.822 403.163 485>
AnchorPoint: "below" 370 0 basechar 0
AnchorPoint: "above" 370 867 basechar 0
LayerCount: 2
Fore
SplineSet
327 764 m 1
 482 860 480 862 495 862 c 0
 515 862 529 841 529 825 c 0
 529 795 491 789 486 787 c 0
 367 750 352 745 337 741 c 1
 327 764 l 1
EndSplineSet
Refer: 76 69 S 1 0 0 1 0 -0 3
AlternateSubs2: "Stilistic set 01 subtable" Eacute.vn
AlternateSubs2: "Latin alternatives subtable" Eacute.vn
Substitution2: "Latin Vietnamese substitutions subtable" Eacute.vn
EndChar

StartChar: Ecircumflex
Encoding: 202 202 209
Width: 736
Flags: HW
TeX: 891 0
HStem: 0 31<60 156.565 254.818 540.278> 338 31<252 418.855> 650 30<60 155.697 255.762 532.733>
VStem: 163 89<36.5918 338 369 644.112> 450 25<221 302.822 403.163 485>
AnchorPoint: "below" 370 0 basechar 0
AnchorPoint: "above" 370 907 basechar 0
LayerCount: 2
Fore
SplineSet
240 761 m 1
 373 902 l 1
 374 902 l 1
 507 761 l 1
 490 743 l 1
 374 849 l 1
 373 849 l 1
 258 743 l 1
 240 761 l 1
EndSplineSet
Refer: 76 69 S 1 0 0 1 0 0 3
AlternateSubs2: "Stilistic set 01 subtable" Ecircumflex.vn
AlternateSubs2: "Latin alternatives subtable" Ecircumflex.vn
Substitution2: "Latin Vietnamese substitutions subtable" Ecircumflex.vn
EndChar

StartChar: Edieresis
Encoding: 203 203 210
Width: 736
Flags: HW
TeX: 891 0
HStem: 0 31<60 156.565 254.818 540.278> 338 31<252 418.855> 650 30<60 155.697 255.762 532.733> 733 105<234.462 318.613 429.078 513.309>
VStem: 163 89<36.5918 338 369 644.112> 224 105<743.412 827.588> 419 105<743.836 827.229> 450 25<221 302.822 403.163 485>
AnchorPoint: "below" 370 0 basechar 0
AnchorPoint: "above" 370 843 basechar 0
LayerCount: 2
Fore
SplineSet
224 786 m 0
 224 817 250 838 277 838 c 0
 308 838 329 812 329 785 c 0
 329 754 303 733 277 733 c 0xf4
 245 733 224 759 224 786 c 0
EndSplineSet
Refer: 18 729 S 1 0 0 1 292 170 2
Refer: 76 69 S 1 0 0 1 0 0 3
EndChar

StartChar: Idieresis
Encoding: 207 207 214
Width: 417
Flags: HW
TeX: 891 0
HStem: 0 31<55 155.761 259.205 360> 652 31<55 156.025 259.944 360> 733 105<68.3867 152.538 262.462 346.305>
VStem: 58 105<743.771 827.927> 163 89<37.3586 645.47> 252 105<743.412 827.613>
CounterMasks: 1 1c
AnchorPoint: "below" 208 0 basechar 0
AnchorPoint: "above" 208 840 basechar 0
LayerCount: 2
Fore
SplineSet
58 785 m 0
 58 812 79 838 110 838 c 0
 142 838 163 813 163 786 c 0
 163 755 137 733 111 733 c 0
 80 733 58 758 58 785 c 0
252 786 m 0
 252 817 277 838 304 838 c 0
 336 838 357 812 357 786 c 0
 357 759 335 733 305 733 c 0
 273 733 252 759 252 786 c 0
EndSplineSet
Refer: 80 73 S 1 0 0 1 0 0 3
EndChar

StartChar: Eth
Encoding: 208 208 215
Width: 819
Flags: HW
TeX: 688 0
HStem: -0 31<62 158.087 254.47 483.739> 320 30<64.1897 165 251 439.991> 652 31<62 158.025 254.562 483.622>
VStem: 165 86<36.7945 320 350 645.964> 635 100<215.53 460.659>
LayerCount: 2
Fore
SplineSet
62 -0 m 1
 62 31 l 1
 75 31 l 2
 151 31 165 37 165 76 c 2
 165 320 l 1
 88 320 l 2
 70 320 62 326 62 334 c 0
 62 337 63 339 64 342 c 0
 68 350 75 351 93 351 c 2
 111 351 l 2
 129 351 147 350 165 350 c 1
 165 607 l 2
 165 648 148 652 72 652 c 2
 62 652 l 1
 62 683 l 1
 412 683 l 2
 470 683 517 677 575 641 c 0
 676 579 735 461 735 337 c 0
 735 150 605 19 464 2 c 0
 448 0 430 0 414 -0 c 2
 62 -0 l 1
251 67 m 1
 252 32 262 31 322 31 c 2
 395 31 l 2
 519 31 577 101 602 151 c 0
 629 206 635 272 635 328 c 2
 635 344 l 2
 635 419 626 498 581 561 c 0
 561 590 507 652 395 652 c 2
 317 652 l 2
 266 652 252 652 251 616 c 1
 251 350 l 1
 418 350 l 2
 428 350 440 349 440 335 c 0
 440 320 428 320 417 320 c 2
 251 320 l 1
 251 67 l 1
EndSplineSet
EndChar

StartChar: Ntilde
Encoding: 209 209 216
Width: 805
Flags: HW
TeX: 891 0
HStem: -0 31<60 135.484 218.223 293> 652 31<60 161.686 510 584.995 668.362 743> 807 46<399.289 550.75> 845 46<252.625 403.711>
VStem: 163 27<59.5887 626> 613 27<152 623.742>
DStem2: 613 152 191 626 0.563168 -0.826343<-629.343 0>
LayerCount: 2
Fore
SplineSet
207 822 m 1
 238 857 261 891 317 891 c 0xdc
 377 891 436 853 496 853 c 2
 497 853 l 2xec
 532 853 554 866 578 891 c 1xdc
 596 877 l 1
 596 876 l 1
 566 842 542 807 486 807 c 0xec
 426 807 367 845 307 845 c 2
 306 845 l 2xdc
 271 845 249 832 225 807 c 1xec
 207 822 l 1
EndSplineSet
Refer: 85 78 S 1 0 0 1 -0 -0 3
EndChar

StartChar: Ograve
Encoding: 210 210 217
Width: 833
Flags: HW
TeX: 856 0
HStem: -22 27<351.341 480.946> 680 25<350.623 481.09> 787 75<306.05 380.437>
VStem: 83 103<212.043 467.518> 646 103<212.489 468.002>
AnchorPoint: "below" 416 0 basechar 0
AnchorPoint: "above" 416 842 basechar 0
LayerCount: 2
Fore
SplineSet
302 825 m 0
 302 845 319 862 336 862 c 0
 350 862 348 861 504 764 c 1
 494 741 l 1
 479 745 464 750 345 787 c 0
 325 793 302 799 302 825 c 0
EndSplineSet
Refer: 86 79 S 1 0 0 1 -0 0 3
AlternateSubs2: "Stilistic set 01 subtable" Ograve.vn
AlternateSubs2: "Latin alternatives subtable" Ograve.vn
Substitution2: "Latin Vietnamese substitutions subtable" Ograve.vn
EndChar

StartChar: Oacute
Encoding: 211 211 218
Width: 833
Flags: HW
TeX: 856 0
HStem: -22 27<351.341 480.946> 680 25<350.623 481.09> 787 75<450.583 524.242>
VStem: 83 103<212.043 467.518> 646 103<212.489 468.002>
AnchorPoint: "below" 416 0 basechar 0
AnchorPoint: "above" 416 842 basechar 0
LayerCount: 2
Fore
SplineSet
327 764 m 1
 482 860 481 862 496 862 c 0
 516 862 529 841 529 825 c 0
 529 795 491 789 486 787 c 0
 367 750 353 745 338 741 c 1
 327 764 l 1
EndSplineSet
Refer: 86 79 S 1 0 0 1 -0 -0 3
AlternateSubs2: "Stilistic set 01 subtable" Oacute.vn
AlternateSubs2: "Latin alternatives subtable" Oacute.vn
Substitution2: "Latin Vietnamese substitutions subtable" Oacute.vn
EndChar

StartChar: Ocircumflex
Encoding: 212 212 219
Width: 833
Flags: HW
TeX: 891 0
HStem: -22 27<351.341 480.946> 680 25<350.623 481.09>
VStem: 83 103<212.043 467.518> 646 103<212.489 468.002>
AnchorPoint: "below" 416 0 basechar 0
AnchorPoint: "above" 416 882 basechar 0
LayerCount: 2
Fore
SplineSet
283 761 m 1
 283 762 l 1
 416 902 l 1
 550 762 l 1
 550 761 l 1
 532 743 l 1
 416 849 l 1
 300 743 l 1
 283 761 l 1
EndSplineSet
Refer: 86 79 S 1 0 0 1 -0 -0 3
AlternateSubs2: "Stilistic set 01 subtable" Ocircumflex.vn
AlternateSubs2: "Latin alternatives subtable" Ocircumflex.vn
Substitution2: "Latin Vietnamese substitutions subtable" Ocircumflex.vn
EndChar

StartChar: Otilde
Encoding: 213 213 220
Width: 833
Flags: HW
TeX: 891 0
HStem: -22 27<351.341 480.946> 680 25<350.623 481.09> 807 46<413.289 564.75> 845 46<268 418.711>
VStem: 83 103<212.043 467.518> 646 103<212.489 468.002>
AnchorPoint: "below" 416 0 basechar 0
AnchorPoint: "above" 416 871 basechar 0
LayerCount: 2
Fore
SplineSet
222 822 m 1
 253 858 277 891 332 891 c 0xdc
 392 891 451 853 511 853 c 2
 512 853 l 2xec
 547 853 569 866 593 891 c 1xdc
 610 877 l 1
 610 876 l 1
 580 842 556 807 500 807 c 0xec
 440 807 381 845 321 845 c 2
 320 845 l 2xdc
 285 845 263 832 239 807 c 1xec
 222 822 l 1
EndSplineSet
Refer: 86 79 S 1 0 0 1 -0 -0 3
AlternateSubs2: "Stilistic set 01 subtable" Otilde.vn
AlternateSubs2: "Latin alternatives subtable" Otilde.vn
Substitution2: "Latin Vietnamese substitutions subtable" Otilde.vn
EndChar

StartChar: Odieresis
Encoding: 214 214 221
Width: 833
Flags: HW
TeX: 891 0
HStem: -22 27<351.341 480.946> 680 25<350.623 481.09> 733 105<276.77 360.648 470.412 555.229>
VStem: 83 103<212.043 467.518> 266 105<743.771 828.34> 460 106<743.903 827.588> 646 103<212.489 468.002>
AnchorPoint: "below" 416 0 basechar 0
AnchorPoint: "above" 416 818 basechar 0
LayerCount: 2
Fore
SplineSet
266 785 m 0
 266 812 287 838 318 838 c 0
 346 838 371 817 371 786 c 0
 371 755 345 733 319 733 c 0
 288 733 266 759 266 785 c 0
460 786 m 0
 460 817 486 838 513 838 c 0
 544 838 566 812 566 785 c 0
 566 754 539 733 513 733 c 0
 482 733 460 758 460 786 c 0
EndSplineSet
Refer: 86 79 S 1 0 0 1 -0 0 3
EndChar

StartChar: OE
Encoding: 338 338 222
Width: 1069
Flags: HW
TeX: 688 0
HStem: -22 23<373.61 489.859> 0 31<620.93 876.332> 339 31<617 804.371> 652 31<620.966 873.648> 683 22<374.317 487.768>
VStem: 97 101<210.857 466.641> 541 76<41.6379 339 370 642.912> 839 25<223 301.335 407.622 487>
AnchorPoint: "above" 579 705 basechar 0
LayerCount: 2
Fore
SplineSet
97 339 m 0
 97 558 264 705 428 705 c 0
 488 705 518 683 592 683 c 2
 957 683 l 1
 985 458 l 1
 960 458 l 1
 951 530 942 592 897 624 c 0
 858 652 804 652 764 652 c 2
 673 652 l 2
 633 652 618 651 617 616 c 1
 617 370 l 1
 713 370 l 2
 774 370 824 372 836 435 c 0
 839 452 839 470 839 487 c 1
 864 487 l 1
 864 223 l 1
 839 223 l 1
 839 234 l 2
 839 331 798 339 713 339 c 2
 617 339 l 1
 617 69 l 2
 617 33 633 31 671 31 c 2
 767 31 l 2
 942 31 960 96 987 258 c 1
 1013 258 l 1
 971 0 l 1
 594 0 l 2x7f
 514 0 492 -22 428 -22 c 0
 256 -22 97 129 97 339 c 0
198 353 m 0
 198 147 309 1 431 1 c 0
 537 1 541 69 541 224 c 2
 541 455 l 2xbf
 541 618 536 683 431 683 c 0
 307 683 198 545 198 353 c 0
EndSplineSet
EndChar

StartChar: Oslash
Encoding: 216 216 223
Width: 833
Flags: HW
TeX: 731 48
HStem: -22 23<347.645 481.877> 682 23<350.083 484.276>
VStem: 83 89<212.579 467.537> 660 89<210.816 466.223>
DStem2: 140 -41 161 -56 0.562745 0.826631<0 116.368 166.41 776.035 824.876 943.008>
LayerCount: 2
Fore
SplineSet
83 339 m 0
 83 547 238 705 416 705 c 0
 495 705 555 676 604 641 c 1
 671 739 l 1
 672 739 l 1
 692 725 l 1
 692 724 l 1
 624 624 l 1
 694 565 749 458 749 339 c 0
 749 132 593 -22 416 -22 c 0
 322 -22 262 17 226 41 c 1
 161 -56 l 1
 140 -42 l 1
 140 -41 l 1
 207 58 l 1
 184 78 83 170 83 339 c 0
172 337 m 0
 172 221 192 157 233 97 c 1
 581 607 l 1
 546 644 492 682 416 682 c 0
 328 682 256 630 217 559 c 0
 180 491 172 411 172 337 c 0
250 75 m 1
 285 39 339 1 415 1 c 0
 505 1 577 54 616 125 c 0
 652 191 660 268 660 340 c 0
 660 459 638 527 598 586 c 1
 250 77 l 1
 250 75 l 1
EndSplineSet
EndChar

StartChar: Ugrave
Encoding: 217 217 224
Width: 805
Flags: HW
TeX: 856 0
HStem: -22 31<352.141 488.476> 652 31<60 156.158 258.639 354 507 582.5 668.11 743> 787 75<292.05 366.437>
VStem: 163 89<131.635 646.036> 610 30<147.49 624.918>
AnchorPoint: "below" 416 0 basechar 0
AnchorPoint: "above" 402 864 basechar 0
LayerCount: 2
Fore
SplineSet
288 825 m 0
 288 845 305 862 322 862 c 0
 336 862 334 861 490 764 c 1
 480 741 l 1
 465 745 450 750 331 787 c 0
 311 793 288 799 288 825 c 0
EndSplineSet
Refer: 92 85 S 1 0 0 1 0 0 3
AlternateSubs2: "Stilistic set 01 subtable" Ugrave.vn
AlternateSubs2: "Latin alternatives subtable" Ugrave.vn
Substitution2: "Latin Vietnamese substitutions subtable" Ugrave.vn
EndChar

StartChar: Uacute
Encoding: 218 218 225
Width: 805
Flags: HW
TeX: 856 0
HStem: -22 31<352.141 488.476> 652 31<60 156.158 258.639 354 507 582.5 668.11 743> 787 75<478.549 552.288>
VStem: 163 89<131.635 646.036> 610 30<147.49 624.918>
AnchorPoint: "below" 416 0 basechar 0
AnchorPoint: "above" 402 864 basechar 0
LayerCount: 2
Fore
SplineSet
355 764 m 1
 510 860 508 862 523 862 c 0
 543 862 557 841 557 825 c 0
 557 795 519 789 514 787 c 0
 395 750 380 745 365 741 c 1
 355 764 l 1
EndSplineSet
Refer: 92 85 S 1 0 0 1 -0 0 3
AlternateSubs2: "Stilistic set 01 subtable" Uacute.vn
AlternateSubs2: "Latin alternatives subtable" Uacute.vn
Substitution2: "Latin Vietnamese substitutions subtable" Uacute.vn
EndChar

StartChar: Ucircumflex
Encoding: 219 219 226
Width: 805
Flags: HW
TeX: 891 0
HStem: -22 31<352.141 488.476> 652 31<60 156.158 258.639 354 507 582.5 668.11 743>
VStem: 163 89<131.635 646.036> 610 30<147.49 624.918>
AnchorPoint: "below" 416 0 basechar 0
AnchorPoint: "above" 402 904 basechar 0
LayerCount: 2
Fore
SplineSet
283 761 m 1
 283 762 l 1
 416 902 l 1
 417 902 l 1
 550 762 l 1
 550 761 l 1
 532 743 l 1
 417 849 l 1
 416 849 l 1
 300 743 l 1
 283 761 l 1
EndSplineSet
Refer: 92 85 S 1 0 0 1 0 0 3
EndChar

StartChar: Udieresis
Encoding: 220 220 227
Width: 805
Flags: HW
TeX: 891 0
HStem: -22 31<352.141 488.476> 652 31<60 156.158 258.639 354 507 582.5 668.11 743> 733 105<262.77 346.648 456.133 540.229>
VStem: 163 89<131.635 646.036> 252 105<743.771 828.34> 446 105<743.352 827.588> 610 30<147.49 624.918>
AnchorPoint: "below" 416 0 basechar 0
AnchorPoint: "above" 402 840 basechar 0
LayerCount: 2
Fore
SplineSet
252 786 m 0
 252 812 273 838 304 838 c 0
 332 838 357 817 357 786 c 0
 357 755 331 733 305 733 c 0
 274 733 252 759 252 786 c 0
446 786 m 0
 446 817 471 838 498 838 c 0
 529 838 551 812 551 785 c 0
 551 759 530 733 499 733 c 0
 471 733 446 755 446 786 c 0
EndSplineSet
Refer: 92 85 S 1 0 0 1 -0 0 3
EndChar

StartChar: Yacute
Encoding: 221 221 228
Width: 805
Flags: HW
TeX: 856 0
ItalicCorrection: 24
HStem: 0 31<256 352.704 452.569 548> 652 31<39 131.34 251.196 316 553 599.167 693.981 766> 787 75<479.549 552.411>
VStem: 359 87<36.467 304.812>
DStem2: 414 349 349 290 0.523194 -0.852213<-323.813 39.4391> 435 315 455 289 0.524266 0.851554<0 345.068>
AnchorPoint: "below" 402 0 basechar 0
AnchorPoint: "above" 402 864 basechar 0
LayerCount: 2
Fore
SplineSet
356 764 m 1
 511 860 509 862 524 862 c 0
 544 862 557 841 557 825 c 0
 557 795 520 789 515 787 c 0
 396 750 381 745 366 741 c 1
 356 764 l 1
EndSplineSet
Refer: 96 89 S 1 0 0 1 -0 0 3
AlternateSubs2: "Stilistic set 01 subtable" Yacute.vn
AlternateSubs2: "Latin alternatives subtable" Yacute.vn
Substitution2: "Latin Vietnamese substitutions subtable" Yacute.vn
EndChar

StartChar: Thorn
Encoding: 222 222 229
Width: 680
Flags: HW
TeX: 688 0
HStem: -0 31<63 159.565 256.075 352> 177 31<249 415.856> 521 31<249 424.435> 652 31<63 158.697 256.172 352>
VStem: 166 83<36.6271 177 208 521 552 646.17> 495 100<283.921 447.623>
LayerCount: 2
Fore
SplineSet
63 -0 m 1
 63 31 l 1
 76 31 l 2
 151 31 166 36 166 73 c 2
 166 609 l 2
 166 648 147 652 76 652 c 2
 63 652 l 1
 63 683 l 1
 111 681 159 680 207 680 c 0
 255 680 304 681 352 683 c 1
 352 652 l 1
 340 652 l 2
 258 652 249 645 249 604 c 2
 249 552 l 1
 380 552 l 2
 529 552 595 446 595 365 c 0
 595 290 538 177 372 177 c 2
 249 177 l 1
 249 77 l 2
 249 35 263 31 343 31 c 2
 352 31 l 1
 352 -0 l 1
 304 2 255 3 207 3 c 0
 159 3 111 2 63 -0 c 1
249 208 m 1
 354 208 l 2
 443 208 495 285 495 366 c 0
 495 446 446 521 370 521 c 2
 249 521 l 1
 249 208 l 1
EndSplineSet
EndChar

StartChar: Germandbls
Encoding: 61699 61699 230
Width: 1166
Flags: HW
TeX: 688 0
HStem: -22 31<237.434 389.723 792.434 944.723> 677 28<218.751 350.749 773.751 908.325>
VStem: 83 60<473.415 600.472> 83 25<143.077 226.982> 445 54<511.138 607.236> 467 60<90.0193 231.953> 638 60<475.616 600.472> 638 25<140.849 226.982> 1022 60<90.0193 231.953> 1028 26<456.081 533.804>
DStem2: 786 421 767 333 0.964958 -0.262403<-60.3834 239.037>
LayerCount: 2
Fore
SplineSet
83 5 m 2
 83 207 l 2
 83 221 89 227 95 227 c 0
 101 227 107 221 108 212 c 0xd4
 112 154 125 110 164 70 c 0
 209 25 274 9 328 9 c 0
 412 9 467 79 467 154 c 0
 467 222 425 271 380 289 c 0
 356 299 246 322 213 333 c 0
 147 356 83 422 83 514 c 0xe4
 83 612 162 705 279 705 c 0
 374 705 418 655 437 635 c 1
 470 689 477 704 487 704 c 0
 499 704 499 689 499 678 c 2
 499 474 l 2
 499 466 496 457 486 457 c 0
 464 458 480 504 445 574 c 0
 401 663 323 677 280 677 c 0
 196 677 143 611 143 545 c 0xe8
 143 500 167 457 205 433 c 0
 246 406 359 394 411 371 c 0
 471 344 527 276 527 183 c 0
 527 80 452 -22 329 -22 c 0
 219 -22 163 31 145 48 c 1
 112 -11 102 -21 95 -21 c 0
 94 -21 92 -20 91 -20 c 0
 82 -17 83 -6 83 5 c 2
638 5 m 2
 638 207 l 2
 638 221 644 227 650 227 c 0
 656 227 662 221 663 212 c 0xc180
 667 154 679 110 719 70 c 0
 764 25 829 9 883 9 c 0
 967 9 1022 79 1022 154 c 0
 1022 222 980 271 935 289 c 0
 911 299 800 322 767 333 c 0
 701 356 638 421 638 514 c 0
 638 612 717 705 834 705 c 0
 929 705 974 655 993 635 c 1
 1026 689 1032 704 1042 704 c 0xc280
 1054 704 1054 689 1054 678 c 2
 1054 474 l 2
 1054 463 1049 456 1042 456 c 0
 1036 456 1030 462 1028 476 c 0
 1011 595 951 677 835 677 c 0
 751 677 698 611 698 545 c 0xc240
 698 484 741 438 786 421 c 0
 812 411 932 386 966 371 c 0
 1026 344 1082 276 1082 183 c 0
 1082 80 1007 -22 884 -22 c 0
 774 -22 718 31 700 48 c 1
 667 -11 657 -21 650 -21 c 0
 649 -21 647 -20 646 -20 c 0
 637 -17 638 -6 638 5 c 2
EndSplineSet
EndChar

StartChar: aacute
Encoding: 225 225 232
Width: 555
Flags: HW
TeX: 641 0
ItalicCorrection: 40
HStem: -11 23<214.392 289.438 446.887 495.327> 419 23<215.932 289.775>
VStem: 69 84<107.646 321.277> 353 70<61.069 370.581 381 418.707> 514 25<34.9778 150.531>
AnchorPoint: "below" 249 0 basechar 0
AnchorPoint: "above" 249 622 basechar 0
LayerCount: 2
Fore
SplineSet
242 510 m 1
 375 639 373 642 392 642 c 0
 411 642 427 623 427 605 c 0
 427 581 418 581 258 490 c 1
 257 490 l 1
 242 510 l 1
EndSplineSet
Refer: 104 97 S 1 0 0 1 0 0 3
AlternateSubs2: "Stilistic set 01 subtable" aacute.vn
AlternateSubs2: "Latin alternatives subtable" aacute.vn
Substitution2: "Latin Vietnamese substitutions subtable" aacute.vn
EndChar

StartChar: ae
Encoding: 230 230 237
Width: 778
Flags: HW
TeX: 430 0
HStem: -11 22<217.002 286.362 511.102 610.67> 230 23<418 574.321> 418 24<212.582 295.55 499.138 603.62>
VStem: 69 84<112.144 325.882> 359 59<163.79 230 253 343.793 385 439.859> 648 35<292.522 384.504>
AnchorPoint: "below" 399 0 basechar 0
AnchorPoint: "above" 402 442 basechar 0
LayerCount: 2
Fore
SplineSet
69 222 m 0
 69 350 154 442 248 442 c 0
 270 442 317 435 359 380 c 1
 359 403 l 2
 359 435 376 441 388 441 c 0
 397 441 418 437 418 404 c 2
 418 385 l 1
 455 419 499 442 554 442 c 0
 622 442 683 400 683 336 c 0
 683 236 544 230 450 230 c 2
 418 230 l 1
 420 177 426 110 467 59 c 0
 492 28 521 11 557 11 c 0
 615 11 668 46 697 94 c 0
 702 102 707 116 714 118 c 0
 722 121 729 113 729 106 c 0
 729 85 669 -11 556 -11 c 0
 487 -11 422 34 383 120 c 1
 351 30 302 -11 248 -11 c 0
 157 -11 69 86 69 222 c 0
153 223 m 0
 153 146 158 104 179 64 c 0
 199 28 224 11 250 11 c 0
 324 11 367 130 367 163 c 0
 367 180 359 187 359 247 c 2
 359 318 l 2
 359 357 308 418 253 418 c 0
 218 418 184 395 166 343 c 0
 153 305 153 263 153 223 c 0
418 253 m 1
 461 253 l 2
 533 253 648 259 648 336 c 0
 648 387 601 419 554 419 c 0
 499 419 425 382 418 253 c 1
EndSplineSet
EndChar

StartChar: ccedilla
Encoding: 231 231 238
Width: 500
Flags: HW
TeX: 430 170
HStem: -203 22<159 283.563> -71 82<242.755 306.934> 290 92<330.754 372> 419 23<232.759 334.811>
VStem: 69 84<114.313 316.905> 242 70<-58.8615 -5.99796> 324 92<296.851 373.984> 325 70<-160.97 -88.6482>
AnchorPoint: "above" 278 442 basechar 0
LayerCount: 2
Fore
SplineSet
69 216 m 0
 69 348 169 442 278 442 c 0
 355 442 416 396 416 338 c 0
 416 308 395 290 370 290 c 0
 345 290 324 309 324 336 c 0xfe
 324 363 344 381 372 382 c 1
 364 390 335 419 280 419 c 0
 218 419 187 369 177 350 c 0
 156 309 153 266 153 210 c 0
 153 160 157 107 186 65 c 0
 219 17 260 11 281 11 c 0
 342 11 408 38 444 90 c 0
 450 99 456 114 463 117 c 0
 471 121 479 114 479 106 c 0
 479 98 444 11 312 -9 c 1
 312 -54 l 1
 324 -56 395 -68 395 -126 c 0
 395 -200 277 -203 174 -203 c 2
 159 -203 l 1
 159 -181 l 1xfd
 191 -181 l 2
 239 -181 325 -177 325 -126 c 0xfd
 325 -104 306 -74 242 -71 c 1
 242 -8 l 1
 140 11 69 106 69 216 c 0
EndSplineSet
EndChar

StartChar: egrave
Encoding: 232 232 239
Width: 500
Flags: HW
TeX: 641 0
HStem: -11 22<239.1 343.814> 230 23<153 299.875> 419 23<231.084 323.586>
VStem: 69 84<131.031 230 253 327.65> 371 34<292.594 382.839>
AnchorPoint: "below" 280 0 basechar 0
AnchorPoint: "above" 276 622 basechar 0
LayerCount: 2
Fore
SplineSet
100 605 m 0
 100 622 115 642 135 642 c 0
 154 642 159 633 285 510 c 1
 270 490 l 1
 269 490 l 1
 100 586 100 581 100 605 c 0
EndSplineSet
Refer: 108 101 S 1 0 0 1 0 0 3
AlternateSubs2: "Stilistic set 01 subtable" egrave.vn
AlternateSubs2: "Latin alternatives subtable" egrave.vn
Substitution2: "Latin Vietnamese substitutions subtable" egrave.vn
EndChar

StartChar: edieresis
Encoding: 235 235 242
Width: 500
Flags: HW
TeX: 641 0
HStem: -11 22<239.1 343.814> 230 23<153 299.875> 419 23<231.084 323.586> 553 106<110.77 194.648 304.77 388.613>
VStem: 69 84<131.031 230 253 327.65> 100 105<563.771 648.979> 294 105<564.387 648.229> 371 34<292.594 382.839>
AnchorPoint: "below" 280 0 basechar 0
AnchorPoint: "above" 276 639 basechar 0
LayerCount: 2
Fore
SplineSet
100 606 m 0
 100 632 121 659 152 659 c 0
 180 659 205 637 205 606 c 0xf4
 205 575 179 553 153 553 c 0xf8
 122 553 100 579 100 606 c 0
294 606 m 0
 294 637 320 659 347 659 c 0
 378 659 399 633 399 606 c 0
 399 575 373 554 347 554 c 0xf2
 316 554 294 578 294 606 c 0
EndSplineSet
Refer: 108 101 S 1 0 0 1 0 -0 3
EndChar

StartChar: igrave
Encoding: 236 236 243
Width: 333
Flags: HW
TeX: 641 0
ItalicCorrection: 40
HStem: -11 23<199.584 253.642> 419 23<79.593 131.73>
VStem: 15 27<278.017 372.17> 117 68<30.7919 257.439> 147 69<168.009 398.589> 290 27<58.2427 151.982>
AnchorPoint: "below" 166 0 basechar 0
AnchorPoint: "above" 166 622 basechar 0
LayerCount: 2
Fore
SplineSet
17 605 m 0xf4
 17 623 34 642 52 642 c 0
 69 642 70 638 201 510 c 1
 186 490 l 1
 185 490 l 1
 16 586 17 581 17 605 c 0xf4
EndSplineSet
Refer: 32 305 S 1 0 0 1 -0 0 3
AlternateSubs2: "Stilistic set 01 subtable" igrave.vn
AlternateSubs2: "Latin alternatives subtable" igrave.vn
Substitution2: "Latin Vietnamese substitutions subtable" igrave.vn
Ligature2: "Latin ligatures excepting Turkic subtable" i gravecomb
EndChar

StartChar: icircumflex
Encoding: 238 238 245
Width: 333
Flags: HW
TeX: 641 0
ItalicCorrection: 40
HStem: -11 23<201.496 254.642> 419 23<81.6991 132.73>
VStem: 118 69<30.8289 262.512> 148 69<168.009 398.589> 299 19<99.8942 151.374>
AnchorPoint: "below" 166 0 basechar 0
AnchorPoint: "above" 166 618 basechar 0
LayerCount: 2
Fore
SplineSet
0 488 m 1
 0 490 l 1
 133 638 l 1
 134 638 l 1
 267 490 l 1
 267 488 l 1
 250 471 l 1
 249 471 l 1
 134 585 l 1
 133 585 l 1
 19 471 l 1
 18 471 l 1
 0 488 l 1
17 300 m 0
 17 339 32 442 113 442 c 0
 171 442 217 391 217 336 c 0xd8
 217 312 187 112 187 77 c 0
 187 47 194 12 225 12 c 0
 238 12 281 19 291 108 c 0
 293 126 292 145 299 150 c 0
 301 152 303 152 305 152 c 0
 312 152 318 146 318 135 c 0
 318 86 299 -11 222 -11 c 0
 159 -11 118 44 118 95 c 0xe8
 118 119 148 318 148 353 c 0xd8
 148 408 125 419 110 419 c 0
 97 419 54 411 43 322 c 0
 40 297 43 286 36 281 c 0
 34 279 31 278 28 278 c 0
 22 278 17 284 17 300 c 0
EndSplineSet
Ligature2: "Latin ligatures excepting Turkic subtable" i uni0302
EndChar

StartChar: idieresis
Encoding: 239 239 246
Width: 333
Flags: HW
TeX: 641 0
ItalicCorrection: 40
HStem: -11 23<199.584 253.642> 419 23<79.593 131.73> 553 106<27.0732 111.23 221.951 304.87>
VStem: 15 27<278.017 372.17> 17 105<563.771 648.867> 117 68<30.7919 257.439> 147 69<168.009 398.589> 210 106<565.137 647.803> 290 27<58.2427 151.982>
AnchorPoint: "above" 166 639 basechar 0
LayerCount: 2
Fore
SplineSet
17 606 m 0
 17 637 42 659 69 659 c 0
 100 659 122 634 122 606 c 0xe8
 122 575 95 553 69 553 c 0
 41 553 17 575 17 606 c 0
210 606 m 0
 210 633 232 659 263 659 c 0
 289 659 316 637 316 606 c 0
 316 575 290 554 264 554 c 0xe1
 233 554 210 580 210 606 c 0
EndSplineSet
Refer: 32 305 S 1 0 0 1 0 0 3
Ligature2: "Latin ligatures excepting Turkic subtable" i uni0308
EndChar

StartChar: eth
Encoding: 240 240 247
Width: 555
Flags: HW
TeX: 688 0
HStem: -11 25<223.996 330.701> 425 22<225.493 321.24> 679 14<105.246 118.93>
VStem: 55 84<116.904 311.711> 415 84<120.203 334.959>
DStem2: 143 529 154 508 0.867686 0.497112<0 132.593 199.297 331.022>
LayerCount: 2
Fore
SplineSet
55 213 m 0
 55 345 159 447 274 447 c 0
 341 447 382 397 402 362 c 1
 403 362 l 1
 381 455 339 514 277 578 c 1
 154 508 l 1
 143 528 l 1
 143 529 l 1
 258 595 l 1
 211 633 156 663 97 679 c 1
 107 688 112 693 123 693 c 0
 139 693 219 679 306 623 c 1
 430 694 l 1
 442 673 l 1
 328 607 l 1
 373 574 498 466 498 253 c 0
 498 244 499 233 499 224 c 0
 499 65 380 -11 277 -11 c 0
 151 -11 55 91 55 213 c 0
139 224 m 0
 139 163 143 95 187 51 c 0
 211 28 242 14 276 14 c 0
 318 14 358 35 382 70 c 0
 397 92 415 126 415 212 c 0
 415 378 331 425 275 425 c 0
 232 425 191 402 167 365 c 0
 140 323 139 274 139 224 c 0
440 213 m 1
 448 213 l 1
 440 214 l 1
 440 213 l 1
EndSplineSet
EndChar

StartChar: oacute
Encoding: 243 243 250
Width: 555
Flags: HW
TeX: 641 0
HStem: -11 23<233.781 322.264> 419 23<231.745 320.325>
VStem: 69 84<116.383 316.041> 402 83<114.099 314.052>
AnchorPoint: "below" 277 0 basechar 0
AnchorPoint: "above" 276 622 basechar 0
LayerCount: 2
Fore
SplineSet
242 510 m 1
 375 639 373 642 392 642 c 0
 411 642 427 623 427 605 c 0
 427 581 418 581 258 490 c 1
 257 490 l 1
 242 510 l 1
EndSplineSet
Refer: 118 111 S 1 0 0 1 0 0 3
AlternateSubs2: "Stilistic set 01 subtable" oacute.vn
AlternateSubs2: "Latin alternatives subtable" oacute.vn
Substitution2: "Latin Vietnamese substitutions subtable" oacute.vn
EndChar

StartChar: oe
Encoding: 339 339 254
Width: 778
Flags: HW
TeX: 430 0
HStem: -13 23<215.704 286.043 513.989 609.6> 230 23<423 579.179> 420 23<214.443 286.084 506.374 600.094>
VStem: 69 84<106.183 323.165> 353 70<102.217 230 253 346.766> 648 35<292.858 383.554>
AnchorPoint: "below" 399 0 basechar 0
AnchorPoint: "above" 399 442 basechar 0
LayerCount: 2
Fore
SplineSet
69 215 m 0
 69 350 157 443 249 443 c 0
 332 443 376 372 388 353 c 1
 425 408 487 442 553 442 c 0
 623 442 683 399 683 335 c 0
 683 231 535 230 445 230 c 2
 423 230 l 1
 425 163 434 98 477 50 c 0
 494 31 519 12 557 12 c 0
 581 12 654 20 697 94 c 0
 702 102 708 115 714 118 c 0
 721 121 729 115 729 106 c 0
 729 85 668 -11 556 -11 c 0
 459 -11 407 68 394 88 c 1
 359 23 307 -13 249 -13 c 0
 150 -13 69 88 69 215 c 0
153 216 m 0
 153 151 155 75 202 31 c 0
 217 17 233 10 250 10 c 0
 282 10 316 35 336 86 c 0
 352 127 353 172 353 215 c 0
 353 280 349 353 301 398 c 0
 285 413 267 420 250 420 c 0
 217 420 185 393 168 345 c 0
 153 304 153 259 153 216 c 0
423 253 m 1
 463 253 l 2
 536 253 648 258 648 336 c 0
 648 377 613 419 555 419 c 0
 503 419 429 386 423 253 c 1
EndSplineSet
EndChar

StartChar: oslash
Encoding: 248 248 255
Width: 555
Flags: HW
TeX: 533 97
HStem: -13 23<231.498 323.263> 420 23<232.639 323.989>
VStem: 76 70<111.178 317.887> 409 70<112.548 317.009>
DStem2: 101 -92 121 -103 0.468536 0.883444<0 132.065 175.822 532.006 576.646 707.707>
LayerCount: 2
Fore
SplineSet
76 215 m 0
 76 349 174 443 277 443 c 0
 296 443 331 441 372 417 c 1
 433 533 l 1
 434 533 l 1
 453 523 l 1
 390 403 l 1
 442 364 479 296 479 215 c 0
 479 91 390 -13 278 -13 c 0
 240 -13 208 0 183 14 c 1
 121 -103 l 1
 101 -92 l 1
 164 27 l 1
 105 71 76 144 76 215 c 0
146 213 m 0
 146 123 167 88 183 63 c 1
 184 63 l 1
 355 387 l 1
 329 411 301 420 276 420 c 0
 230 420 190 387 168 341 c 0
 157 318 146 284 146 213 c 0
199 44 m 1
 225 20 253 10 278 10 c 0
 324 10 364 43 386 89 c 0
 397 112 409 146 409 216 c 0
 409 307 388 342 372 367 c 1
 371 367 l 1
 199 44 l 1
EndSplineSet
EndChar

StartChar: ugrave
Encoding: 249 249 256
Width: 583
Flags: HW
TeX: 641 0
ItalicCorrection: 40
HStem: -11 23<249.434 333.133 474.754 522.668> 419 23<79.7652 132.562>
VStem: 15 26<277.006 369.763> 131 70<63.4756 342.906> 147 69<172.578 399.822> 381 70<46.2166 427.221> 542 25<34.9778 147.859>
AnchorPoint: "below" 292 0 basechar 0
AnchorPoint: "above" 292 622 basechar 0
LayerCount: 2
Fore
SplineSet
15 296 m 0
 15 345 35 442 112 442 c 0
 166 442 216 396 216 336 c 0xee
 216 305 201 246 201 166 c 0xf6
 201 114 205 12 292 12 c 0
 345 12 373 60 380 84 c 0
 382 93 381 103 381 112 c 2
 381 378 l 2
 381 388 381 398 384 407 c 0
 389 421 402 430 416 430 c 0
 454 430 451 388 451 382 c 2
 451 120 l 2
 451 26 480 12 499 12 c 0
 550 12 539 117 542 139 c 0
 544 152 556 156 563 148 c 0
 566 145 567 142 567 126 c 0
 567 41 553 -11 497 -11 c 0
 429 -11 398 46 393 54 c 1
 362 -3 319 -11 288 -11 c 0
 194 -11 131 40 131 172 c 0xf6
 131 245 147 317 147 353 c 0
 147 383 140 419 109 419 c 0
 82 419 46 394 41 303 c 0
 40 284 34 277 28 277 c 0
 22 277 15 285 15 296 c 0
142 605 m 0xe6
 142 622 157 642 177 642 c 0
 194 642 194 638 326 510 c 1
 312 490 l 1
 311 490 l 1
 142 586 142 581 142 605 c 0xe6
EndSplineSet
AlternateSubs2: "Stilistic set 01 subtable" ugrave.vn
AlternateSubs2: "Latin alternatives subtable" ugrave.vn
Substitution2: "Latin Vietnamese substitutions subtable" ugrave.vn
EndChar

StartChar: uacute
Encoding: 250 250 257
Width: 583
Flags: HW
TeX: 641 0
ItalicCorrection: 40
HStem: -11 23<249.434 333.133 474.754 522.668> 419 23<79.7652 132.562>
VStem: 15 26<277.006 369.763> 131 70<63.4756 342.906> 147 69<172.578 399.822> 381 70<46.2166 427.221> 542 25<34.9778 147.859>
AnchorPoint: "below" 292 0 basechar 0
AnchorPoint: "above" 292 622 basechar 0
LayerCount: 2
Fore
SplineSet
15 296 m 0
 15 345 35 442 112 442 c 0
 166 442 216 396 216 336 c 0xee
 216 305 201 246 201 166 c 0xf6
 201 114 205 12 292 12 c 0
 345 12 373 60 380 84 c 0
 382 93 381 103 381 112 c 2
 381 378 l 2
 381 388 381 398 384 407 c 0
 389 421 402 430 416 430 c 0
 454 430 451 388 451 382 c 2
 451 120 l 2
 451 26 480 12 499 12 c 0
 550 12 539 117 542 139 c 0
 544 152 556 156 563 148 c 0
 566 145 567 142 567 126 c 0
 567 41 553 -11 497 -11 c 0
 429 -11 398 46 393 54 c 1
 362 -3 319 -11 288 -11 c 0
 194 -11 131 40 131 172 c 0xf6
 131 245 147 317 147 353 c 0
 147 383 140 419 109 419 c 0
 82 419 46 394 41 303 c 0
 40 284 34 277 28 277 c 0
 22 277 15 285 15 296 c 0
256 510 m 1
 389 639 386 642 405 642 c 0
 424 642 441 623 441 605 c 0xe6
 441 581 432 581 272 490 c 1
 271 490 l 1
 256 510 l 1
EndSplineSet
AlternateSubs2: "Stilistic set 01 subtable" uacute.vn
AlternateSubs2: "Latin alternatives subtable" uacute.vn
Substitution2: "Latin Vietnamese substitutions subtable" uacute.vn
EndChar

StartChar: ucircumflex
Encoding: 251 251 258
Width: 583
Flags: HW
TeX: 641 0
ItalicCorrection: 40
HStem: -11 23<249.434 333.133 474.754 522.668> 419 23<79.7652 132.562> 471 167
VStem: 15 26<277.006 369.763> 131 70<63.4756 342.906> 147 69<172.578 399.822> 158 268 381 70<46.2166 427.221> 542 25<34.9778 147.859>
AnchorPoint: "below" 292 0 basechar 0
AnchorPoint: "above" 292 618 basechar 0
LayerCount: 2
Fore
SplineSet
15 296 m 0
 15 345 35 442 112 442 c 0
 166 442 216 396 216 336 c 0xf480
 216 305 201 246 201 166 c 0
 201 114 205 12 292 12 c 0
 345 12 373 60 380 84 c 0
 382 93 381 103 381 112 c 2
 381 378 l 2
 381 388 381 398 384 407 c 0
 389 421 402 430 416 430 c 0
 454 430 451 388 451 382 c 2
 451 120 l 2
 451 26 480 12 499 12 c 0
 550 12 539 117 542 139 c 0
 544 152 556 156 563 148 c 0
 566 145 567 142 567 126 c 0
 567 41 553 -11 497 -11 c 0
 429 -11 398 46 393 54 c 1
 362 -3 319 -11 288 -11 c 0xf980
 194 -11 131 40 131 172 c 0xf980
 131 245 147 317 147 353 c 0
 147 383 140 419 109 419 c 0
 82 419 46 394 41 303 c 0
 40 284 34 277 28 277 c 0
 22 277 15 285 15 296 c 0
EndSplineSet
Refer: 10 710 S 1 0 0 1 42 -12 2
EndChar

StartChar: udieresis
Encoding: 252 252 259
Width: 583
Flags: HW
TeX: 641 0
ItalicCorrection: 40
HStem: -11 23<249.434 333.133 474.754 522.668> 419 23<79.7652 132.562> 554 105<151.412 236.23 346.387 430.867>
VStem: 15 26<277.005 369.124> 131 70<63.4756 342.906> 141 106<564.542 648.229> 147 69<172.578 399.822> 336 105<564.197 648.979> 381 70<46.2166 427.221> 542 25<34.9778 147.859>
AnchorPoint: "below" 292 0 basechar 0
AnchorPoint: "above" 292 639 basechar 0
LayerCount: 2
Fore
SplineSet
15 295 m 0
 15 344 35 442 112 442 c 0
 166 442 216 396 216 336 c 0xf240
 216 305 201 246 201 166 c 0
 201 114 205 12 292 12 c 0
 345 12 373 60 380 84 c 0
 382 93 381 103 381 112 c 2
 381 378 l 2
 381 388 381 398 384 407 c 0
 389 421 402 430 416 430 c 0
 454 430 451 388 451 382 c 2
 451 120 l 2xf8c0
 451 26 480 12 499 12 c 0
 550 12 539 117 542 139 c 0
 544 152 556 156 563 148 c 0
 566 145 567 142 567 126 c 0
 567 41 553 -11 497 -11 c 0
 429 -11 398 46 393 54 c 1
 362 -3 319 -11 288 -11 c 0
 194 -11 131 40 131 172 c 0xf8c0
 131 245 147 317 147 353 c 0
 147 383 140 419 109 419 c 0
 82 419 46 394 41 303 c 0
 40 284 34 277 28 277 c 0
 22 277 15 284 15 295 c 0
141 606 m 0
 141 637 167 659 194 659 c 0
 225 659 247 633 247 606 c 0xf440
 247 575 221 554 195 554 c 0
 164 554 141 578 141 606 c 0
336 606 m 0
 336 632 357 659 388 659 c 0
 416 659 441 637 441 606 c 0
 441 575 414 553 388 553 c 0xf140
 357 553 336 579 336 606 c 0
EndSplineSet
EndChar

StartChar: yacute
Encoding: 253 253 260
Width: 528
Flags: HW
TeX: 641 194
HStem: -206 23<212.572 305.243> -143 91<175 219.543> -11 23<250.228 333.77> 419 23<78.3898 132.562> 490 152
VStem: 15 26<278.049 368.95> 132 70<61.9177 343.041> 134 92<-135.31 -58.9609> 147 69<171.989 399.822> 228 185 381 70<-94.0961 34 45.7893 427.575>
AnchorPoint: "below" 245 -194 basechar 0
AnchorPoint: "above" 292 622 basechar 0
LayerCount: 2
Fore
SplineSet
15 296 m 0
 15 336 30 442 112 442 c 0
 166 442 216 396 216 336 c 0xfc80
 216 311 202 242 202 166 c 0xfe
 202 96 214 12 292 12 c 0
 344 12 372 57 379 81 c 0
 382 91 381 101 381 111 c 2
 381 387 l 2
 381 426 406 430 416 430 c 0
 455 430 451 385 451 383 c 2
 451 18 l 2
 451 2 451 -13 449 -29 c 0
 437 -120 367 -206 264 -206 c 0
 184 -206 134 -151 134 -99 c 0
 134 -69 156 -52 180 -52 c 0
 204 -52 226 -70 226 -97 c 0
 226 -113 217 -143 177 -143 c 2
 175 -143 l 1
 199 -168 225 -183 261 -183 c 0xfd20
 309 -183 381 -146 381 13 c 2
 381 34 l 1
 369 19 344 -11 288 -11 c 0
 207 -11 132 27 132 171 c 0xfe20
 132 244 147 317 147 353 c 0
 147 383 140 419 109 419 c 0
 82 419 47 397 41 301 c 0
 41 295 41 278 29 278 c 0
 18 278 15 287 15 296 c 0
EndSplineSet
Refer: 9 180 S 1 0 0 1 -14 0 2
AlternateSubs2: "Stilistic set 01 subtable" yacute.vn
AlternateSubs2: "Latin alternatives subtable" yacute.vn
Substitution2: "Latin Vietnamese substitutions subtable" yacute.vn
EndChar

StartChar: thorn
Encoding: 254 254 261
Width: 555
Flags: HW
TeX: 688 194
HStem: -206 32<43 115.19 217.949 290> -206 1<53 280> -203 64<114.2 132 202 218.901> -11 23<251.044 334.282> 419 23<258.176 342.278> 652 31<54 124.003> 674 20G<54 199>
VStem: 132 70<-139 37 45.9073 381.256 387 646.776> 409 84<112.748 321.913>
LayerCount: 2
Fore
SplineSet
43 -174 m 1
 58 -174 l 2x9980
 105 -174 118 -169 120 -139 c 1
 132 -139 l 1
 132 596 l 2
 132 647 120 652 54 652 c 1
 54 683 l 1x3d80
 199 694 l 1x1b80
 199 387 l 1
 233 427 271 442 307 442 c 0
 401 442 493 349 493 216 c 0
 493 80 394 -11 297 -11 c 0
 254 -11 226 8 202 37 c 1
 202 -139 l 1
 213 -139 l 1x3b80
 216 -169 226 -174 277 -174 c 2
 290 -174 l 1
 290 -206 l 1
 43 -206 l 1
 43 -174 l 1
53 -205 m 1
 280 -205 l 1x7980
 127 -203 l 1
 53 -205 l 1
202 100 m 2
 202 60 241 12 293 12 c 0
 332 12 369 38 390 87 c 0
 407 128 409 174 409 218 c 0
 409 280 406 350 361 394 c 0
 345 410 323 419 300 419 c 0x1980
 254 419 202 375 202 329 c 2
 202 100 l 2
EndSplineSet
EndChar

StartChar: germandbls
Encoding: 223 223 262
Width: 583
Flags: HW
TeX: 688 194
HStem: -205 23<65.0651 121.968> -165 91<57 98.3965> -11 23<317.882 400.913> 400 30<35 119> 683 23<224.722 337.325>
VStem: 13 92<-157.307 -80.9609> 113 69<431.749 641.224> 148 64<-134.468 187.24> 248 65<53.3358 111.128> 345 43<310.049 402.307> 401 70<489.37 632.186> 442 84<62.7634 195.396>
LayerCount: 2
Fore
SplineSet
13 -121 m 0
 13 -91 35 -74 59 -74 c 0
 83 -74 105 -92 105 -119 c 0
 105 -134 97 -164 57 -165 c 1
 72 -177 85 -182 96 -182 c 0
 117 -182 148 -162 148 -93 c 0xfdc0
 148 6 126 301 121 400 c 1
 35 400 l 1
 35 430 l 1
 119 430 l 1
 117 468 113 507 113 545 c 0
 113 635 148 706 287 706 c 0
 397 706 471 641 471 565 c 0xfee0
 471 497 388 393 388 350 c 0
 388 290 526 245 526 138 c 0
 526 61 462 -11 371 -11 c 0
 304 -11 248 28 248 78 c 0
 248 97 261 113 281 113 c 0
 301 113 313 97 313 81 c 0
 313 62 299 53 284 49 c 1
 289 44 314 12 369 12 c 0
 429 12 442 93 442 134 c 0xfcd0
 442 223 345 220 345 342 c 0
 345 389 379 413 390 440 c 0
 398 460 401 495 401 550 c 0
 401 583 398 606 380 633 c 0
 350 679 310 683 289 683 c 0
 246 683 196 671 187 632 c 0
 183 614 182 591 182 576 c 0xfee0
 182 538 187 473 190 422 c 2
 206 168 l 2
 209 116 212 66 212 12 c 0
 212 -25 211 -81 196 -122 c 0
 187 -145 157 -205 98 -205 c 0
 48 -205 13 -163 13 -121 c 0
EndSplineSet
EndChar

StartChar: grave.uc
Encoding: 65542 -1 263
Width: 555
Flags: HW
TeX: 606 0
HStem: 534 75<127.456 200.451>
VStem: 123 201
LayerCount: 2
Fore
SplineSet
123 573 m 0
 123 591 138 609 157 609 c 0
 171 609 168 609 324 512 c 1
 314 489 l 1
 299 493 284 497 165 534 c 0
 145 540 123 547 123 573 c 0
EndSplineSet
EndChar

StartChar: acute.uc
Encoding: 65543 -1 264
Width: 555
Flags: HW
TeX: 606 0
HStem: 534 75<353.549 427.761>
VStem: 230 202
LayerCount: 2
Fore
SplineSet
230 512 m 1
 386 609 384 609 398 609 c 0
 418 609 432 588 432 572 c 0
 432 546 408 540 389 534 c 0
 270 497 255 493 240 489 c 1
 230 512 l 1
EndSplineSet
EndChar

StartChar: tilde.uc
Encoding: 65544 -1 265
Width: 555
Flags: HW
TeX: 641 0
HStem: 554 47<273.996 425.264> 592 47<129.139 279.551>
LayerCount: 2
Fore
SplineSet
83 569 m 1
 83 570 l 1
 115 606 138 639 193 639 c 0x40
 253 639 311 601 371 601 c 0x80
 404 601 427 612 453 639 c 1x40
 471 624 l 1
 471 623 l 1
 440 587 416 554 361 554 c 0x80
 301 554 242 592 182 592 c 0x40
 146 592 123 578 100 554 c 1x80
 83 569 l 1
EndSplineSet
EndChar

StartChar: ring.uc
Encoding: 65546 -1 268
Width: 805
Flags: HW
TeX: 641 0
HStem: 478 22<358.866 444.146> 638 23<357.574 445.743>
VStem: 306 25<524.863 612.871> 472 26<524.67 613.965>
LayerCount: 2
Fore
SplineSet
306 570 m 0
 306 618 348 661 402 661 c 0
 451 661 498 623 498 569 c 0
 498 521 456 478 402 478 c 0
 355 478 306 513 306 570 c 0
331 569 m 0
 331 514 368 500 401 500 c 0
 458 500 472 536 472 569 c 0
 472 624 435 638 402 638 c 0
 345 638 331 602 331 569 c 0
EndSplineSet
EndChar

StartChar: twelveudash
Encoding: 61700 61700 269
Width: 778
Flags: HW
TeX: 437 0
ItalicCorrection: 27
HStem: 255 22<55 721>
LayerCount: 2
Fore
SplineSet
55 255 m 1
 55 277 l 1
 721 277 l 1
 721 255 l 1
 55 255 l 1
EndSplineSet
EndChar

StartChar: threequartersemdash
Encoding: 63198 63198 270
Width: 861
Flags: HW
TeX: 437 0
ItalicCorrection: 27
HStem: 255 22<55 804>
LayerCount: 2
Fore
SplineSet
55 255 m 1
 55 277 l 1
 804 277 l 1
 804 255 l 1
 55 255 l 1
EndSplineSet
EndChar

StartChar: arrowleft
Encoding: 8592 8592 271
Width: 1055
Flags: HW
TeX: 366 -133
HStem: 0 21G<276.5 325> 230 40<190 969.985>
VStem: 285 40<0 65.5 434.324 500>
LayerCount: 2
Fore
SplineSet
83 250 m 1
 112 263 132 272 163 296 c 0
 227 346 271 420 285 500 c 1
 325 500 l 1
 305 401 264 334 190 270 c 1
 938 270 l 2
 949 270 970 270 970 250 c 0
 970 231 950 230 941 230 c 2
 190 230 l 1
 260 169 306 100 325 0 c 1
 285 0 l 1
 268 99 203 187 115 235 c 0
 105 241 94 245 83 250 c 1
EndSplineSet
EndChar

StartChar: arrowright
Encoding: 8594 8594 272
Width: 1055
Flags: HW
TeX: 366 -133
HStem: 0 21G<729 776> 230 40<84.0153 864>
VStem: 729 40<0 65.2476 435.808 500>
LayerCount: 2
Fore
SplineSet
84 250 m 0
 84 270 105 270 114 270 c 2
 864 270 l 1
 792 332 748 401 729 500 c 1
 769 500 l 1
 798 334 929 269 970 250 c 1
 933 233 916 223 892 204 c 0
 828 154 783 80 769 0 c 1
 729 0 l 1
 749 100 791 167 864 230 c 1
 114 230 l 2
 105 230 84 230 84 250 c 0
EndSplineSet
EndChar

StartChar: uni0361.alt
Encoding: 61701 61701 273
Width: 333
Flags: HW
TeX: 688 0
ItalicCorrection: 317
HStem: 633 32<262.166 484.595>
VStem: 154 27<539.084 577.701>
LayerCount: 2
Fore
SplineSet
154 553 m 0
 154 598 226 665 375 665 c 0
 519 665 593 598 593 553 c 0
 593 542 586 539 581 539 c 0
 557 539 588 572 512 607 c 0
 487 618 443 633 374 633 c 0
 258 633 194 593 181 560 c 0
 178 552 178 539 166 539 c 0
 161 539 154 542 154 553 c 0
EndSplineSet
EndChar

StartChar: uni0361
Encoding: 865 865 274
Width: 0
Flags: HW
TeX: 946 0
ItalicCorrection: 345
HStem: 607 32<-111.388 116.34>
VStem: -246 26<491.037 535.178> 223 26<491.058 534.749>
AnchorPoint: "affricate-above" 2 442 mark 0
LayerCount: 2
Fore
SplineSet
-246 506 m 0
 -246 559 -164 639 3 639 c 0
 156 639 249 566 249 506 c 0
 249 494 242 491 237 491 c 0
 226 491 224 504 223 509 c 0
 214 554 136 607 2 607 c 0
 -122 607 -208 560 -220 510 c 0
 -222 502 -223 491 -234 491 c 0
 -239 491 -246 494 -246 506 c 0
EndSplineSet
EndChar

StartChar: uni2040.alt
Encoding: 61702 61702 275
Width: 555
Flags: HW
TeX: 688 0
ItalicCorrection: 317
HStem: 633 32<205.465 348.087>
VStem: 128 25<539.009 582.905> 393 33<539.772 596.914>
LayerCount: 2
Fore
SplineSet
128 554 m 0
 128 598 180 665 277 665 c 0
 374 665 426 598 426 554 c 0
 426 542 419 539 414 539 c 0
 398 539 406 556 393 578 c 0
 372 614 323 633 277 633 c 0
 208 633 161 596 153 557 c 0
 152 550 151 539 140 539 c 0
 135 539 128 542 128 554 c 0
EndSplineSet
EndChar

StartChar: uni2040
Encoding: 8256 8256 276
Width: 555
Flags: HW
TeX: 688 0
ItalicCorrection: 345
HStem: 606 33<183.947 372.363>
VStem: 73 26<491.038 537.955>
LayerCount: 2
Fore
SplineSet
73 506 m 0
 73 559 142 639 278 639 c 0
 412 639 482 559 482 506 c 0
 482 494 475 491 470 491 c 0
 448 491 470 521 425 560 c 0
 380 599 316 606 276 606 c 0
 187 606 111 565 99 512 c 0
 97 504 97 491 85 491 c 0
 80 491 73 494 73 506 c 0
EndSplineSet
EndChar

StartChar: uni2422
Encoding: 9250 9250 277
Width: 500
Flags: HW
TeX: 688 0
HStem: -11 23<214.571 286.437> 419 23<210.571 284.47> 652 31<-1 67.6087> 674 20G<-1 147>
VStem: 77 70<106.586 369.81 381 457 480.106 516 556 645.696> 347 84<107.108 322.699>
DStem2: 7 440 27 416 0.769984 0.638063<0.0861516 63.1418 181.813 371.436>
LayerCount: 2
Fore
SplineSet
-1 652 m 1
 -1 683 l 1xec
 147 694 l 1xdc
 147 556 l 1
 293 677 l 1
 294 677 l 1
 313 653 l 1
 147 516 l 1
 147 381 l 1
 166 406 200 442 252 442 c 0
 350 442 431 340 431 215 c 0
 431 89 350 -11 250 -11 c 0
 181 -11 77 51 77 230 c 2
 77 457 l 1
 27 416 l 1
 26 416 l 1
 7 439 l 1
 7 440 l 1
 77 498 77 494 77 514 c 2
 77 596 l 2
 77 647 60 652 -1 652 c 1
147 223 m 2
 147 149 153 105 175 65 c 0
 195 30 223 12 250 12 c 0
 282 12 313 36 332 86 c 0
 347 127 347 172 347 215 c 0
 347 280 346 352 299 397 c 0
 283 412 267 419 250 419 c 0
 207 419 165 376 150 337 c 0
 146 328 147 318 147 308 c 2xcc
 147 223 l 2
EndSplineSet
EndChar

StartChar: quotesingle
Encoding: 39 39 278
Width: 333
Flags: HW
TeX: 688 0
HStem: 690 20G<158 179.5>
VStem: 120 92<473.984 704.152>
LayerCount: 2
Fore
SplineSet
120 665 m 0
 120 702 150 710 166 710 c 0
 193 710 212 693 212 665 c 0
 212 645 184 419 178 347 c 1
 155 347 l 1
 149 418 120 646 120 665 c 0
EndSplineSet
EndChar

StartChar: fraction
Encoding: 8260 8260 281
Width: 555
Flags: HW
TeX: 749 249
DStem2: 90 -207 128 -221 0.341012 0.940059<-22.4172 1009.17>
LayerCount: 2
Fore
SplineSet
84 -229 m 0
 84 -222 88 -214 90 -207 c 2
 427 722 l 2
 431 732 436 749 451 749 c 0
 461 749 470 740 470 729 c 0
 470 722 466 715 464 708 c 2
 128 -221 l 2
 124 -233 118 -249 103 -249 c 0
 94 -249 84 -241 84 -229 c 0
EndSplineSet
EndChar

StartChar: zerooldstyle
Encoding: 63280 63280 282
Width: 555
Flags: HW
TeX: 437 0
HStem: -22 23<221.651 334.532> 430 23<216.521 337.382>
VStem: 66 84<90.4454 339.284> 404 84<90.0494 335.237>
LayerCount: 2
Fore
SplineSet
66 212 m 0
 66 385 151 453 278 453 c 0
 386 453 488 402 488 211 c 0
 488 24 382 -22 276 -22 c 0
 171 -22 66 24 66 212 c 0
150 224 m 2
 150 104 152 27 240 5 c 0
 252 2 265 1 277 1 c 0
 321 1 360 18 380 51 c 0
 395 76 404 116 404 209 c 2
 404 233 l 1
 403 322 408 430 277 430 c 0
 156 430 150 336 150 245 c 2
 150 224 l 2
EndSplineSet
EndChar

StartChar: oneoldstyle
Encoding: 63281 63281 283
Width: 555
Flags: HW
TeX: 437 0
HStem: 0 31<123 238.994 330.699 447> 379 31<117 242.359>
VStem: 247 76<38.2537 395>
LayerCount: 2
Fore
SplineSet
117 379 m 1
 117 410 l 1
 266 410 283 452 307 452 c 0
 325 452 323 435 323 418 c 2
 323 80 l 2
 323 39 330 31 434 31 c 2
 447 31 l 1
 447 0 l 1
 390 2 335 3 278 3 c 0
 216 3 169 1 123 0 c 1
 123 31 l 1
 133 31 143 31 153 31 c 0
 229 31 247 34 247 80 c 2
 247 395 l 1
 197 380 163 379 117 379 c 1
EndSplineSet
EndChar

